<?xml version="1.0" encoding="UTF-8"?><svg id="Layer_1" xmlns="http://www.w3.org/2000/svg" viewBox="0 0 459.35 444.99"><defs><style>.cls-1{fill:#66a3ff;}</style></defs><path class="cls-1" d="M459.35,0H0V444.99c19.24-3.98,37.95-10.24,55.4-18.99,57.91-29.04,87.94-83.56,100.54-145.42,5.72-28.09,16.05-51.08,41.28-66.91,19.23-12.07,43.4-21.5,66.24-22.22,27.98-.89,50.03,13.22,68.28,33.23,15.88,17.41,31.5,49.22,54.85,56.6,17.62,5.58,36.84-8.46,42.76-25.96s1.73-36.8-4.49-54.2c-20.63-57.67-20.43-102.95,7.77-159.34,7.05-14.09,17.02-27.76,26.71-41.77Z"/></svg>