<?xml version="1.0" encoding="UTF-8"?><svg id="Layer_1" xmlns="http://www.w3.org/2000/svg" viewBox="0 0 302.27 285.09"><defs><style>.cls-1{fill:#8c71ff;}</style></defs><path class="cls-1" d="M264.98,152.73c-1.42-1.61-2.8-3.2-4.13-4.77,4.22-2.88,9.85-1.45,14.6-2.34,4.52-.85,9.16-2.61,13.07-5.04,7.79-4.84,12.19-12.64,11.56-21.9-.93-13.44-11.44-27.59-24.91-30.55-2.35-.52-4.81-.34-7.17-.78-5.36-.99-9.78-5.12-12.13-10.04-7.56-15.88,5.69-29.35,3.16-45.13-1.53-9.57-7.59-18.18-15.35-23.79-16.7-12.06-41.05-11.16-56.42,2.68-8.56,7.71-14.83,18.43-26.06,22.77-15.46,5.97-33.26,1.04-48.99,7.85-7.44,3.22-15.76,4.93-21.67-2.01-4.71-5.52-9.75-10.77-15.37-15.37-9.07-7.43-20.63-12.48-32.53-11.65C24.79,13.93,7.89,28.34,2.37,45.06c-9.39,28.47,10.54,61.45,35.6,74.57,12.82,6.71,11.57,16.07,14.71,28.47,2.2,8.7,9.11,12.8,14.03,19.75,5.21,7.35,3.27,15.63,5.09,23.96,1.37,6.27,4.98,12.13,9.83,16.3,10.64,9.16,24.63,7.37,37.51,5.81,8.06-.98,27.53-5.24,25.69,8.81-1.13,8.61-2.49,17.1-2.56,25.79-.08,9.14,.92,18.74,6.06,26.3,20.53,30.16,58.16-13.16,47.33-39.07-6.44-15.42-8.74-39.44,12.7-44.08,8.73-1.89,14.77,3.64,19.33,10.42,7.88,11.72,18.77,19.65,32.4,23.32,12.49,3.36,27.45,3.36,35.69-8.25,5.89-8.29-.6-23.25-4.69-31.05-6.59-12.6-16.81-22.83-26.14-33.38Z"/><path class="cls-1" d="M302.27,61.02c.08-2.63-.62-5.31-2.39-7.77-10.03-14.05-32.89,5.34-21.09,18.55,9.07,10.15,23.13,.15,23.47-10.78Z"/></svg>