<?xml version="1.0" encoding="UTF-8"?><svg id="Layer_1" xmlns="http://www.w3.org/2000/svg" viewBox="0 0 308.02 426.39"><defs><style>.cls-1{fill:#55baff;}</style></defs><path class="cls-1" d="M298.9,149.62c-4.52-8.39-11.11-17.16-20.32-21.33-9.63-4.36-20.22-6.17-30.62-7.56-3.29-.44-13.24,.22-15.69-1.81-5.81-4.82,15.81-17.34,18.82-19.71,15.01-11.85,27.71-32.14,25.18-52.25-2.89-22.94-21.66-35.59-43.7-36.56-10.87-.48-21.93,1.53-32.05,5.46-9.35,3.63-17.64,12.32-27.97,14.17-7.96,1.42-14.99-3.37-21.03-7.89-3.79-2.84-8.34-4.63-12.13-7.44-4.05-3-6.86-7.45-11.07-10.34-11.61-7.96-25.94-3.91-36.59,3.66-7.98,5.68-10.45,15.35-16.71,22.4-10.03,11.3-24.23,9.26-37.43,12.56C15.65,48.45-1.02,68.01,.05,91.1c.36,7.89,2.86,15.79,7.8,21.95,4.79,5.98,13.01,7.52,19.45,11.55,9.47,5.91,.87,20.97-2.62,27.92-6.17,12.25-12.68,23.88-7.66,37.99,3,8.45,9.6,15.56,17.8,19.19,7.7,3.41,16.34,3.75,24.69,4.89,30.41,4.16,45.71,30.9,53.8,57.83,5.93,19.75,5.93,73.07,37.57,68.34,16.36-2.44,23.39-16.67,26.92-31.08,3.93-16.07,5.83-32.53,8.22-48.88,1.7-11.6,.85-26.55,7.13-36.92,8.58-14.15,23.93,.33,31.69,7.6,27.89,26.13,71.4,2.82,81.1-29.55,4.29-14.32,1.51-31.81-3.86-45.45-.93-2.35-1.97-4.65-3.16-6.87Z"/><path class="cls-1" d="M162.35,358.27c-3.8-2.44-8.44-3.43-13.53-2.5-17.07,3.12-21.66,30.2-19.69,44.22,1.08,7.68,3.99,15.46,9.89,20.49,28.74,24.54,38.59-34.02,31.55-51.81-1.77-4.48-4.62-8.08-8.22-10.39Z"/></svg>