<?xml version="1.0" encoding="UTF-8"?>
<svg id="Layer_1"
    xmlns="http://www.w3.org/2000/svg" viewBox="0 0 1080 1080">
    <defs>
        <style>.hamburger__lines{fill:#fff;}.cls-2{fill:none;stroke:#fff;stroke-linecap:round;stroke-linejoin:round;stroke-width:100px;}</style>
    </defs>
    <path d="M0,0H911.17C1004.35,0,1080,75.65,1080,168.83V911.17c0,93.18-75.65,168.83-168.83,168.83H0V0H0Z"/>
    <line class="cls-2" x1="233.68" y1="540" x2="846.32" y2="540"/>
    <path class="cls-1" d="M734.39,376.03H233.68c-27.61,0-50-22.39-50-50s22.39-50,50-50h500.71c27.61,0,50,22.39,50,50s-22.39,50-50,50Z"/>
    <path class="cls-1" d="M734.39,803.97H233.68c-27.61,0-50-22.39-50-50s22.39-50,50-50h500.71c27.61,0,50,22.39,50,50s-22.39,50-50,50Z"/>
    <path class="cls-1" d="M734.39,590H233.68c-27.61,0-50-22.39-50-50s22.39-50,50-50h500.71c27.61,0,50,22.39,50,50s-22.39,50-50,50Z"/>
</svg>

<svg id="hamburger" xmlns="http://www.w3.org/2000/svg" viewBox="0 0 1080 1080">
    <path d="M0,0H911.17C1004.35,0,1080,75.65,1080,168.83V911.17c0,93.18-75.65,168.83-168.83,168.83H0V0H0Z"/>
    <g class="hamburger__lines">
        <path d="M734.39,376.03H233.68c-27.61,0-50-22.39-50-50s22.39-50,50-50h500.71c27.61,0,50,22.39,50,50s-22.39,50-50,50Z"/>
        <path d="M734.39,803.97H233.68c-27.61,0-50-22.39-50-50s22.39-50,50-50h500.71c27.61,0,50,22.39,50,50s-22.39,50-50,50Z"/>
        <path d="M734.39,590H233.68c-27.61,0-50-22.39-50-50s22.39-50,50-50h500.71c27.61,0,50,22.39,50,50s-22.39,50-50,50Z"/>
    </g>
</svg>