<?xml version="1.0" encoding="UTF-8"?><svg id="Layer_1" xmlns="http://www.w3.org/2000/svg" viewBox="0 0 290.7 573.15"><defs><style>.cls-1{fill:#caff55;}</style></defs><path class="cls-1" d="M263.64,142.41c16.85-5.2,32.89-12.8,24.98-32.49-5.3-13.2-16.66-22.34-25.62-32.93-4.63-5.47-8.75-11.26-11.07-18.1-3.08-9.05,.12-17.27-.5-26.55C250.02,11.31,231.05,.61,211.68,.03c-9.75-.29-19.81,1.64-28.58,5.97-13.91,6.87-24.6,20.64-39.5,26.2-12.54,4.68-25.66,2.6-38.4,.04-18.47-3.71-39.61-5.88-57.88,1.25-16.76,6.55-27.85,22.6-28.05,40.59-.15,13.15,6.15,24.31,15.18,33.46,6.51,6.59,18.08,10.13,22.3,18.8,6.89,14.15-6.22,27.87-16.14,36.44-15.29,13.21-32.44,29.97-39.13,49.74-4.75,14.05,2.31,30.32,15.8,36.51,9.94,4.56,20.8,1.33,29.64-4.14,6.94-4.29,12.7-13.41,21.1-14.68,22.75-3.43,28.47,19.02,29.44,37.08,1.02,18.97-3.09,38.71-1.9,58.01,.76,12.25,3.96,41.33,20.69,43.03,5.34,.54,7.32-.73,9.22,4.94,14.67,43.95,9.68,92.48,16.94,137.87,2.99,18.67,2.43,63.59,31.08,61.98,5.96-.33,11.47-3.65,15.43-8.11,20.39-22.93,7.99-57.33,8.66-84.44,1-40.44,1.98-82,3.09-122.87,.55-20.24,1.11-40.47,1.4-60.72,.15-10.48,.36-21-.65-31.45-.6-6.23-5.58-18.75,1.18-23.43,2.52-1.74,5.92-1.17,8.88-.35,23.04,6.43,49.99-3.41,63.35-23.33,8.41-12.55,9.26-26.77,1.51-39.81-5.11-8.59-17.32-11.1-22.99-19.41-6.26-9.19,2.23-14.31,10.3-16.8ZM131.93,54.56c-1.28-.07-2.56-.14-3.85-.21-.12-.11-.25-.21-.38-.31,1.63,.06,3.26,.08,4.89,.07-.22,.15-.44,.3-.66,.46Zm114.52,94.95c-.09,.08-.15,.13-.18,.15-.11-.12-.15-.11-.15,0-.16-1.99,.59-.38,.33-.16Z"/></svg>