<?xml version="1.0" encoding="UTF-8"?><svg id="Layer_1" xmlns="http://www.w3.org/2000/svg" viewBox="0 0 282.9 363.08"><defs><style>.cls-1{fill:#ff7df0;}</style></defs><path class="cls-1" d="M268.91,66.06c-6.47-5.57-14.45-9.76-22.34-11.9-14.91-4.05-29.81,1.73-44.51,3.9-13.5,1.99-25.43-4.2-37.01-10.22-12.63-6.56-25.42-8.62-38.5-13.81-10.19-4.05-16.46-13.41-24.55-20.27C84.3-1.23,57.73-3.48,36.3,4.63,13.57,13.22-7.41,38.65,2.54,63.94c3.72,9.47,11.15,15.97,19.57,21.27,9.64,6.05,27.68,9.42,22.46,24.78-2.81,8.26-8.11,13.74-8.55,23.05-.5,10.61,2.5,21.93,1.91,32.85-.72,13.2-10.72,24.57-10.06,37.82,.8,16.07,16.39,25.12,30.7,27.38,10.62,1.67,22.31-2.16,32.64,1.14,9.3,2.97,13.38,12.96,15.25,22.03,4.41,21.35,5.22,43.2,9.21,64.59,2.93,15.7,8.61,34.07,24.1,41.64,7.65,3.74,17.49,3.64,24.15-1.67,7.06-5.63,9.1-15.42,9.77-24.43,1.15-15.53-3.5-30.04-3.37-45.18,.09-10.38,8.63-14.03,15.95-19.26,11.53-8.26,11.83-21.53,15.79-33.7,4.06-12.46,17.03-19.46,24.53-29.61,7.04-9.54,9.7-22.16,7.86-34.11-.88-5.68-3.25-11.71-6.14-17.05-7.03-13.01-13.22-26.47,6.13-31.84,16.49-4.58,32.65,2.43,43.59-15.06,10.09-16.12,3.27-31.85-9.11-42.52Z"/></svg>