<?xml version="1.0" encoding="UTF-8"?><svg id="Layer_1" xmlns="http://www.w3.org/2000/svg" viewBox="0 0 1284.52 403.97"><defs><style>.cls-1{letter-spacing:0em;}.cls-2{letter-spacing:0em;}.cls-3{fill:#00d186;}.cls-4{letter-spacing:.01em;}.cls-5{letter-spacing:0em;}.cls-6{letter-spacing:0em;}.cls-7{letter-spacing:0em;}.cls-8{letter-spacing:0em;}.cls-9{letter-spacing:0em;}.cls-10{fill:#fff;font-family:AcuminConcept-WideBlackItalic, 'Acumin Variable Concept';font-size:83.05px;font-variation-settings:'wght' 800, 'wdth' 115, 'slnt' 12;}</style></defs><g><path class="cls-3" d="M1281.55,111.88c-.13-1.87-1.08-3.57-2.61-4.66-1.53-1.09-3.44-1.44-5.25-.95l-22.72,6.06c-15.84,4.22-30.44,11.47-43.37,21.55-.48,.37-.96,.73-1.45,1.09l-2.34,.52,.23,1.03c-13.86,9.95-29.92,16.78-46.73,19.8l-9.11,1.64c-1.35,.24-2.71,.45-4.08,.64-17.59-7.95-34.97-16.25-50.36-28.09-26.46-20.36-53.73-43.67-84.23-59.45-29.04-15.02-61.97-19.43-93.9-24.09-26.49-3.86-54.77-12.52-82.51-14.03-37.74-2.06-74.33,9.32-111.9,9.91-31.23,.5-59.88-13.14-87.74-25.61-45.93-20.56-98.2-20.69-146.83-11.1-36.05,7.11-67.68,20.94-101.16,35.16-21.86,9.29-46.55-5.27-69.14-5.87-38.17-1.02-76.98,13.24-106.95,37.81-15.58,12.77-28.96,28.28-39.14,45.67-8.76,14.97-19.93,29.36-35.56,37.52l-.75-.13c-16.81-3.03-32.87-9.85-46.73-19.8l.23-1.03-2.34-.52c-.48-.36-.97-.72-1.45-1.09-12.94-10.07-27.53-17.32-43.37-21.55l-22.72-6.06c-1.81-.48-3.73-.14-5.25,.95-1.53,1.09-2.48,2.79-2.61,4.66l-2.96,41.8c-.03,.36-.02,.71,.02,1.06,.25,2.56,2.07,4.76,4.62,5.44l23.82,6.35c14.99,4,28.79,10.85,41.03,20.39,1.81,1.41,3.67,2.76,5.55,4.06-5.07,5.65-9.63,11.77-14.57,17.54-7.9,9.22-17.38,15.26-26.78,22.73-8.46,6.72-16.21,14.37-22.74,22.99-24,31.67-23.64,81.92,1.18,113.19,25.57,32.22,54.86,22.17,81.57,4.25-26.79-19.98-42.63-48.28-40.21-78.34,4.29-53.34,64.45-92.01,134.36-86.38,69.91,5.63,123.09,53.43,118.8,106.77-1.53,19.01-10.16,36.16-23.8,50.1,1,1.58,1.98,3.16,2.95,4.74,5.77,9.36,13.07,17.91,22.05,24.34,6.34,4.54,13.53,7.97,21.01,10.19,2.19,.65,4.51,1.19,6.73,.64,5.32-1.34,7.59-6.53,8.37-11.51,2.59-16.57,4.04-32.99,7.52-49.43,6.26-29.56,12.52-59.12,18.79-88.69,3.6-16.99,7.2-33.98,10.8-50.97,0-.02,.07-.4,.08-.4h61.6c-3.33,15.73-6.66,31.45-9.99,47.18-6,28.34-12.01,56.69-18.01,85.03-2.84,13.42-5.73,26.9-9.79,40.02-1.11,3.6-2.34,7.17-3.46,10.76-1.19,3.83-2.53,8.43-1.6,12.45,3.21,13.8,20.96-1.6,24.91-7.33,5.26-7.61,8.25-16.55,13.72-24.04,10.44-14.3,11.48-32.49,14.99-49.24,1.61-7.68,3.22-15.37,4.82-23.05,3.95-19.19,6.31-31.06,8.19-40.91h58.92c-.18,2.91-1.31,11.86-2.06,16.22,9.55-9.58,24.13-20.2,50.66-20.2,34.52,0,52.14,20.82,43.45,62.38-1.2,5.75-2.5,11.48-3.87,17.19-1.46,6.05-5.1,12.82-2.82,19.09,.96,2.62,2.87,4.77,5.16,6.32,1.58,1.08,3.34,1.9,4.77,3.17,2.28,2.03,4.28,4.44,6.85,6.13,3.65,2.4,7.61,1.88,11.02-.65,8.58-6.37,12.88-16.53,15.11-26.68,3.22-14.66,4.58-29.65,7.68-44.32h-22.18l8.19-38.64h22.18l1.77-8.59c8.4-36.96,26.95-54.65,66.98-54.65,7.52,0,17.62,.57,26.62,2.49l-8.44,37.21c-4.23-.47-5.55-.47-7.99-.47-9.85,0-13.52,4.12-15.86,14.07l-2.34,9.94h26.32l-8.19,38.64h-26.32c-.62,2.95-1.25,5.89-1.87,8.84-1.47,6.94-2.94,13.89-4.41,20.83-1.72,8.12-3.44,16.23-5.16,24.35-.97,4.57-2.08,9.12-3.14,13.67-1.09,4.69-3.5,9.49-2.99,14.42,.7,6.83,6.98,11.06,12.84,13.37,4.97,1.95,10.54,.61,15.77,1.19,5.47,.6,9.19,5.01,13.24,8.24,5.79,4.62,14.22,3.99,19.66-.88,3.52-3.15,5.09-7.97,4.4-12.61-.56-3.75-3.06-6.56-5.03-9.68-5.99-9.52-9.11-19.95-9.49-31.2,0-.13,0-.26-.01-.39-.02-.78-.03-1.57-.03-2.35,0-47.77,32.13-90.41,98.45-90.41,50.34,0,80.11,27.44,80.11,68.13,0,12.77-3.13,25.23-8.17,36.91-1.88,4.35-4.59,9.77-1.04,14.08,2.87,3.48,8.26,5.06,12.58,5.44,8.83,.78,17.58-1.21,26.33-1.96,11.21-.95,22.36-.79,33.35-3.66,.61-.16,1.21-.34,1.82-.51-16.19-14.64-26.53-33.36-28.23-54.35-4.29-53.34,48.89-101.14,118.8-106.77,69.91-5.63,130.06,33.04,134.36,86.38,2.47,30.62-14.01,59.4-41.72,79.44,6.47,7.47,13.08,14.52,20.46,19.7,29.3,20.55,43.04-5.09,48.6-38.99,5.69-34.68,5.26-73.51-8.27-107.14-9.01-22.38-24.24-39.92-42.82-53.9,2.66-1.74,5.24-3.59,7.75-5.54,12.24-9.53,26.04-16.39,41.03-20.39l23.82-6.35c2.55-.68,4.37-2.88,4.62-5.44,.03-.35,.04-.7,.02-1.06l-2.96-41.8ZM32.13,257.96c-.2,.21-.39,.43-.58,.65,.38-.83,.77-1.65,1.15-2.48,.01,.42,.02,.85,.03,1.27-.2,.18-.41,.35-.6,.56Z"/><path class="cls-3" d="M513.41,361.96c.41,1.33,.99,2.63,1.76,3.89,2.26,3.73,6.32,6.41,8.55,10.29,2.94,5.13,.84,12.16,4.21,17.2,3.48,5.19,9.85,2.8,13.83-.41,7.97-6.41,10.43-16.83,11.91-26.45,1.82-11.83,3.68-23.59,6.14-35.32,.91-4.34,1.82-8.68,2.73-13.02,.13-.62,.26-1.23,.39-1.85,2.93-14.34,1.49-24.89-14.19-24.89s-25.22,10.23-30.2,34.31c-.65,3.12-1.3,6.25-1.95,9.37-1.77,8.5-5.87,18.25-3.18,26.88Z"/><path class="cls-3" d="M879.88,324.8c.07-3.3,.07-6.63,.18-9.97,.14-4.35-.29-8.77-1.74-12.87-1.45-4.11-3.98-7.9-7.51-10.45-6.67-4.82-16.15-4.48-23.42-.63-7.28,3.84-12.59,10.66-16.37,17.97-8.68,16.79-8.3,35.19-6.92,53.55,.43,5.72,.99,11.69,4.04,16.55,2.39,3.81,6.32,6.7,10.75,7.49,4.43,.79,9.27-.68,12.27-4.03,2.86-3.19,3.83-7.6,5.92-11.34,2.29-4.1,5.84-7.27,9.46-10.16,3.56-2.85,6.39-6.47,8.44-10.57,4.11-8.21,4.72-16.79,4.9-25.53Z"/><text class="cls-10" transform="translate(291.36 160.36)"><tspan class="cls-4" x="0" y="0">C</tspan><tspan x="68.35" y="0">o</tspan><tspan class="cls-5" x="125.48" y="0">mm</tspan><tspan class="cls-9" x="293.41" y="0">i</tspan><tspan class="cls-8" x="320.98" y="0">s</tspan><tspan class="cls-6" x="371.3" y="0">s</tspan><tspan class="cls-1" x="421.8" y="0">i</tspan><tspan class="cls-9" x="449.61" y="0">o</tspan><tspan class="cls-5" x="506.75" y="0">n</tspan><tspan class="cls-2" x="564.47" y="0">i</tspan><tspan class="cls-7" x="592.29" y="0">ng</tspan></text></g><g><path class="cls-3" d="M1101.7,270c24.34-1.96,45.29,11.5,46.79,30.08,1.49,18.57-17.03,35.22-41.37,37.18-24.34,1.96-45.29-11.51-46.79-30.08-1.5-18.57,17.03-35.22,41.37-37.18"/><path class="cls-3" d="M1020.55,293.38c12.23-.98,22.75,5.78,23.5,15.11,.75,9.33-8.55,17.69-20.78,18.67-12.23,.99-22.75-5.78-23.5-15.11-.75-9.33,8.55-17.69,20.78-18.68"/><path class="cls-3" d="M1188.27,313.87c-12.23,.98-22.75-5.78-23.5-15.11-.75-9.33,8.55-17.69,20.78-18.68,12.23-.99,22.75,5.78,23.5,15.11,.75,9.33-8.55,17.69-20.78,18.68"/><path class="cls-3" d="M1087.34,368.35c-.75-9.33,8.55-17.69,20.78-18.68,12.23-.99,22.75,5.78,23.5,15.11,.75,9.33-8.55,17.69-20.78,18.68-12.23,.98-22.75-5.78-23.5-15.11"/><path class="cls-3" d="M1121.49,238.9c.75,9.33-8.55,17.69-20.78,18.68-12.23,.99-22.75-5.78-23.5-15.11-.75-9.33,8.55-17.69,20.78-18.67,12.23-.99,22.75,5.78,23.5,15.11"/></g><path class="cls-3" d="M189.54,269.9c-24.34-1.96-45.29,11.5-46.79,30.08-1.49,18.57,17.03,35.22,41.37,37.18,24.34,1.96,45.29-11.51,46.79-30.08,1.5-18.57-17.03-35.22-41.37-37.18"/><path class="cls-3" d="M270.7,293.28c-12.23-.98-22.75,5.78-23.5,15.11-.75,9.33,8.55,17.69,20.78,18.67,12.23,.99,22.75-5.78,23.5-15.11,.75-9.33-8.55-17.69-20.78-18.68"/><path class="cls-3" d="M102.98,313.78c12.23,.98,22.75-5.78,23.5-15.11,.75-9.33-8.55-17.69-20.78-18.68-12.23-.99-22.75,5.78-23.5,15.11-.75,9.33,8.55,17.69,20.78,18.68"/><path class="cls-3" d="M203.91,368.26c.75-9.33-8.55-17.69-20.78-18.68-12.23-.99-22.75,5.78-23.5,15.11-.75,9.33,8.55,17.69,20.78,18.68,12.23,.98,22.75-5.78,23.5-15.11"/><path class="cls-3" d="M169.76,238.8c-.75,9.33,8.55,17.69,20.78,18.68,12.23,.99,22.75-5.78,23.5-15.11,.75-9.33-8.55-17.69-20.78-18.67-12.23-.99-22.75,5.78-23.5,15.11"/></svg>