<?xml version="1.0" encoding="UTF-8"?><svg id="Layer_1" xmlns="http://www.w3.org/2000/svg" xmlns:xlink="http://www.w3.org/1999/xlink" viewBox="0 0 327.08 217.28"><defs><style>.cls-1{letter-spacing:0em;}.cls-2{fill:#fff;font-family:AcuminConcept-Condensed, 'Acumin Variable Concept';font-size:32px;font-variation-settings:'wght' 400, 'wdth' 67, 'slnt' 0;}.cls-3{letter-spacing:0em;}.cls-4{letter-spacing:0em;}.cls-5{letter-spacing:0em;}.cls-6{letter-spacing:0em;}.cls-7{letter-spacing:0em;}.cls-8{letter-spacing:0em;}.cls-9{letter-spacing:0em;}.cls-10{letter-spacing:0em;}.cls-11{letter-spacing:0em;}.cls-12{letter-spacing:0em;}.cls-13{letter-spacing:0em;}.cls-14{letter-spacing:0em;}.cls-15{clip-path:url(#clippath);}.cls-16{fill:none;}.cls-17{letter-spacing:.01em;}.cls-18{letter-spacing:0em;}.cls-19{letter-spacing:.01em;}.cls-20{letter-spacing:0em;}.cls-21{letter-spacing:0em;}.cls-22{letter-spacing:.01em;}.cls-23{letter-spacing:-.01em;}.cls-24{letter-spacing:0em;}</style><clipPath id="clippath"><rect class="cls-16" width="327.08" height="217.28"/></clipPath></defs><g class="cls-15"><path d="M319.87,216.77c4.79,2.28,9.55-3.52,5.94-7.85-2.36-2.84-4.57-5.79-6.23-9.09-3.57-7.14-10.78-14.93-13.99-23.73-2.75-7.53-1.6-15.26-1.6-23.09V37.44C304,16.76,287.24,0,266.56,0H37.44C16.76,0,0,16.76,0,37.44v100.56C0,158.68,16.76,175.44,37.44,175.44h56.25c43.14,0,86.38,.82,129.5-.04,19.4-.39,41.33,15.04,58.56,23.24,12.7,6.04,25.41,12.09,38.11,18.13"/></g><text class="cls-2" transform="translate(31.35 60.01)"><tspan class="cls-21" x="0" y="0">f</tspan><tspan class="cls-6" x="6.91" y="0">e</tspan><tspan x="20.19" y="0">el </tspan><tspan class="cls-19" x="45.53" y="0">f</tspan><tspan class="cls-14" x="52.73" y="0">r</tspan><tspan class="cls-18" x="61.37" y="0">e</tspan><tspan x="74.65" y="0">e </tspan><tspan class="cls-8" x="93.79" y="0">t</tspan><tspan class="cls-11" x="101.28" y="0">o</tspan><tspan x="114.65" y="0"> </tspan><tspan class="cls-12" x="120.76" y="0">a</tspan><tspan class="cls-4" x="133.88" y="0">s</tspan><tspan x="145.69" y="0">k a</tspan><tspan class="cls-23" x="177.43" y="0">n</tspan><tspan class="cls-3" x="191.26" y="0">y </tspan><tspan x="0" y="36">qu</tspan><tspan class="cls-9" x="28.03" y="36">e</tspan><tspan class="cls-18" x="41.25" y="36">s</tspan><tspan class="cls-13" x="53.37" y="36">t</tspan><tspan x="61.12" y="36">ions a</tspan><tspan class="cls-5" x="126.2" y="36">b</tspan><tspan x="140.22" y="36">o</tspan><tspan class="cls-22" x="153.63" y="36">u</tspan><tspan x="168" y="36">t </tspan><tspan class="cls-20" x="181.75" y="36">w</tspan><tspan class="cls-7" x="201.02" y="36">h</tspan><tspan class="cls-3" x="214.94" y="36">at </tspan><tspan x="0" y="72">you </tspan><tspan class="cls-1" x="45.76" y="72">s</tspan><tspan class="cls-18" x="57.66" y="72">e</tspan><tspan x="70.94" y="72">e he</tspan><tspan class="cls-14" x="117.27" y="72">r</tspan><tspan x="125.92" y="72">e </tspan><tspan class="cls-10" x="145.05" y="72">b</tspan><tspan class="cls-17" x="159.07" y="72">t</tspan><tspan class="cls-24" x="167.19" y="72">w</tspan><tspan x="186.62" y="72">!!!</tspan></text></svg>