<?xml version="1.0" encoding="UTF-8"?><svg id="Layer_1" xmlns="http://www.w3.org/2000/svg" xmlns:xlink="http://www.w3.org/1999/xlink" viewBox="0 0 127.04 355.78"><defs><style>.cls-1{fill:#f26e4d;}.cls-2{clip-path:url(#clippath);}.cls-3{fill:none;}</style><clipPath id="clippath"><rect class="cls-3" y="0" width="127.04" height="355.78"/></clipPath></defs><g class="cls-2"><path class="cls-1" d="M39.61,333.64c-1.52-.13-3.12,.16-4.27,1.14-1.71,1.47-1.97,3.99-1.95,6.24,.03,4.32,2.16,16.32,8.85,11.82,7.12-4.78,8.13-17.89-2.35-19.18-.09-.01-.18-.02-.27-.03"/><path class="cls-1" d="M103.18,28.72c-.21,1.17-1,2.32-1.86,3.22-1.03,1.11-2.24,2.08-3.48,2.94-4.02,2.79-8.7,4.41-13.15,6.37-2.25,.99-4.46,2.08-6.62,3.26-4.24,2.31-8.54,4.89-12.21,8.04-.69,.59-1.36,1.17-1.31,2.17,.05,.91,.6,1.73,1.01,2.49,.54,1.01,1.14,2.02,1.69,2.99,.33,.58,.65,1.15,.98,1.72,.17,.3,.34,.6,.51,.9,.1,.17,.43,.57,.43,.76,.7,1.23,1.56,2.45,2.13,3.74,1.29,2.26,2.74,4.52,3.89,6.82,1.16,2.03,2.46,3.98,3.52,6.07,.35,.68,.96,1.56,.73,2.36-.19,.69-.94,.9-1.47,.44-.43-.36-.65-.94-.95-1.41-.15-.24-.71-.84-.71-1.11-.27-.42-.54-.85-.81-1.27-.27-.42-.54-.85-.81-1.27-.27-.42-.54-.85-.81-1.27-.27-.42-.54-.85-.81-1.27-.27-.42-.54-.85-.81-1.27-.27-.42-.54-.85-.81-1.27-.27-.42-.54-.85-.81-1.27-.27-.42-.54-.85-.81-1.27-.27-.42-.54-.85-.81-1.27-.27-.42-.54-.85-.81-1.27-.27-.42-.54-.85-.81-1.27-.27-.42-.57-.84-.81-1.27l-.4-.63c-.07-.11-.14-.21-.2-.32-.03-.05-.07-.1-.1-.15-.01-.02-.02-.05-.04-.07,0,0-.04-.03-.04-.04,.02,.12,.09,.23,.14,.34,.05,.11,.1,.23,.15,.34,.5,1.15,1,2.31,1.49,3.45l.6,1.38c.2,.46,.4,.92,.6,1.38,.83,1.91,1.65,3.82,2.48,5.73,.63,1.46,1.29,2.9,1.96,4.35,.19,.41,.35,.82,.49,1.25,.1,.29,.16,.6,.09,.89-.07,.29-.24,.59-.58,.57-1.1-.07-1.77-2.11-2.18-2.92-.64-1.28-1.24-2.58-1.84-3.88-2.14-4.6-3.94-9.35-5.45-14.19-.57-1.84-1.31-4.17-3.4-4.75-1.82-.51-3.62,.76-5.09,1.95-6.47,5.23-12.94,10.46-19.42,15.7-.71,.57-2.07,.94-2.25,.05-.09-.47,.31-.87,.68-1.17,6.18-5.14,12.37-10.27,18.55-15.41-6.67,3.75-13.35,7.5-20.02,11.24-.48,.27-1.17,.5-1.5,.05-.36-.49,.21-1.12,.71-1.46,8.9-5.97,18.18-11.38,27.77-16.19l-13.07-22.95c-.62-1.1-1.2-2.6-.31-3.49,.86-.85,2.3-.35,3.38,.2-.15-1.08,.98-2.03,2.07-1.96,1.08,.07,2,.9,2.49,1.88,.49,.97,.63,2.07,.79,3.15,1.12,7.5,3.53,14.8,7.07,21.51,9.17-5.64,17.84-12.08,25.89-19.21,2.63-2.33,5.26-4.77,8.48-6.15,1.12-.48,2.34-.82,3.55-.68,1.21,.14,2.41,.84,2.87,1.97,.23,.55,.26,1.12,.16,1.69m-20.17,60.7c-.09,.48-.65,.73-1.09,.58-.34-.12-.59-.41-.82-.67-.46-.51-.8-1.07-.98-1.73-.05-.17-.1-.35-.26-.45-.13-.09-.3-.07-.44-.11-.86-.26-.47-1.56,.3-1.64,.42-.04,.86,.18,1.17,.44,.25,.21,.52,.06,.81,.15,.16,.05,.32,.17,.42,.31,.04,.05,.08,.1,.11,.16,.24,.42,.43,.87,.57,1.34,.08,.27,.14,.54,.17,.81,.04,.26,.09,.55,.04,.81m-51.43-10.27c-.3,.23-.72,.02-1.03,.27-.52,.41-1.03,1.94-1.91,1.3l-.02-.02s-.05-.04-.07-.06c-.55-.5-.12-1.28,.23-1.75,.38-.51,.86-.93,1.39-1.27,.31-.2,.65-.39,1.03-.34,.21,.03,.43,.13,.56,.31,.12,.17,.18,.42,.18,.67,0,.32-.1,.69-.36,.89M125.88,254.64c-.28-1.17-.54-2.35-.75-3.52-2.6-14.29-3.64-28.85-6.96-43.01-3.39-14.45-8.87-28.25-11.27-42.96-2.47-15.16-5.18-32.62-1.91-47.8,1.46-6.77,3.64-13.35,5.59-19.99,1.7-5.82,2.37-11.84,4.57-17.53,3.63-9.4,8.65-16.63,8.94-27.21,.28-10.47-2.51-20.87-7.05-30.31-5.01-10.42-12.93-19.05-24.89-20.7-9.58-1.32-17.86,2.85-27.18,3.35C58.07,5.34,52.58-.62,45.59,.05c-9.89,.95-19.71,11.13-25.72,18.35-6.67,8.02-11.9,17.76-13.03,28.26-.57,5.3,.71,9.06-2.5,13.72-7.98,11.6-3.27,24.59,.71,36.64,2.23,6.75,.65,12.33-.73,19.07-2.43,11.91-1.39,26.3-.32,38.35,1.4,15.67,5.37,31.32,13.75,44.78,2.51,4.03,5.93,7.32,7.55,11.91,3.94,11.17,3.71,23.16,1.21,34.61-3.59,16.41-11.56,30.93-13.46,47.89-.6,5.35-.25,11.01,2.38,15.7,2.49,4.43,6.67,7.38,10.81,10.15,3.56,2.38,7.3,5.91,11.25,7.48,4.95,1.96,10.42,1.57,15.4-.08,4.06-1.35,9.1-6.5,13.38-5.89,5.91,.84,7.07,10.27,8.06,14.84,.98,4.56,1.96,9.23,4.43,13.18,2.47,3.95,6.81,7.09,11.46,6.76,4.37-.31,8.02-3.56,10.44-7.22,9.61-14.56,17.07-32.62,20.93-49.58,3.1-13.6,7.61-30.47,4.28-44.31"/></g></svg>