<?xml version="1.0" encoding="UTF-8"?><svg id="Layer_1" xmlns="http://www.w3.org/2000/svg" viewBox="0 0 2051.09 840.69"><defs><style>.cls-1{letter-spacing:0em;}.cls-2,.cls-3,.cls-4{fill:#fff;}.cls-5{letter-spacing:0em;}.cls-6{letter-spacing:0em;}.cls-7{letter-spacing:0em;}.cls-8{letter-spacing:.02em;}.cls-3{font-size:210.78px;}.cls-3,.cls-4{font-family:AcuminConcept-BlackItalic, 'Acumin Variable Concept';font-variation-settings:'wght' 800, 'wdth' 100, 'slnt' 12;}.cls-9{letter-spacing:0em;}.cls-4{font-size:263.88px;}.cls-10{letter-spacing:0em;}.cls-11{letter-spacing:0em;}.cls-12{letter-spacing:.02em;}.cls-13{letter-spacing:0em;}.cls-14{letter-spacing:.01em;}.cls-15{letter-spacing:0em;}.cls-16{letter-spacing:0em;}.cls-17{letter-spacing:0em;}.cls-18{letter-spacing:0em;}.cls-19{letter-spacing:0em;}</style></defs><g><path d="M418.45,356.92c.72,0,1.43-.02,2.15-.01-.26,0-.53,0-.79,0-.45,0-.91,.01-1.36,.02Z"/><path d="M472.7,344.06c1.1-.03,2.19-.04,3.29-.03-.1,0-.2,0-.31,0-.99,0-1.99,.01-2.98,.04Z"/><path d="M2019.51,268.11c-3.88-57.76-28.35-111.33-70.06-152.46l-4.57-4.51c-.93-47.08-39.36-84.96-86.66-84.96H239.63c-45.27,0-82.42,34.7-86.34,78.96L60.23,191.91C20.1,229.32-1.81,282.22,.12,337.05c1.79,50.91,23.97,98.72,61.28,132.92,1.37,17.88,5.37,35.68,12.07,52.84,18.02,46.18,53.44,82.58,98.5,101.91,15.89,19.83,40.29,32.53,67.68,32.53h66.96c.17-2.26,.3-4.53,.39-6.8-15.55-23.43-26.52-49.77-32.62-78.33-10.75-50.37-4.74-101.27,16.92-143.31,10.67-20.7,24.56-38.17,41.3-51.9,17.5-14.36,37.32-23.98,58.9-28.58,8.66-1.85,17.55-2.85,26.45-2.97,9.4-4.41,19.28-7.74,29.4-9.9,9.3-1.99,18.84-2.99,28.34-2.99,37.99,0,76.03,16.06,107.12,45.23,30.98,29.06,53.28,69.64,62.8,114.27,10.75,50.37,4.74,101.27-16.92,143.31-4.02,7.8-8.49,15.13-13.4,21.98H1858.23c36.26,0,67.3-22.26,80.24-53.86l41.54-42c38.3-38.73,62.19-87.77,69.06-141.81,6.73-52.85-3.5-105.13-29.56-151.46ZM152.93,137.14v106.66l-65.62,117.23c-20.24-51.4-15.65-111.11,15.96-159.69l29.59-45.48,20.08-18.72Zm0,130.36v178.89l-25-24.31c-14.54-14.14-26.15-30.35-34.75-47.78,.4-.75,.8-1.5,1.21-2.24l58.53-104.56ZM23.26,336.24c-1.69-48.12,17.54-94.55,52.76-127.39l39.28-36.62-16.89,25.96c-22.76,34.99-32.75,77.1-28.11,118.59,1.96,17.57,6.52,34.67,13.38,50.76-12.01,21.8-19.32,45.4-21.83,69.46-23.52-28.13-37.28-63.5-38.59-100.76Zm49.33,112.42c1-23.38,6.81-46.51,17.32-68.01,8.81,16.79,20.25,32.22,33.99,45.59l29.04,28.24v60.24l-68.11-55.11c-4.28-3.46-8.35-7.13-12.23-10.96Zm11.66,69.94c-4.8-12.31-8.12-24.97-10-37.74l78.68,63.66v26.03c0,12.75,2.77,24.84,7.71,35.74-34.63-19.27-61.69-50.01-76.4-87.69ZM1944.93,224.86l.72,1.61c27.39,61.22,26.43,129.5-.72,188.43V224.86Zm0,215.03c15.73-27.2,26.02-57.32,30.16-88.74,5.81-44.08-.71-88.83-18.87-129.41l-11.29-25.23v-10.67l52.78,90.78c6.02,10.36,11.12,21.06,15.31,31.99-5.5,53.59-29.21,102.9-68.09,141.01v-9.72Zm67.63-183.8l-67.63-116.32v-20.45l.46,.45c37.68,37.16,60.94,84.73,67.17,136.32Zm-49.02,289.01l-18.61,18.82v-106.27l.89-.85c38.86-36.74,63.59-84.15,71.48-136,24.72,77.62,5.25,164.62-53.76,224.3Z"/></g><g><text class="cls-3" transform="translate(253.68 283.73)"><tspan x="0" y="0">p</tspan><tspan class="cls-16" x="131.95" y="0">r</tspan><tspan class="cls-9" x="220.69" y="0">o</tspan><tspan class="cls-1" x="347.79" y="0">f</tspan><tspan class="cls-11" x="422.83" y="0">e</tspan><tspan class="cls-7" x="547.61" y="0">s</tspan><tspan class="cls-15" x="661.01" y="0">s</tspan><tspan class="cls-11" x="774.2" y="0">i</tspan><tspan class="cls-5" x="837.22" y="0">o</tspan><tspan class="cls-17" x="965.16" y="0">n</tspan><tspan class="cls-19" x="1091.63" y="0">a</tspan><tspan class="cls-12" x="1216.41" y="0">l</tspan></text><text class="cls-4" transform="translate(733.37 526.37)"><tspan x="0" y="0">po</tspan><tspan class="cls-14" x="325.37" y="0">r</tspan><tspan class="cls-10" x="440.68" y="0">t</tspan><tspan class="cls-18" x="542.53" y="0">f</tspan><tspan x="636.47" y="0">o</tspan><tspan class="cls-6" x="796.65" y="0">l</tspan><tspan class="cls-13" x="875.28" y="0">i</tspan><tspan class="cls-8" x="954.18" y="0">o</tspan></text></g><path d="M634.28,494.35c-21.07-98.76-103.69-164.84-184.53-147.59-10.27,2.19-20.01,5.63-29.15,10.15-8.87-.06-17.79,.82-26.7,2.72-80.84,17.25-129.29,111.29-108.22,210.06,6.2,29.04,17.73,55.24,32.97,77.34-.4,23.27-4.97,46.01-13.63,67.69-7.56,18.93-12.17,38.84-13.72,59.16l-2.72,35.83c-.11,1.4,.45,2.77,1.51,3.7,.82,.72,1.87,1.1,2.93,1.1,.31,0,.62-.03,.93-.1l64.85-13.84c1.93-.41,3.37-2.05,3.52-4.02l2.72-35.83c1.48-19.42,5.89-38.44,13.11-56.53,.22-.54,.42-1.09,.63-1.64,28.26,15.53,59.97,21.44,91.42,14.73,10.26-2.19,19.99-5.62,29.13-10.14,8.87,.06,17.81-.83,26.73-2.73,80.84-17.25,129.29-111.29,108.22-210.06Zm-243.4,160.49c.22,.24,.44,.47,.66,.71l-.76,.16c.04-.29,.06-.58,.1-.87Zm9.3-80.46c-13.01,2.78-26.3-7.86-29.69-23.75-3.39-15.89,4.4-31.02,17.41-33.8,13.01-2.78,26.3,7.86,29.69,23.75,3.39,15.89-4.4,31.02-17.41,33.8Zm69.4-134.71c-13.01,2.77-26.3-7.86-29.69-23.75-3.39-15.89,4.4-31.02,17.41-33.8s26.3,7.86,29.69,23.75c3.39,15.89-4.4,31.02-17.41,33.8Zm-23.39,94.82c-6.01-28.15,7.8-54.96,30.84-59.87,23.04-4.92,46.59,13.92,52.6,42.07,6.01,28.15-7.8,54.96-30.84,59.87-23.04,4.92-46.59-13.92-52.6-42.07Zm72.33,134.55c-13.01,2.78-26.3-7.86-29.69-23.75-3.39-15.89,4.4-31.02,17.41-33.8s26.3,7.86,29.69,23.75c3.39,15.89-4.4,31.02-17.41,33.8Zm-130.22-289.45c-5.11,4.85-9.89,10.12-14.32,15.76l-19.07,4.07c9.99-8.41,21.18-15.15,33.4-19.83Zm-45.55,31.54l23.5-5.01c-6.52,9.93-12.07,20.78-16.54,32.34l-29.68,6.33c6.15-12.5,13.79-23.84,22.72-33.66Zm-27.25,43.74l30.71-6.55c-4.35,13.45-7.28,27.74-8.67,42.56l-33.4,7.13c2.03-15.22,5.89-29.73,11.36-43.14Zm-12.38,52.47l33.76-7.2c-.85,17.26,.4,35.14,3.96,53.21l-34.79,7.42c-3.48-18.22-4.36-36.21-2.93-53.43Zm4.79,62.16l34.82-7.43c4.28,17.94,10.59,34.75,18.55,50.1l-34.18,7.29c-8.34-15.14-14.93-31.9-19.19-49.96Zm48.24,190.54l-2.47,32.5-55.76,11.9,2.27-29.88c.11-1.38,.23-2.77,.36-4.15l55.73-11.89c-.04,.51-.09,1.01-.13,1.52Zm1.13-10.85l-55.57,11.86c1.76-11.94,4.65-23.67,8.63-35.07l54.73-11.68c-3.63,11.38-6.24,23.04-7.79,34.89Zm12.59-48.31c-.47,1.19-.94,2.38-1.39,3.57l-54.43,11.61c4.68-12.08,8.16-24.47,10.41-37.08l55.4-11.82c-2.28,11.47-5.61,22.73-9.99,33.72Zm-43.95-31.33c1.18-9.09,1.74-18.28,1.67-27.54l-.11-13.5,38.27-8.17c5.16,8.96,10.91,17.36,17.14,25.14-.33,4.09-.79,8.16-1.39,12.21l-55.58,11.86Zm59.57,12.65c1.53-5.64,2.8-11.33,3.83-17.06l9.57-2.04c9.01,8.73,18.73,16.32,28.96,22.63l-25.36,5.41c-5.81-2.54-11.48-5.54-17-8.94Zm32.88,14.67l21.31-4.55c6.97,3.5,14.12,6.41,21.42,8.71-14.46,1.32-28.85-.18-42.73-4.16Zm169.54-162.55c-13.01,2.78-26.3-7.86-29.69-23.75-3.39-15.89,4.4-31.02,17.41-33.8,13.01-2.77,26.3,7.86,29.69,23.75,3.39,15.89-4.4,31.02-17.41,33.8Z"/><path class="cls-2" d="M1895.64,259.21l-13.52-16.78c-7.67-9.52-16.71-17.79-26.88-24.58-11.66-7.78-21.63-17.51-29.74-28.89,.01-16.07-3.17-32.91-9.97-49.34-23.14-55.96-79.02-85.98-124.83-67.04-5.04,2.09-9.75,4.69-14.11,7.72-6.06,.87-12.04,2.48-17.86,4.89-45.81,18.94-64.18,79.66-41.05,135.62,23.14,55.96,79.02,85.98,124.83,67.04,5.04-2.08,9.72-4.7,14.08-7.73,6.07-.87,12.07-2.48,17.9-4.89,17.82-7.37,31.48-21.07,40.17-38.35,.29,.2,.58,.42,.87,.61,9.71,6.49,18.35,14.39,25.68,23.48l13.52,16.78c.52,.64,1.29,1,2.08,1,.34,0,.69-.07,1.02-.2l36.75-15.19c.78-.32,1.36-.99,1.57-1.81,.21-.82,.02-1.68-.51-2.34Zm-76.24-69.61c3.11,4.6,6.52,8.94,10.19,13.04l-31.49,13.02c-1.67-1.81-3.28-3.68-4.84-5.59,.43-5.95,.39-12.04-.1-18.2l21.71-8.98,4.53,6.71Zm-7.42-11.3l-19.39,8.01c-1.28-10.29-3.87-20.74-7.85-31.06l19.73-8.16c4.02,10.37,6.48,20.89,7.5,31.2Zm-9.55-36.14l-19.69,8.14c-4.38-10.14-9.84-19.4-16.12-27.64l19.13-7.91c6.55,8.02,12.21,17.23,16.68,27.41Zm-20.36-31.67l-18.91,7.82c-5.72-6.85-12.02-12.91-18.74-18.09l17.4-7.19c7.26,4.76,14.09,10.63,20.26,17.46Zm-25.95-20.89l-16.79,6.94c-6.14-4.19-12.56-7.67-19.16-10.36l13.29-5.49c7.75,1.81,15.38,4.82,22.66,8.91Zm-32.65-10.57l-10.78,4.46c-4.1-1.28-8.26-2.26-12.42-2.92,7.62-1.83,15.42-2.3,23.21-1.54Zm-69.29,145.81c-7.37,3.05-16.36-1.78-20.08-10.79-3.72-9-.77-18.77,6.6-21.82,7.37-3.05,16.36,1.78,20.08,10.79,3.72,9,.77,18.77-6.6,21.82Zm6.24-97.76c-3.72-9-.77-18.77,6.6-21.82,7.37-3.05,16.36,1.78,20.08,10.79,3.72,9,.77,18.77-6.6,21.82-7.37,3.05-16.36-1.78-20.08-10.79Zm16.57,69.24c-6.59-15.95-1.36-33.26,11.7-38.66,13.06-5.4,28.99,3.16,35.58,19.11,6.59,15.95,1.36,33.26-11.7,38.66-13.06,5.4-28.99-3.16-35.58-19.11Zm57.25,71.51c-7.37,3.05-16.36-1.78-20.08-10.79-3.72-9-.77-18.77,6.6-21.82,7.37-3.05,16.36,1.78,20.08,10.79,3.72,9,.77,18.77-6.6,21.82Zm26.32-86.97c-7.37,3.05-16.36-1.78-20.08-10.79-3.72-9-.77-18.77,6.6-21.82,7.37-3.05,16.36,1.78,20.08,10.79,3.72,9,.77,18.77-6.6,21.82Zm12.89,83.28c2.83-3.61,5.37-7.48,7.63-11.57l12.06-4.98c-5.5,6.68-12.09,12.3-19.68,16.56Zm25.58-24.78l-14.36,5.93c2.92-6.6,5.16-13.65,6.66-21.03l5.46-2.26c2.45,2.48,5,4.86,7.67,7.12-1.58,3.57-3.4,6.98-5.43,10.23Zm19.47-6.29c-5.9-3.94-11.36-8.38-16.38-13.27l13.5-5.58,17.89-7.4c5.4,5.47,11.33,10.41,17.74,14.79l-30.88,12.77c-.62-.43-1.24-.88-1.87-1.3Zm22.62,19.6c-4.79-5.33-10.03-10.21-15.69-14.6l31.01-12.82c5.84,4.28,11.25,9.1,16.18,14.4l-31.5,13.02Zm16.52,20.19l-12.26-15.22c-.19-.24-.4-.47-.59-.7l31.57-13.05c.54,.64,1.08,1.27,1.61,1.92l11.27,13.99-31.6,13.06Z"/></svg>