<svg id="svg-heading" xmlns="http://www.w3.org/2000/svg" viewBox="0 0 2051.09 840.69">
    <path d="M640.45,461c-1.31-7.65-5.03-14.44-12.56-19.18-11.03-6.95-32.71,1.25-41.38,9.2-5.74,5.27-9.06,12.67-11.38,20.11-3.43,10.97-6.71,22-9.29,33.2-2.56,11.08-6.25,24.34-2.69,35.56,2.4,7.56,9.82,14.17,17.64,12.81,4.46-.77,8.1-3.86,12.05-6.05,8.3-4.62,17.58-6.92,24.24-14.07,6.11-6.55,9.57-15.06,13.01-23.2,5.42-12.83,13.08-32.48,10.36-48.38Z"/>
    <path d="M461.69,257.74c-.8-2.57-1.86-4.9-2.8-6.49-8.69-14.67-32.58,2.38-27.76,15.83,1.73,4.81,6.84,5.91,11.47,5.95,4.86,.04,10.26,2.3,15.06,.87,6.49-1.93,6.02-9.8,4.03-16.17Z"/>
    <path d="M842.44,479.73c-.84-2.91-1.97-5.76-3.42-8.5-5.12-9.69-15.74-17.61-26.52-19.67-12.34-2.36-22.04,4.58-28.02,14.9-12.64,21.82-10.75,47.06-15.67,70.88-1.91,9.25-.88,18.89,3.37,27.37,4.09,8.16,11.24,17.89,21.51,13.66,4.55-1.87,5.65-7.36,9.78-9.05,2.24-.91,4.64,.22,6.85-1.05,4.65-2.68,7.11-7.52,9.8-11.93,5.48-8.97,11.9-17.53,16.21-27.15,6.67-14.88,10.78-33.26,6.1-49.45Zm-14.25,45.42c.07-.3,.14-.6,.21-.9,.29,.13,.59,.21,.9,.26-.37,.21-.75,.42-1.11,.64Zm8.06-30.27c.19-.99,.36-1.96,.51-2.91,.1,1,.18,1.99,.28,2.99-.26-.05-.52-.08-.79-.08Z"/>
    <path d="M328.95,275.97c-.51-3.8-1.52-7.5-3.44-10.67-5.08-8.4-14.37-6.32-20.91-.92-10.4,8.59-14.56,21.92-15.94,34.9-.93,8.65-3.1,26.72,6.88,31.26,3.68,1.68,5.6-1.72,8.29-3.44,3.09-1.98,7-2.16,10.01-4.28,11.2-7.92,15.08-22.32,15.51-35.38,.12-3.64,.13-7.61-.38-11.47Z"/>
    <path d="M1442.75,519.41c-2.03-11.05-13.52-19.83-24.63-19.65-13.48,.22-25.65,12.46-30.62,24.19-3.16,7.44-4.9,15.8-6.93,23.6-1.82,7-3.43,14.06-4.66,21.18-1.18,6.83-2.72,14-2.38,20.98,.21,4.28,1.24,8.61,3.44,12.32,2.43,4.08,6.37,6.22,10.47,8.38,2.7,1.43,4.67,3.02,6.78,5.21,3.71,3.85,8,8.36,13.87,6.39,3.08-1.04,5.63-3.3,7.56-5.93,5.49-7.48,8.45-16.88,11.17-25.65,2.78-8.96,6.89-17.45,9.77-26.38,1.68-5.22,2.77-10.61,2.93-16.1,.17-6.01,2.29-11.97,3.18-17.9,.53-3.54,.72-7.08,.07-10.63Z"/>
    <path d="M1067.92,234.95c-.37-1.05-1.03-2.02-2.09-2.85-2.02-1.6-4.94-1.33-7.38-.5-2.97,1-5.64,2.34-8.81,2.57-3.72,.27-7.46-.47-11.05,.95-5.35,2.13-14.43,6.69-14.71,13.4-.16,3.71,2.42,6.83,4.19,9.85s3.33,6.35,5.72,9.03c1.33,1.5,3.14,2.69,5.14,2.86,5.86,.5,10.94-5.15,14.33-9.2,3.63-4.33,7.07-8.8,10.46-13.31,2.33-3.1,5.67-8.59,4.19-12.8Z"/>
    <path d="M810.81,264.66c-2.74-14.37,4.87-33.01-8.04-44.1-5.62-4.83-13.45-4.97-20.43-4.55-6.76,.41-14.98,.37-19.45,6.37-4.28,5.75-4.32,13.6-5.68,20.35-1.36,6.77-1.92,13.91-.83,20.75,1.16,7.27,4.73,12,9.36,17.51,2.29,2.72,3.3,6.6,6.37,8.62,3.16,2.07,7.24,2.58,10.47,4.68,3.19,2.07,6.22,3.24,9.01-.19,1.85-2.28,2.16-5.19,2.94-7.91,1-3.48,3.14-6.47,6.29-8.29s7.39-2.51,9.4-6.08c1.21-2.14,1.05-4.72,.58-7.16Z"/>
    <path d="M2033.28,452.71c13.9-38.67,29.34-82.2,5.09-120.26-2.26-3.54-4.65-7.09-7.14-10.64-5.66-4.51-11.33-9.01-17.02-13.48-15.74-11.89-32.33-23.48-49.97-32.35-12.33-4.18-25.08-6.96-37.95-9.03-38.41-6.17-80.44-3.7-120.21-7.77-34.79-3.56-65.87-22.14-100.32-27.37-39.15-5.95-78.14,9.43-117.2,2.69-64.35-11.09-80.69-105.65-130.99-141.23-27.02-19.11-51.27-17.97-82.26-24.75-17.17-3.76-25.26-18.59-35.98-30.75-17.24-19.55-46.4-30.85-71.96-32.67-41.29-2.94-71.77,32.65-112.8,31.44-45.5-1.34-87.12-25.91-132.18-30.55-68.8-7.1-137.16-7.06-205.08,7.61-71.59,15.46-111.28,71.84-176.64,96.83-57.93,22.15-119.82-1.07-179.46,3.44-87.83,6.64-173.65,34.57-251.1,76.01-64.11,34.3-131.48,81.65-175.75,140.95C13.92,358.23-4.62,392.19,1.03,427.69c7.79,48.92,49.3,56.76,91.88,51.82,32.42-3.76,63.46-15.43,96.23-17.43,48.9-2.98,55.68,17.01,68.53,59.54,10.02,33.15,42.03,51.58,69.67,70.1,74.19,49.69,91,157.33,181.47,183.91,57.96,17.03,120.98,11.67,179.74,1.97,72.31-11.93,146.57-30.27,219.14-9.56,69.69,19.88,132.68,41.8,206.23,37.17,60.63-3.82,120.39-15.92,181-19.96,33.23-2.21,65.97-1.11,98.97,3.43,32.18,4.42,61.53,15.25,92.35,24.85,30.39,9.46,61.41,16.93,92.87,21.83,3.32,.52,16.03,1.03,3.92,.65,3.09,.1,6.27,.78,9.35,1.12,7.24,.81,14.5,1.48,21.76,2.01,14.96,1.1,29.96,1.61,44.96,1.54,15.07-.06,30.14-.71,45.17-1.87,7.87-.61,15.74-1.37,23.58-2.26,3.46-.39,7.13-1.21,10.63-1.33,1.02-.15,2.04-.3,3.06-.45,44.39-6.65,89.15-16.14,131.65-30.74,51-17.52,102.16-46.1,137.3-88.99,7.73-10.64,14.43-21.95,19.94-33.89,27.08-58.7-.6-116.54-3.97-176.42-.97-17.17,.95-35.78,6.8-52.04Zm-905.3-221.03c-.44-4.45-1.56-8.76-1.64-13.31-.1-5.79,2.89-11.61,4.51-17.04,5.98-19.99,6.31-40.97,10.81-61.25,1.71-7.71,4.89-17.98,14.84-16.45,7.22,1.11,13.38,8.5,13.69,15.7,.41,9.62-3.06,18.83-4.85,28.14-1.95,10.15-4.43,20.36-3.25,30.78,.65,5.72,3.05,11.19,3.14,16.97,.21,13.5-8.68,25.77-9.07,39.44-.23,8.27-1.14,18.26-11.93,18.26-8.8,0-16.49-4.97-17.64-13.96-.9-7.02,.55-14.06,1.39-21.01,.26-2.15,.2-4.22,0-6.27Zm41.25-45.36l-.58,4.6c.12-1.53,.31-3.07,.58-4.6Zm-37.67,90.57c-1.19-.56-2.31-1.23-3.36-2,1.24,.45,2.37,1.11,3.36,2Zm-33.15-93.45c-.42-.42-.81-.89-1.17-1.48-.21-.35-.39-.72-.55-1.1,.62,.82,1.2,1.67,1.73,2.57Zm-366.99,63.12c1.23-7.66,3.28-15.35,5.81-23.18,2.45-7.58,5.87-9.93,12.16-14.23,3.25-2.22,5.93-5.12,9.58-6.79,2.48-1.14,5.14-.97,7.65-1.9,7.85-2.92,13.55-7.15,22.32-7.1,5.04,.03,10.07,.76,15.11,.63,1.35-.04,2.73-.13,4.05,.17,1.08,.25,2.07,.75,3.06,1.25,3.76,1.91,8.8,3.44,12.03,6.09,3.73,3.08,7.11,6.4,9.83,10.43,5.37,7.93,7.79,17.4,7.95,26.91,.13,7.51-.74,15.06-2.89,22.26-4.93,16.59-16.83,31.36-32.16,39.48-10.94,5.8-23.57,10.17-36.12,8.86-11.84-1.24-24.35-6.61-31.64-16.35-9.38-12.54-9.11-31.75-6.75-46.54Zm-40.36-42.49c1.21,.44,2.29,1,3.28,1.62-.26,0-.52-.01-.77-.04-.72-.32-1.44-.64-2.16-.96-.48-.21-.96-.44-1.44-.66-.18-.15-.35-.33-.52-.5,.54,.18,1.09,.34,1.61,.53Zm-172.58,113.4c2.89-7.29,1.6-13.54,1.08-20.97,0-.07,0-.14-.01-.21-.69-10.72,3.12-21.1,5.98-31.26,1.21-4.29,2.01-9.25,2.02-13.92,.02-9.44-.34-18.16,2-27.43,1.37-5.41,7.42-3.29,11.44-3.06,6.32,.36,13.73-3.79,19.81-1.76-.76,.33-1.18,.98-1.43,1.76-.61,1.94-1.12,3.94-1.37,5.97-.63,5.16,4.52,1.79,6.4,.08,3.86-3.51,8.4-7.27,13.3-9.18,.65-.26,2.84-.52,3.24-.98,.99-1.14,2.15-2.07,3.68-2.5,2.62-.75,5.61,.28,8.08-.87,.63,8.7-1.85,16.56-1.7,25.13-.02-1.29-10.24,2.08-11.06,2.54-3.86,2.11-6.71,6.53-9.75,9.64-3.68,3.77-9.38,7.48-11.62,12.24-2.4,5.08-.63,10.99-.56,16.33,.1,7.97-2.89,15.54-4.04,23.34-.8,5.42-.36,10.9-.34,16.35,0,2.11,1.07,5.73-.39,7.53-2.54,3.12-6.8-.1-9.46-1.34-6.4-3-11.99-1.93-17.82,1.53-1.58,.94-8.69,3.31-9.7,.64-1.09-2.91,1.19-6.94,2.23-9.56Zm41.93,80.39c-1.54,.54-2.73,.24-3.93-.31l3.93,.31Zm-195.38-93.77c-2.73,15.94-17.86,28.26-32.85,35.92-5.73,2.93-12.32,5.19-18.77,3.72-6.23-1.42-11.08-6.07-17.8-6.01-3.51,.03-6.65,2.49-8.4,5.53-6.52,11.33,2.73,41.06-11.55,46.85-6.94,2.81-18.8,.84-26.37,1.57-2.21-13.56,4.26-26.24,4.26-39.58,2.76-25.35,.25-50.31,6.76-75.22,2.55-9.75,7.02-19.4,6.56-29.67-.08-1.78-.27-3.54-.56-5.28,3.18-.18,6.38-.61,9.6-1.13,5.15-.82,10.15-1.86,15.38-1.52,4.95,.32,10.03,2.85,15,2.45,5.21-.42,8.71-3.82,13.41-5.64,7.93-3.06,15.35,1.47,23.09,2.7,6.32,1,14.5-.89,18.97,4.98,1.76,2.32,2.28,5.33,2.68,8.22,2.37,16.97,3.49,35.14,.59,52.11Zm94.84,23.97c-1.96,2.18-3.47,5.12-6.28,5.95-3.89,1.16-10.06-1.04-14.26-.86-5.46,.23-10.89,1.16-16.36,.56-11.4-1.25-23.21-9.69-27.26-20.63-3.42-9.24-3.1-20.64-3.72-30.42-.67-10.56-.58-21.53,3.48-31.47,2.36-5.79,6.91-13.11,11.67-17.24,8.87-7.71,17.63-9.82,28.94-7.04,2.58,.63,5.47,1.72,8.16,1.6,3.03-.13,6.07-1.33,9.21-1.37,2.01-.02,5.41,1.33,7.2,.88,7.9-1.99,14.51,6.05,18.9,11.39,6.05,7.37,13.98,16.67,14.61,26.63,.18,2.78,.94,8.5-.28,11.08-2.63,5.57-11.78,5.21-16.85,5.06-5.3-.15-10.59-.44-15.89-.4-6.21,.05-12.48,.59-18.69,.78-7.43,.22-17.93,3.11-20.13,11.34-1.76,6.6,3.34,13.43,8.97,16.3,9.44,4.83,17.95-.2,27.28-2.17,2.61-.55,5.21-.99,7.31-2.76,1.86-1.56,3.22-3.8,5.77-4.32,4.12-.85,8.25,1.77,12.41,.73,2.34-.53,7.47-1.61,5.73,2.73-1.04,3.34-5.14,6.91-7.72,9.16-6.71,5.87-16.09,7.69-22.17,14.46Zm131.89,253.86c-.51-.04-1-.1-1.5-.15,2.2,.08,4.41,.07,6.64-.02,.08,.16,.17,.3,.28,.44-1.79-.04-3.59-.13-5.42-.28Zm102.48-111.45c.04,14.06-1.83,28.37-6.97,41.52-5.54,14.19-15.79,23.73-25.77,34.81-9.64,10.7-20.41,23.05-34.84,26.99-11.76,3.21-24.13,2.89-35.93,0-5.57-1.36-10.97-3.34-16.15-5.79-6.02-2.85-15.21-10.97-22.22-6.77-6.93,4.15-6.93,16.18-8.17,23.13l-5.67,31.64c-.78,4.35-1.6,8.8-3.82,12.62-5.12,8.8-18.39,9.73-27.44,9.08-5.59-.4-11.27-1.67-15.94-4.77-9.51-6.32-10.16-18.56-7.3-28.66,3.91-13.83,6.48-28.02,10.37-41.83,3.39-12.06,9.99-23.47,15.39-34.97,5.84-12.44,7.96-26.98,11.51-40.21,3.7-13.8,8.89-28.79,10.2-43.05,1.09-11.84-2.14-24.93,5.34-35.42,1.56-2.18,3.62-4.08,6.14-5.01,6.14-2.26,13.33,1.13,19.66,1.05,7.79-.09,15.41-1.95,23.19-2.16,2.35-.06,5.09,.27,6.35,2.25,.87,1.38,.75,3.17,.29,4.73-.84,2.87-3.94,8.21,.35,9.4,3.02,.84,8.32-2.99,10.79-4.33,9.21-4.95,19.33-9.83,29.93-11.47,11.25-1.74,20.79,3.5,31.24,6.63,5.76,1.72,12.54,3.03,16.78,7.68,5.58,6.12,7.57,17.09,9.45,24.93,2.11,8.78,3.21,18.3,3.24,27.95Zm14.33-181.1c-1.71,5.61-6.67,6.27-10.11,10.26-3.1,3.61-4.73,8.43-8.26,11.67-6.16,5.64-15,3.19-22.42,4.95-3.15,.74-6.05,2.24-9.09,3.35-5.06,1.85-10.09-.21-14.88-1.83-5.97-2.02-13.04-.98-19.22-2.43-11.94-2.8-7.94-23.91,1.49-27.4,8.55-3.16,16.44,1.18,23.7,4.98,6.13,3.2,16.31,4.04,22.19-.38,4.95-3.72,4.93-10.03,1.59-14.83-6.39-9.18-20.44-7.09-30.07-7.43-4.97-.18-10.62-.45-14.86-3.39-3.97-2.75-4.83-7.7-6.14-12.14-2.17-7.38-9.32-11.72-8.68-19.99,.69-8.98,6.25-16.6,13.12-22.06,7.38-5.87,15.14-7.41,24.44-6.85,5.49,.33,11.45-.67,17.13-.63,5.58,.04,11.23,1.67,16.16,4.24,1.68,.87,3.29,1.87,5.05,2.56,1.72,.67,3.55,1.02,5.24,1.74,2.66,1.14,6.9,2.65,6.79,6.2-.14,4.21-4.08,7.33-6.05,10.76-1.76,3.04-9.13-.65-11.25-1.49-6.72-2.65-13.71-5.58-21.02-5.93-4.51-.22-19.55,3.22-15.99,10.75,.6,1.27,1.75,2.18,2.92,2.97,8.07,5.44,18.06,7.44,27.56,9.59,5.73,1.29,12.33,1.71,16.94,5.76,4.51,3.96,7.33,11.06,9.91,16.4,2.94,6.07,5.87,13.86,3.81,20.63Zm62.37,305.84c1.22,.1,2.45,.28,3.71,.65,.12,.04,.24,.08,.35,.11-1.38-.23-2.73-.49-4.06-.77Zm122.95-98.11c-.72,5.98-2.38,11.94-3.92,17.26-6.47,22.43-13.71,53.53-37.23,64.08-13.22,5.93-25.84,13.66-40,17.28-15.71,4.02-27.88-1.34-42.57-6.14-11.58-3.79-23.26-8.2-32.58-16.32-11.74-10.22-17.6-25.18-18.11-40.54-.64-19.15,1.23-38.95,8.86-56.7,5.72-13.29,15.01-25.08,25.46-34.97,11.99-11.35,28.87-15.52,44.99-16.02,9.8-.3,19.52-2.3,29.33-2.15,9.13,.15,17.89,4.27,26.07,7.92,8.13,3.64,17.55,6.23,24.24,12.36,4.73,4.33,8.2,9.89,10.66,15.78,4.97,11.86,6.33,25.44,4.79,38.15Zm12.61-279.01c-1.05,1.48-1.98,3.06-2.76,4.72-3.63,7.75-3.24,17.02-3.75,25.38-.73,12.07-2.74,24-3.04,36.11-.09,3.47,.58,8.71-2.26,11.36-1.06,.99-2.67,1.14-4.11,.97-7.83-.95-15.75-.59-23.62-.47-.43,0-.9,0-1.26-.24-.45-.31-.6-.89-.71-1.43-5.3-25.61,2.65-51.69,5.41-77.1,.65-5.95,1.49-11.97,1.76-17.95,.17-3.69-.68-8.77,1.68-11.95,1.18-1.6,4.47,.06,5.99,.23,2.38,.26,25.2-2.96,25.68-1.31,1.12,3.87-.98,8.43,1.2,12.39,4.94,8.97,11.34-4.94,13.76-8.26,8.31-11.42,23.17-10.96,34.81-5.48,2.52,1.18,5,2.56,6.94,4.55,9.27,9.5,9.16,22.73,7.32,34.98-1.6,10.66-2.87,21.36-3.8,32.1-.82,9.38-2.34,19.5-4.32,28.64-1.25,5.07-12.29,5.49-16.16,5.79-4.14,.32-8.6,.53-12.71-.2-8.54-1.51-1.16-16.24-.8-21.46,.92-12.97,3.53-25.63,4.91-38.52,.79-7.37-1.08-17.41-6.92-22.53-8.03-7.06-18.65,3.22-23.23,9.68Zm154.84,225.54c2.88,9.6-7.25,22.52-10.79,30.72-2.38,5.52-3.97,13-11.1,13.9-4.8,.6-9.5-1.46-14.3-.81-10.95,1.48-22.57,11.68-29.16,20.01-7.37,9.33-9.01,21.41-12.82,32.36-5.35,15.39-11.76,30.34-18.68,45.09-3.73,7.95-8.36,15.81-17.94,16.91-4.06,.47-8.16,.2-12.25,.22-4.66,.03-9.31,.44-13.97,.41-2.66-.02-5.53-.26-7.58-1.95-4.83-4,2.91-16.11,4.48-20.64,3.13-9.07,5.71-18.33,7.99-27.65,3.2-13.05,5.46-26.58,10.36-39.14,8.79-22.54,12.61-46.41,19.34-69.68,.73-2.51,1.49-5.06,2.99-7.19,4.82-6.82,14.39-3.68,20.66-1.09,6.59,2.72,14.06,1.12,20.39,4.01,3.74,1.71,9.19,6.76,7.82,11.39-.74,2.52-7.85,14.85,1.18,12.12,5.57-1.68,9.82-7.51,14.17-11.05,5.68-4.63,34.32-21.91,39.04-8.41,.05,.16,.11,.31,.15,.47Zm-40.63-152.29c1.36-.23,2.73-.39,4.13-.39h.05c-.95,.12-1.93,.22-2.94,.31-.42,.04-.83,.05-1.24,.08Zm32.65-3.8c-7.51,.19-14.81-.83-22.26,.32-5.6,.86-11.98,1.57-17.45-.28-1.24-.42-2.04-1.31-2.38-2.33-1.82-.87-3.36-2.57-4.81-3.87-3.54-3.16-6.91-6.6-9.45-10.63-2.51-3.99-3.28-8.9-6.02-12.7-.49-.68-1.05-1.31-1.45-2.05-4.29-8.07,2.24-17.1,7.93-22.48,3-2.84,6.77-5.93,10.63-7.52,5.29-2.18,11.39-2.46,16.81-4.8,2.81-1.21,5.55-2.64,8.53-3.32,4.2-.96,8.9-.96,13.34-1.08,4.19-.12,8.41-.77,12.57-1.24,5.55-.63,9.49-4.22,8.19-10.13-.81-3.68-3.16-7.52-5.5-10.45-5.83-7.32-17.64-6.18-24.9-1.18-3.07,2.12-2.99,6.66-6.65,8.32-5.1,2.32-10.8,1.24-16.19,1.58-2.99,.19-9.13,2.07-11.28-.96-4.03-5.66,8.09-18.51,11.83-21.75,6.39-5.53,16.9-9.22,25.34-9.26,3.89-.02,7.53,1.34,11.41,1.32,4.46-.02,8.82-1.17,13.22-1.76,5.17-.7,10.54-.62,15.48,1.05,8.95,3.03,13.74,11.45,16.17,20.13,1.56,5.58,.67,10.74,1.24,16.31,.52,5.02,1.63,10,1.24,15.07-.58,7.36-2.57,14.63-3.82,21.9-1.71,9.99-2.91,20.06-4.82,30.02-.35,1.83-2.28,2.73-4.63,3.17-3.04,2.93-7.25,3.93-11.33,5.24-6.92,2.23-13.74,3.2-20.98,3.38Zm142.92,170.22c-.57,4.65-3.6,9.88-5.04,13.16-2.03,4.61-4.47,9.17-4.9,14.28-.35,4.19-6.57,1.72-9.35,1.24-4.41-.76-8.83-1.74-13.34-1.32-13.08,1.22-12.21,13.99-13.01,24.03-1.17,14.62-7.16,27.82-12.62,41.24-3.12,7.67-9.38,18.73-5.92,27.13,3.01,7.31,14.82,3.48,20.07,8.3,2.03,1.87,2.99,4.69,3.14,7.45,.49,8.65-5.02,24.08-14.87,25.83-13.78,2.45-26.92-4.79-40.45-5.41-4.45-.21-9.07-.25-13.08-2.18-19.95-9.59-9.04-38.99-6.1-54.52,1.84-9.74,4.89-18.52,7.61-27.99,1.47-5.12,.43-10.63,2.42-15.66,2.4-6.07,6.17-11.75,6.34-18.48,.17-6.64-1.55-14.8-8.87-16.86-1.51-.43-3.14-.49-4.56-1.17-4.28-2.08-3.16-7.1-1.39-10.46,2.92-5.54,5.27-10.63,7.63-16.37,2.14-5.21,5.99-6.8,11.45-5.38,13.34,3.48,21.59-8.61,22.71-20.28,.58-5.99-1.26-13.03,1.49-18.62,2.68-5.44,9.31-5.49,14.58-5.76,3.97-.21,8.45-1.49,12.61-1.1,3.56,.33,6.79,2,10.27,2.62,5.94,1.06,20.88-1.74,19.48,8.13-.86,6.05-6.2,10.72-9.17,15.76-3.41,5.78-1.76,12.67,2.64,17.41,2.22,2.4,5.11,4.27,8.24,5.22s6.88,.38,9.62,2.68c2.17,1.81,2.68,4.34,2.34,7.07Zm121.82-27.88c-4.94,2.23-11.37,1.75-15.77,5.17-6.04,4.68-3.39,13.81-.13,19.35,2.53,4.31,8.31,2.18,11.73,5,8.28,6.82,5.33,23.44-2.45,29.38-2.8,2.14-6.15,3.45-9.57,4.32-6.7,1.71-13.95,4.42-18.75,9.86-5.05,5.73-6.75,14.12-9.12,21.21-4.19,12.52-8.38,25.17-11.31,38.05-2.54,11.22-3.65,22.76-7.17,33.76-3.01,9.42-6.49,19.67-15.8,24.62-5.26,2.8-11.37,1.4-17,2.59-2.45,.52-4.86,1.45-7.37,1.37-6.28-.21-15.61-6.74-17.24-12.95-1.54-5.86,2.17-11.65,4.15-16.95,3.45-9.23,4.37-18.99,5.48-28.7,1.67-14.55,7.72-28.53,11.65-42.72,2.12-7.64,4.34-15.98,2.39-23.89-1.32-5.38-5.72-8.84-8.81-13.16-3.95-5.55-3.29-11.77-1.33-17.97,1.15-3.63,2.55-7.31,5.19-10.05,3.66-3.8,8.55-2.55,13.23-2.82,5.26-.3,8.55-2.41,11.33-6.93,3.88-6.32,7.91-12.61,10.83-19.45,2.21-5.18,2.04-11.28,3.9-16.67,1.92-5.54,7.01-7.27,11.92-9.37,6.16-2.65,12.74-5.68,19.03-8.52,5.76-2.6,11.48-6.26,17.92-6.81,6.19-.53,11.45,3.36,17.78,2.12,3.5-.68,7.19-2.38,10.45-.94,4.47,1.98,8.17,10.64,5.98,15.13-2.35,4.8-4.2,10.42-7.43,14.92-3.33,4.63-8.36,8.64-13.72,11.05Zm177.59,107.26c-1.04,14.06-1.55,28.5-6.08,41.97-3.32,9.87-9.93,17.99-16.48,25.89-5.22,6.3-9.85,13.33-16.39,18.39-15.44,11.95-34.69,15.96-53.79,16.54-31.69,.96-69.56-18.38-79.6-50.17-3.2-10.12-3.22-21-1.87-31.52,2.13-16.61,5.99-33.6,15.22-47.83,4.71-7.27,10.76-13.58,17.87-18.53,7.87-5.48,14.72-13.11,23.12-17.72,9.2-5.05,19.89-4.94,30.05-5.76,36.72-2.98,82.2,8.7,87.75,51.31,.76,5.83,.64,11.63,.22,17.42Zm116.93-51.94c-4.47,17.47-8.01,35.17-12.91,52.53-5.16,18.31-11.67,36.23-17.37,54.39-2.9,9.24-4.87,18.78-8.44,27.8-5.8,14.64-16.23,27.99-33.56,26.51-7.68-.66-14.8-4.7-19.03-11.19-5.37-8.25-4.01-17.97-1.5-27.04,4.17-15.05,7.91-30.33,13.52-44.93,5.3-13.79,11.28-27.32,15.87-41.37,5.69-17.43,10.76-35.06,16.14-52.59,4.14-13.48,4.81-29.73,12.95-41.6,8.6-12.54,25.52-14.34,37.38-4.96,8.11,6.42,10.03,16.9,7.26,26.52-3.29,11.42-6.91,22.73-9.89,34.24-.14,.56-.29,1.11-.43,1.67Zm93.9,30.19c-.72,10.44-3.81,20.49-6.89,30.43-2.91,9.4-5.23,18.97-8.17,28.37-2.62,8.38-6.02,16.49-8.9,24.78-1.94,5.59-2.6,11.52-4.79,17-1.83,4.59-4.38,8.84-6.41,13.34-1.99,4.4-2.97,9.16-5.21,13.46-5.74,10.98-19.91,14.94-31.51,13.7-16.42-1.76-16.5-17.59-13.73-30.45,4.57-21.21,10.11-42.19,16.26-62.99,3.12-10.55,6.4-21.05,9.8-31.51,3.76-11.56,6.48-26.1,15.77-34.77,3.17-2.95,7.53-5.06,11.93-4.97,5.82,.11,12.06,3.65,17.71,5.17,5.23,1.41,10.53,3.52,12.82,8.84,1.29,3.01,1.54,6.31,1.31,9.62Zm13.87-54.61c-.97,1.41-2.26,2.61-3.67,3.61-4.59,3.27-11.03,4.66-16.44,2.71-3.9-1.4-6.52-4.66-10.03-6.69-3.91-2.26-8.27-1.72-12.58-1.45-6,.38-11.19-2.75-12.05-9.04-.52-3.84,1.19-7.73,3.77-10.51,2.55-2.75,5.8-5.08,7.75-8.34,3.16-5.3,1.67-13.22,7.61-16.71,3.18-1.87,7.01-1.54,10.06,.44,4.37,2.83,8.41,6.04,13.31,7.94,5.19,2.01,11.21,3.4,15.56,7.08,4.26,3.6,2.32,9.46,.83,13.93-.87,2.6-2.09,5.18-2.56,7.9-.44,2.52,.34,5.49-.79,7.82-.22,.46-.48,.91-.77,1.33Zm183.66,121.9c-1.4,7.95-3.63,15.77-6.43,23.33-3.41,9.21-7.15,18.83-14.34,25.8-14.48,14.03-33.62,27.07-51.89,35.57-19.26,8.97-40.46,11.14-60.04,1.8-19.35-9.23-37.52-23.92-42.28-45.84-4.65-21.44,.56-45.15,7.75-65.5,5.41-15.32,14.21-27.97,26.79-38.25,7.57-6.19,15.89-12.03,24.85-16,7.54-3.34,14.78-3.43,22.83-3.17,6.45,.21,12.9,0,19.32-.63,11.28-1.11,21.56,4.08,31.02,9.56,13.34,7.74,27.32,12.76,35.33,27.14,7.68,13.78,9.81,30.76,7.09,46.19Z"/>
    <path d="M1847.48,556.47c-.12-.88-.26-1.76-.44-2.64-1.45-7.29-5.35-15.43-11.87-19.48-12.42-7.72-26.66-.62-36.19,8.33-8.15,7.66-13.01,17.46-15.28,28.32-1.7,8.16-2.09,16.41-3.99,24.53-1.7,7.25-4.01,14.78-3.28,22.31,1.1,11.53,5.51,19.91,12.77,28.78,3.92,4.79,7.35,12.72,14.44,13.35,6.75,.6,11.3-5.85,14.9-10.57,4.25-5.58,9.53-10.34,13.45-16.18,4.66-6.93,5.79-14.44,6.46-22.61,1.5-18.2,11.51-35.67,9.03-54.16Z"/>
    <path d="M205.55,508.67c-.33-.43-.68-.85-1.03-1.26-12.4-14.29-32.88-14.99-44.73,.29-5.49,7.08-8.41,16.31-7.13,25.18,1.55,10.71,9.46,20.24,19.68,23.79s22.3,1,30.26-6.34c11.74-10.83,12.63-29.25,2.95-41.67Z"/>
    <path d="M325.89,659.77c-1.31-3.14-2.98-6.17-5.03-9.01-11.37-15.74-31.54-21.67-50.26-20.05-12.58,1.09-25.14,7.56-31.29,18.59-5.21,9.34-5.33,20.86-2.53,31.18,3.87,14.24,13.34,27.07,26.29,34.16,12.95,7.09,29.3,8.05,42.62,1.7,21.4-10.2,28.83-35.86,20.2-56.57Z"/>
    <path d="M191.29,642.54c-.05-2.74-.3-5.5-.78-8.24-3.37-19.31-17.93-34.53-34.83-43.41-19.27-10.12-52.11-20.17-73.18-10.64-10.98,4.97-20.41,13.48-26.17,24.09-11.1,20.45-6.11,48.3,6.49,66.91,18.04,26.65,58.85,33.4,87.44,22.83,3.33-1.23,6.58-2.69,9.91-3.93,19.92-7.38,31.45-27.15,31.11-47.64Z"/>
    <path d="M1669.11,134.77c-.75-25.4-23.13-44.83-46.88-49.46-19.5-3.8-39.45,4.95-50.73,21.13-12.26,17.59-11.78,41.34-2.58,60.15,10.9,22.27,33.75,34.2,58.47,29.38,26.89-5.25,42.51-34.17,41.71-61.2Z"/>
    <path d="M1776.67,130.9c-11-9.97-28.66-15.29-43.34-11.21-14.72,4.09-22.59,19.64-20.92,34.2,1.97,17.23,17.59,28.26,34.54,27.53,22.55-.97,52.97-29.45,29.73-50.52Z"/>
    <path d="M1564.99,37.17c-1.29-15.6-14.43-31.95-29.05-36.27-9.57-2.83-19.55,1.23-25.86,8.67-5.63,6.64-9.2,16.29-8.9,25.02,.55,16,11.13,30.39,27.43,32.86,16.46,2.49,35.59-8.65,36.46-26.41,.06-1.28,.04-2.58-.07-3.88Z"/>
</svg>