<?xml version="1.0" encoding="UTF-8"?><svg id="Layer_1" xmlns="http://www.w3.org/2000/svg" viewBox="0 0 400 1200"><path d="M64.9,859.37c-7.76-10.46-12.03-24.51-12.03-39.59V0h-20V819.78c0,19.34,5.67,37.63,15.97,51.51,10.96,14.77,25.81,22.91,41.82,22.91H400v-20H90.66c-9.52,0-18.67-5.26-25.76-14.82Z"/><path d="M120.63,641.76c-7.76-10.46-12.03-24.51-12.03-39.59V0h-20V602.17c0,19.34,5.67,37.63,15.97,51.51,10.96,14.77,25.81,22.91,41.82,22.91h253.61v-20H146.39c-9.52,0-18.67-5.26-25.76-14.83Z"/><path d="M176.37,462.51c-7.76-10.46-12.03-24.51-12.03-39.59V0h-20V422.92c0,19.34,5.67,37.63,15.96,51.51,10.96,14.77,25.81,22.91,41.82,22.91h197.87v-20H202.13c-9.52,0-18.67-5.26-25.76-14.82Z"/><path d="M213.92,713.34V0h-10V713.34c0,38.28,23.68,69.41,52.79,69.41h143.29v-10h-143.29c-23.59,0-42.79-26.65-42.79-59.41Z"/><path d="M252.24,308.61V0h-10V308.61c0,38.28,23.68,69.41,52.79,69.41h104.97v-10h-104.97c-23.59,0-42.79-26.65-42.79-59.41Z"/><path d="M327.33,555.83c-7.76-10.46-12.03-24.51-12.03-39.59V0h-20V516.24c0,19.34,5.67,37.63,15.96,51.51,10.96,14.77,25.81,22.91,41.82,22.91h46.91v-20h-46.91c-9.52,0-18.67-5.26-25.76-14.82Z"/></svg>