<?xml version="1.0" encoding="UTF-8"?><svg id="Layer_1" xmlns="http://www.w3.org/2000/svg" viewBox="0 0 2051.09 840.69"><defs><style>.cls-1{fill:#ff9ff4;}.cls-2{letter-spacing:0em;}.cls-3{fill:#fff;font-family:AcuminConcept-BlackItalic, 'Acumin Variable Concept';font-size:180.38px;font-variation-settings:'wght' 800, 'wdth' 100, 'slnt' 12;}.cls-4{letter-spacing:0em;}.cls-5{letter-spacing:0em;}.cls-6{letter-spacing:.02em;}.cls-7{letter-spacing:0em;}</style></defs><path class="cls-1" d="M639.85,5.75c-8.36,0-8.38,13,0,13s8.38-13,0-13Z"/><path class="cls-1" d="M204.52,507.42c-12.4-14.29-32.88-14.99-44.73,.29-5.49,7.08-8.41,16.31-7.13,25.18,1.55,10.71,9.46,20.24,19.68,23.79,10.22,3.55,22.3,1,30.26-6.34,11.74-10.83,12.63-29.25,2.95-41.67-.33-.43-.68-.85-1.03-1.26Z"/><path class="cls-1" d="M320.86,650.76c-11.37-15.74-31.54-21.67-50.26-20.05-12.58,1.09-25.14,7.56-31.29,18.59-5.21,9.34-5.33,20.86-2.53,31.18,3.87,14.24,13.34,27.07,26.29,34.16,12.95,7.09,29.29,8.05,42.62,1.7,21.4-10.2,28.83-35.86,20.2-56.57-1.31-3.14-2.98-6.17-5.03-9.01Z"/><path class="cls-1" d="M155.68,590.9c-19.27-10.12-52.11-20.17-73.18-10.64-10.98,4.97-20.41,13.48-26.17,24.09-11.1,20.45-6.11,48.3,6.49,66.91,18.04,26.65,58.85,33.4,87.44,22.83,3.33-1.23,6.58-2.69,9.91-3.93,19.92-7.38,31.45-27.15,31.11-47.64-.05-2.74-.3-5.5-.78-8.24-3.37-19.31-17.93-34.53-34.83-43.41Z"/><path class="cls-1" d="M1568.93,166.59c10.9,22.27,33.75,34.2,58.47,29.38,26.89-5.25,42.51-34.17,41.71-61.2-.75-25.4-23.13-44.83-46.88-49.46-19.5-3.8-39.45,4.95-50.73,21.13-12.26,17.59-11.78,41.34-2.58,60.15Z"/><path class="cls-1" d="M1746.95,181.42c22.55-.97,52.97-29.45,29.73-50.52-11-9.97-28.66-15.29-43.34-11.21-14.72,4.09-22.59,19.64-20.92,34.2,1.97,17.23,17.59,28.26,34.54,27.53Z"/><path class="cls-1" d="M1528.61,67.46c16.46,2.49,35.59-8.65,36.46-26.41,.06-1.28,.04-2.58-.07-3.88-1.29-15.6-14.43-31.95-29.05-36.27-9.57-2.83-19.55,1.23-25.86,8.67-5.63,6.64-9.2,16.29-8.9,25.02,.55,16,11.13,30.39,27.43,32.86Z"/><path class="cls-1" d="M254.33,85.03c-4.24-5.28-10.96-9.03-17.87-8.51-7.42,.56-12.9,6.66-19.88,8.74-1.1,.33-2.33,.57-3.35,.05-1.62-.82-1.85-3.16-1.07-4.8s2.25-2.83,3.45-4.2c11.28-12.89-3.71-27.47-16.95-27.83-12.73-.34-28.43,7-33.13,19.52-2.02,5.36-3.02,12.91-8.67,15.85-10.26,5.33-22.33-7.59-31.93-9.39-11.83-2.22-27.15-2.01-37.58,4.74-8.52,5.52-14.49,14.93-15.06,25.15-1.04,18.52,15.77,33.47,33.64,33.49,7.57,0,21.03-6.13,26.8,1,1.31,1.62,1.87,3.73,2.18,5.79,2.03,13.59,1.51,25.93,15.09,33.74,27.28,15.71,46.11-12.18,48.73-36.02,.18-1.62,.37-3.28,1.12-4.72,3.5-6.69,17.47-2.45,23.43-3.7,8.97-1.88,16.47-2.19,24.7-6.72,14.27-7.86,16.06-30.13,6.36-42.2Zm-155.61,26.97s-.01-.08-.02-.12c.38,.68,.8,1.34,1.26,1.98,.47,1.38,1.1,2.7,1.92,3.92-1.55-1-2.7-2.81-3.17-5.78Zm103.97-46.95c-.07-.26-.14-.51-.23-.76,.02-.07,.03-.14,.04-.21,.44,.39,.83,.8,1.19,1.23-.33-.12-.67-.2-1.01-.26Z"/><path class="cls-1" d="M309.02,45.62c-12.29,.34-24.47,7.55-29.35,18.98-2.48,5.82-3.09,12.76-.14,18.36,4.08,7.75,14.03,10.94,22.68,9.53,11.01-1.79,23.8-8.65,28.96-18.97,6.49-12.98-3.97-25.94-17.11-27.65-1.67-.22-3.35-.3-5.04-.25Z"/><path class="cls-1" d="M393.92,61.16c-1.77-4.44-6.62-8.23-11.67-9.53-8.53-2.2-23.55-1.67-28.82,6.82-2.37,3.82-1.76,9.05,.86,12.7s6.95,5.84,11.38,6.62,9,.26,13.41-.63c4.05-.82,8.17-2.02,11.36-4.64,4.32-3.55,4.95-7.67,3.48-11.33Z"/><path class="cls-1" d="M1979.66,117.75c.01-1.23,.09-2.45,.22-3.59,.17-1.55,1.06-2.88,2.37-3.4-.9-.91-1.79-1.82-2.66-2.76-.01,3.45-.18,6.91-.45,10.37,.16-.22,.34-.43,.52-.63Z"/><path class="cls-1" d="M1841.86,147.97c1.03-.39,2.08-.74,3.14-1.01-.9-.63-1.79-1.28-2.67-1.95-.04,.43-.09,.85-.15,1.28-.08,.57-.19,1.13-.32,1.68Z"/><path class="cls-1" d="M2011.76,153.99c-.98-.96-2.11-1.82-3.44-2.53-6.3-3.39-13.05-5.76-19.81-8.06-5.01-1.7-13.49-1.99-17.04-6.41-5.53-6.9-3.17-16.74-1.88-24.66,1.58-9.68,1.84-17.63-2.85-26.63-12.59-24.18-38.6-38.35-65.22-40.54-18.25-1.5-38.37,2.48-52.76,14.39-14.05,11.62-19.77,31.19-17.34,48.88,1.23,8.95,4.57,17.7,10.23,24.8,3.52,4.41,10.47,6.55,13.37,11.72,4.47,7.96-3.8,8.39-9.79,9.73-6.26,1.4-11.61,6.17-14.84,11.55-6.69,11.13-5.92,26.64,3.59,35.94,7.05,6.88,17,10.24,26.84,10.75,14.03,.73,28.6-3.18,40.98-9.62,4.18-2.18,6.37-7.42,10.54-9.65,5.28-2.82,10.25,12.11,11.65,15.02,19.12,40.06,86.25,28.24,95.85-13.25,1.75-7.55,1.09-15.4-.75-22.87-1.58-6.4-2.55-13.8-7.35-18.55Zm-165.74-62.08c.1-.81,.21-1.63,.34-2.44,.07,.04,.14,.07,.2,.11-.19,.77-.38,1.55-.54,2.33Zm12.51-24.82c-1.53,1.08-2.98,2.26-4.36,3.54-.61,.32-1.21,.66-1.8,1.03,1.8-2.4,4.19-4.11,6.81-5.5-.22,.3-.44,.62-.65,.94Zm73.2,52.66c-.49,.7-1.04,1.37-1.6,2.02,.1-.33,.2-.66,.3-.99,.63-.96,1.21-1.87,1.73-2.7-.14,.54-.28,1.1-.43,1.67Z"/><g><path class="cls-1" d="M1383.93,526.64c-23.86-2.18-38.56,43.04-40.5,64.21-1.53,16.73,3.9,25.98,16.05,27.09,24.58,2.25,38.95-45.2,40.87-66.29,1.43-15.62-3.91-23.87-16.42-25.02Z"/><path class="cls-1" d="M825.93,475.6c-23.86-2.18-38.56,43.04-40.5,64.21-1.53,16.73,3.9,25.98,16.04,27.09,24.58,2.25,38.95-45.2,40.88-66.29,1.43-15.62-3.91-23.87-16.42-25.02Z"/><path class="cls-1" d="M635.14,460.58c-17.61-1.61-30.29,14.88-39.3,44.09-6.89,22.69-6.95,40.79,13.29,42.64,25.15,2.3,41.17-37.85,43.16-59.63,1.71-18.66-5.25-26.01-17.16-27.1Z"/><path class="cls-1" d="M2033.28,452.71c13.9-38.67,29.34-82.2,5.09-120.26-2.26-3.54-4.65-7.09-7.14-10.64-5.66-4.51-11.33-9.01-17.02-13.48-15.74-11.89-32.33-23.48-49.97-32.35-12.33-4.18-25.08-6.96-37.95-9.03-38.41-6.17-80.44-3.7-120.21-7.77-34.79-3.56-65.87-22.14-100.32-27.37-39.15-5.95-78.14,9.43-117.2,2.69-64.35-11.09-80.69-105.65-130.99-141.23-27.02-19.11-51.27-17.97-82.26-24.75-17.17-3.76-25.26-18.59-35.98-30.75-17.24-19.55-46.4-30.85-71.96-32.67-41.29-2.94-71.77,32.65-112.8,31.44-45.5-1.34-87.12-25.91-132.18-30.55-68.8-7.1-137.16-7.06-205.08,7.61-71.59,15.46-111.28,71.84-176.64,96.83-57.93,22.15-119.82-1.07-179.46,3.44-87.83,6.64-173.65,34.57-251.1,76.01-64.11,34.3-131.48,81.65-175.75,140.95C13.92,358.23-4.62,392.19,1.03,427.69c7.79,48.92,49.3,56.76,91.88,51.82,32.42-3.76,63.46-15.43,96.23-17.43,48.9-2.98,55.68,17.01,68.53,59.54,10.02,33.15,42.03,51.58,69.67,70.1,74.19,49.69,91,157.33,181.47,183.91,57.96,17.03,120.98,11.67,179.74,1.97,72.31-11.93,146.57-30.27,219.14-9.56,69.69,19.88,132.68,41.8,206.23,37.17,60.63-3.82,120.39-15.92,181-19.96,33.23-2.21,65.97-1.11,98.97,3.43,32.18,4.42,61.53,15.25,92.35,24.85,30.39,9.46,61.41,16.93,92.87,21.83,3.32,.52,16.03,1.03,3.92,.65,3.09,.1,6.27,.78,9.35,1.12,7.24,.81,14.5,1.48,21.76,2.01,14.96,1.1,29.96,1.61,44.96,1.54,15.07-.06,30.14-.71,45.17-1.87,7.87-.61,15.74-1.37,23.58-2.26,3.46-.39,7.13-1.21,10.63-1.33,1.02-.15,2.04-.3,3.06-.45,44.39-6.65,89.15-16.14,131.65-30.74,51-17.52,102.16-46.1,137.3-88.99,7.73-10.64,14.43-21.95,19.94-33.89,27.08-58.7-.6-116.54-3.97-176.42-.97-17.17,.95-35.78,6.8-52.04Zm-411.85-3.51l57.98,5.3-12.85,41.63-57.98-5.3,12.85-41.63Zm-909.36,40.12c-4.81,52.61-40.66,104.92-99.2,99.57-17.87-1.63-30.21-9.64-35.27-18.71l-21.84,70.39-57.56-5.26,53.53-173.06c6.69-21.44,10.83-35.78,13.5-46.47l56.57,5.17c-.34,3.77-2.54,11.99-4.13,18,8.99-8.97,24.11-19.76,49.32-17.46,30.28,2.77,48.89,26.25,45.08,67.83Zm188.47,25.53c-3.92,42.89-33.72,97.27-107.31,90.53-52.92-4.84-69.99-38.3-66.55-75.91,4.19-45.84,38.42-99.01,105.62-92.86,46.72,4.27,72.4,32.79,68.24,78.24Zm79.27,36.94l-20.11,65.23-57.98-5.3,34.23-110.41c6.3-20.14,10.93-36.27,14.71-50.27l56.09,5.13c-.71,4.36-3.11,15.6-6.68,27.17,12.17-17.35,27.43-28.76,57.23-25.81l-16.74,53.06c-33.84-4.64-50.5,8.09-60.76,41.2Zm150.93,79.63c-11.06,2.25-25.42,1.16-35.34,.25-39.79-3.64-43.88-25.12-34.56-55.47l22.63-73.31-22.34-2.04,12.18-38.6,22.67,2.07,13.37-41.59,56.79,5.19-12.84,41.64,27.6,2.52-12.18,38.6-27.6-2.52-21.68,70.03c-2.98,9.53-2.1,15.01,10.07,16.12,4.12,.38,8.11,.54,12.4,.41l-11.17,36.69Zm128.97-112.41l-37.5,122.02-57.87-5.29,37.5-122.02-21.09-1.93,12.18-38.6,21.09,1.93,3.32-10.33c11.37-35.61,32.33-52.64,70.16-49.18,9.8,.9,20.85,2.96,25.55,4.98l-11.89,37.88c-2.15-.62-5.74-1.15-8.09-1.37-10.23-.94-15.12,3.83-17.78,12.51l-3.38,10.8,24.38,2.23-12.18,38.6-24.38-2.23Zm198.84,46.88c-3.92,42.89-33.72,97.27-107.31,90.54-52.92-4.84-69.99-38.3-66.55-75.91,4.19-45.84,38.42-99.01,105.62-92.86,46.72,4.27,72.4,32.79,68.24,78.24Zm1.17,96.87l68.6-221.97,57.98,5.3-68.6,221.97-57.98-5.3Zm151.09,13.82l-57.98-5.3,49.68-160.62,57.98,5.3-49.68,160.62Zm223.91-76.28c-3.92,42.89-33.72,97.27-107.31,90.54-52.92-4.84-69.99-38.3-66.55-75.91,4.19-45.84,38.42-99.01,105.62-92.86,46.72,4.27,72.4,32.79,68.24,78.24Z"/><path class="cls-1" d="M1760.1,561.05c-23.86-2.18-38.56,43.04-40.5,64.21-1.53,16.73,3.9,25.98,16.05,27.09,24.57,2.25,38.95-45.2,40.87-66.29,1.43-15.62-3.91-23.87-16.42-25.02Z"/></g><text class="cls-3" transform="translate(329.09 361.65) rotate(-4.68)"><tspan x="0" y="0">p</tspan><tspan class="cls-5" x="112.92" y="0">e</tspan><tspan class="cls-7" x="219.88" y="0">r</tspan><tspan class="cls-2" x="297.99" y="0">s</tspan><tspan class="cls-4" x="393.05" y="0">o</tspan><tspan class="cls-2" x="502.54" y="0">n</tspan><tspan x="610.77" y="0">a</tspan><tspan class="cls-6" x="717.56" y="0">l</tspan></text></svg>