<?xml version="1.0" encoding="UTF-8"?><svg id="Layer_1" xmlns="http://www.w3.org/2000/svg" viewBox="0 0 924.8 435.81"><defs><style>.cls-1{fill:#fbb141;}.cls-2{fill:#fff;font-family:AcuminConcept-BlackItalic, 'Acumin Variable Concept';font-size:100px;font-variation-settings:'wght' 800, 'wdth' 100, 'slnt' 12;}.cls-3{letter-spacing:-.01em;}.cls-4{letter-spacing:.02em;}.cls-5{letter-spacing:0em;}.cls-6{letter-spacing:.01em;}</style></defs><g><path class="cls-1" d="M476.56,230.63c-8.41,0-13.44,5.81-16.03,15.88h25.93c.42-1.84,.48-3.28,.48-4.48,0-6.16-2.45-11.4-10.38-11.4Z"/><path class="cls-1" d="M921.55,293.37c-6.61-20.72-23.06-34.94-43.1-42.29-11.94-4.38-24.62-5.47-37.21-6.34-19.75-1.35-54.68-13.76-60.93,15.9-.06,.37-.35,2.32-.35,2.57h-32.52c-.31-1.06,.33-4.7,.58-6.38,2.22-11.48,7.96-18.85,22.8-29.7,6.29-4.63,13.26-9.57,13.44-16.16,.19-4.69-1.66-8.86-7.92-8.86-7.24,0-10.76,5.03-13.18,14.28h-30.53c3.89-20.73,16.16-36.32,46.14-36.32,10.43,0,21.93,1.9,29.94,9.13,2.94,2.65,4.83,6.06,6.13,9.79,6.12,17.55,41.97-2.19,52.94-5.57,14.98-4.62,29.72-11.07,40.36-23,4.76-5.35,8.41-12.16,8.12-19.31-1.93-47.61-96.2-30.33-123.19-32.91-18.19-1.74-23.17-18.41-28.2-33.21-13.16-38.77-54-47.58-90.55-44.36-18.81,1.66-37.41,6.01-55.29,11.99-21.84,7.29-47.14,24.49-70.38,14-21.87-9.87-33.13-31.86-49.77-47.83C481.05,1.71,455.86-3.84,432.09,2.61c-15.56,4.23-28.07,14.68-40.23,24.77-26.06,21.62-61.1,33.38-94.93,28.4-28.17-4.14-58.33-4.95-87.15-.93-30.2,4.21-56.95,16.87-86.19,24.2-20.01,5.01-44,.39-58.76,18.41-18.08,22.07-.8,51.42,25.31,52.64,9.49,.44,19.51-.32,27.93,4.06,2.36,1.23,4.56,2.88,5.99,5.12,2.56,4,2.24,9.4,.01,13.6-2.23,4.2-6.11,7.31-10.31,9.55-21.13,11.28-46.22,11.19-67.34,22.44-21.16,11.27-41.66,28.9-45.82,53.75-2.27,13.57,1.77,26.93,13.28,35.12,12.7,9.03,28.79,9.9,43.83,9.68,11.72-.17,26.34-4.13,37.61,.31,16.42,6.48-2.52,21.14-8.91,27.66-11.83,12.06-16.97,36.35-6.49,50.7,10,13.69,29.13,12.86,44.13,10.63,12.18-1.81,24.1-5.06,36.31-6.93,21.48-3.28,33.73,17.62,47.89,29.55,37.52,31.63,85.96,21.28,127.6,4.51,38.78-15.61,78.75-33.6,120.6-41.63,63.34-12.15,127.26,3.58,189.64,13.97,51.41,8.57,105.4,11.34,157.91,5.78,34.6-3.66,74.23-12.24,100.56-36.64,19.3-17.89,24.4-44.75,16.99-67.96Zm-510.58-48.75l-12.64,59.68h-32.07l12.18-57.55c1.41-6.87,.87-12.74-7.16-12.74s-11.49,5.67-13.83,16.89l-11.3,53.4h-32.37l12.36-58.5c1.29-6.07,.18-11.68-7.16-11.68-7.75,0-11.6,4.96-14.23,17.71l-11.08,52.47h-32.43l13.95-65.88c2.77-13.48,4.16-20.29,5.33-27.07h32.13c-.29,2.25-.82,6.31-1.47,9.68,6.34-7.03,13.95-11.7,26.18-11.7,13.68,0,19.09,6.23,20.99,13.43,6.62-6.99,15.36-13.43,30.09-13.43,17.34,0,27.86,10.17,22.54,35.3Zm104.53,20.03h-58.71c-.35,1.6-.59,3.01-.66,4.66-.31,8.14,2.28,14.92,10.68,14.92,7.24,0,10.89-4.17,13.23-9.6h33.1c-5.46,16.22-19.96,31.69-48.7,31.69s-41.08-17.54-41.08-39.12c0-23.75,13.5-57.88,53.41-57.88,29.41,0,41.28,16.05,41.28,37.49,0,6.87-1.13,12.81-2.54,17.84Zm61.94,39.65h-33.27l6.76-32.12h33.27l-6.76,32.12Zm22.26-60.29c-8.95,6.06-12.09,10.55-13.38,16.65-.06,.37-.35,2.32-.35,2.57h-32.52c-.31-1.06,.33-4.7,.58-6.38,2.22-11.48,7.96-18.85,22.8-29.7,6.29-4.63,13.26-9.57,13.44-16.16,.19-4.69-1.66-8.86-7.92-8.86-7.24,0-10.76,5.03-13.18,14.28h-30.53c3.89-20.73,16.16-36.32,46.14-36.32s38.59,14.79,38.59,29.37-8.41,24.28-23.67,34.54Zm74.73,60.29h-33.27l6.76-32.12h33.27l-6.76,32.12Zm22.26-60.29c-8.95,6.06-12.09,10.55-13.38,16.65-.06,.37-.35,2.32-.35,2.57h-32.52c-.31-1.06,.33-4.7,.58-6.38,2.22-11.48,7.96-18.85,22.8-29.7,6.29-4.63,13.26-9.57,13.44-16.16,.19-4.69-1.66-8.86-7.92-8.86-7.24,0-10.76,5.03-13.18,14.28h-30.53c3.89-20.73,16.16-36.32,46.14-36.32s38.59,14.79,38.59,29.37-8.41,24.28-23.67,34.54Zm74.73,60.29h-33.27l6.76-32.12h33.27l-6.76,32.12Z"/></g><text class="cls-2" transform="translate(110.75 174.89)"><tspan x="0" y="0">ab</tspan><tspan class="cls-5" x="121.5" y="0">o</tspan><tspan class="cls-6" x="182.1" y="0">u</tspan><tspan class="cls-4" x="243.7" y="0">t</tspan><tspan x="283.6" y="0">..</tspan><tspan class="cls-3" x="335.99" y="0">.</tspan></text></svg>