<svg id="svg-about" xmlns="http://www.w3.org/2000/svg" viewBox="0 0 924.8 435.81">
    <defs>
        <style>
        
            .svg-about__text {
                font-family: "acumin-variable", sans-serif;
                font-variation-settings: 'wght' 800, 'wdth' 100, 'slnt' 12;
            }

            .svg-about__text-main {
                fill: var(--clr-lightest);
            }

            .svg-about__text__me {
                font-size: 11rem;
            }

            .svg-about__text__about {
                font-size: 6.25rem;
            }

            .svg-about__text-drops {
                fill: #283b5b;
            }

            .svg-about__shape {
                fill: #6e9bff;
            }

        </style>
    </defs>
    <path class="svg-about__shape" d="M921.55,293.37c-11.7-36.66-49.04-48.19-83.95-49.83-9.6-.45-20.12,1.21-29.2-2.83-17.49-7.79-6.17-21.62,5.28-28.72,28.89-17.91,70.8-15.02,94.45-41.55,4.76-5.35,8.41-12.16,8.12-19.31-1.93-47.61-96.2-30.33-123.19-32.91-18.19-1.74-23.17-18.41-28.2-33.21-13.16-38.77-54-47.58-90.55-44.36-18.81,1.66-37.41,6.01-55.29,11.99-21.84,7.29-47.14,24.49-70.38,14-21.87-9.87-33.13-31.86-49.77-47.83C481.05,1.71,455.86-3.84,432.09,2.61c-15.56,4.23-28.07,14.68-40.23,24.77-26.06,21.62-61.1,33.38-94.93,28.4-28.17-4.14-58.33-4.95-87.15-.93-30.2,4.21-56.95,16.87-86.19,24.2-20.01,5.01-44,.39-58.76,18.41-18.08,22.07-.8,51.42,25.31,52.64,9.49,.44,19.51-.32,27.93,4.06,2.36,1.23,4.56,2.88,5.99,5.12,2.56,4,2.24,9.4,.01,13.6s-6.11,7.31-10.31,9.55c-21.13,11.28-46.22,11.19-67.34,22.44-21.16,11.27-41.66,28.9-45.82,53.75-2.27,13.57,1.77,26.93,13.28,35.12,12.7,9.03,28.79,9.9,43.83,9.68,11.72-.17,26.34-4.13,37.61,.31,16.42,6.48-2.52,21.14-8.91,27.66-11.83,12.06-16.97,36.35-6.49,50.7,10,13.69,29.13,12.86,44.13,10.63,12.18-1.81,24.1-5.06,36.31-6.93,21.48-3.28,33.73,17.62,47.89,29.55,37.52,31.63,85.96,21.28,127.6,4.51,38.78-15.61,78.75-33.6,120.6-41.63,63.34-12.15,127.26,3.58,189.64,13.97,51.41,8.57,105.4,11.34,157.91,5.78,34.61-3.66,74.23-12.24,100.56-36.64,19.31-17.89,24.4-44.75,16.99-67.96Z"/>
    <g class="svg-about__text">
        <g class="svg-about__text-drops">
            <text class="svg-about__text__about" transform="translate(120.14 188.45)">
                <tspan x="0" y="0">about...</tspan>
            </text>
            <text class="svg-about__text__me" transform="translate(270.35 317.87)">
                <tspan x="0" y="0">me???</tspan>
            </text>
        </g>
        <g class="svg-about__text-main">
            <text class="svg-about__text__about" transform="translate(110.75 174.89)">
                <tspan x="0" y="0">about...</tspan>
            </text>
            <text class="svg-about__text__me" transform="translate(260.96 304.3)">
                <tspan x="0" y="0">me???</tspan>
            </text>
        </g>
    </g>
</svg>