<?xml version="1.0" encoding="UTF-8"?><svg id="Layer_1" xmlns="http://www.w3.org/2000/svg" viewBox="0 0 1920 703.52"><path d="M261.48,144.04c2.69-1.34,3.22-4.47,4.1-7.05,2.57-7.51,5.42-14.95,9.19-21.95,2.88-5.35,6.43-10.67,7.18-16.84,.25-2.02,.19-4.14-.63-6.01-1.26-2.89-4.16-4.28-7.21-3.82-2.73,.41-5.12,2.12-7,4.15-6.53,7.05-10.29,16.15-13.37,25.11-2.36,6.86-8.02,18.3-1.73,24.58,2.39,2.38,6.28,3.41,9.47,1.83Z"/><path d="M197.94,129.84c2.64,2.58,7.32,3.52,10.88,3.37,4.22-.18,6.93-3.76,8.48-7.32,2.77-6.38,4.99-13.33,7.58-19.91,1.99-5.06,4.61-9.92,7.03-14.78,1.95-3.9,4.58-8.02,4.84-12.49,.34-5.8-4.92-9.19-10.14-6.45-7.97,4.18-13.07,12.01-16.97,19.85-4.18,8.39-7.95,17.24-10.91,26.13-.94,2.82-3.18,6.43-2.13,9.49,.29,.84,.75,1.54,1.34,2.11Z"/><path d="M0,703.52H1920v-57.91c-25.65-.1-51.63,2.86-76.42,6.41-29.16,4.17-58.19,10.45-87.21,1.33-57.74-18.15-119.19-31.46-180.57-31.87-32.99-.22-65.13,4.19-97.33,11.05-35.35,7.53-73.12,13.41-109.14,7.74-50.66-7.97-99.68-23.49-149.77-34.13-71.95-15.28-146.38-17.33-219.36-9.03-48.48,5.51-95.63,18.37-143.15,28.92-44.13,9.79-91.86,17.68-137.32,8.15-47.55-9.97-84.24-44.17-130.1-58.53-17.1-5.36-35-7.89-52.84-9.11-17.03-1.16-34.31-.21-50.39-7.02-10.06-4.26-18.11-12.17-25.96-19.52-18.83-17.6-41.3-31.16-66.73-36.45-10.73-2.23-17.11-8.27-17.4-19.6-.32-12.32,1.56-24.57,.54-36.91-1.53-18.53-4.79-36.95-10.05-54.79-8.25-27.96-21.14-54.33-35.84-79.41-7.39-12.6-15.26-24.9-23.35-37.06-3.97-5.96-7.75-12.23-12.11-17.9-3.34-4.33-7.65-7.2-10.28-12.05-7.96-14.66-10.8-31.57-10.72-48.11,.04-7.45,1.2-15.49,2.53-23.08,.99-5.6,4.05-11.22,3.53-17.03-.28-3.13-3.62-4.41-4.22-7.25-1.52-7.15,3.22-13.38,6.58-19.22,6.07-10.54,11.46-21.45,17.35-32.09,5.11-9.23,9.49-19.63,18.53-25.69,5.35-3.59,11.63-5.06,17.42-7.71,4.64-2.13,10.16-7.01,9.07-12.74-.66-3.47-4.19-6.73-7.68-7.69-5.46-1.5-8.75,3.16-11.41,7.06-.88,1.29-1.22-4.01-1.18-4.33,.33-2.58,3.01-6.03,4.2-8.38,1.65-3.27-1.06-7.75-3.82-9.56-6.55-4.29-12.28,5.69-15.29,10.07-.72,1.05-2.16,1.9-3.23,1.2-.45-.29-.71-.8-.86-1.32-.62-2.26,.86-4.56,2.59-6.14,3.21-2.92,5.63-8.34,4.22-12.84-1.29-4.12-7.61-7.47-11.78-6.92-5.97,.79-8.12,10.83-12.67,13.78-2.16,1.4-7.99,1.83-10.17,.37-4.66-3.11,1.82-7.52,2.36-10.9,1.39-8.68-11.45-11.63-17.79-11.87-9.79-.38-12.3,11.5-19.84,15.44-6.85,3.58-4.67-5.5-4.17-9.09,.48-3.51-1.13-9.55-4.77-11.03-9-3.65-13.66,6.57-15.77,13.49-2.55,8.36-2.18,17.26-4.45,25.66-4.62,17.06-17.07,31.06-24.79,46.76-4.79,9.74-7.82,20.19-10.8,30.59-2.02,7.03-1.13,16.27-8.27,20.56-1.66,1-3.53,1.6-5.12,2.71-2.56,1.79-4.12,4.75-4.85,7.79-9.47,39.74,1.68,94.17,34.58,121.25,11.43,9.41,16.33,25.61,22.45,38.56,16.16,34.2,33.83,67.99,44.75,104.35,3.49,11.61,6.07,23.56,8.16,35.49,2.92,16.68,13.13,43.16-1.26,57.14-7.89,7.66-20.43,5.15-30.4,6.17-28.31,2.9-53.72,17.99-74.7,36.51-18.7,16.51-38.68,42.27-66.81,28.92-17.18-8.15-37.98-11.2-55.86-3.49-17.19,7.41-29.52,22.1-38.99,37.79-.63,1.05-1.26,2.11-1.87,3.17v89.36Zm355.4-172.19c-.28,.49-.63,.95-1.05,1.36-1.07,1.04-2.6,1.64-4.07,1.41-1.73-.27-3.15-1.68-3.71-3.34-.56-1.66-.32-3.51,.38-5.11,1.16-2.65,6.37-8.88,8.44-3.6,1.1,2.8,1.58,6.54,.02,9.27Zm-2.23-45.8c1.07,1.02,1.57,3.4,1.7,4.49,.3,2.46,.23,5.36-1.12,7.53-.78,1.25-2.05,2.24-3.51,2.44-.94,.13-2.02-.15-2.51-.97-.35-.58-.33-1.29-.3-1.96,.08-1.72,1.97-15.1,5.74-11.52Zm-8.96-66.84c2.56-1.1,4.13,1.55,4.86,3.6,.82,2.28,1.28,4.69,1.38,7.11,.04,.95-.02,1.99-.65,2.71-.43,.49-1.07,.75-1.7,.92-1.03,.28-2.26,.34-3.04-.39-.33-.31-.53-.72-.7-1.14-.03-.08-.06-.17-.1-.25-.96-2.6-3.81-10.95-.07-12.56Zm-25.48-65.85c1.86-1.22,4.52-.03,5.8,1.53,2.15,2.62,4.56,7.07,2.27,10.28-.09,.12-.18,.24-.29,.36-.75,.88-1.92,1.43-3.06,1.28-1.13-.15-2.08-.94-2.84-1.79-1.7-1.89-2.85-4.27-3.28-6.77-.31-1.77-.1-3.9,1.4-4.88Zm-21.58,90.23c2.41-2.27,5.26-1.25,6.74,1.5,.74,1.37,1,2.96,.97,4.52-.03,1.42-.37,2.93-1.17,4.06-.3,.42-.67,.8-1.11,1.09-1.37,.92-3.26,.91-4.71,.11-1.45-.79-2.45-2.29-2.82-3.9-.58-2.52,.18-5.6,2.09-7.4Zm2.71,81.97c.94,1.71,.38,3.85-.26,5.57-.85,2.28-2.47,4.28-4.57,5.52-1.27,.75-2.88,1.22-4.19,.55-1.19-.61-1.78-1.98-2-3.29-.59-3.41,.66-7.1,3.58-9.04,2.37-1.57,5.83-2.25,7.45,.7Zm-11.46-146.01c2.19,3.04,5.91,11.2-.67,11.53-.93,.05-1.85-.18-2.69-.6-.67-.33-1.29-.79-1.82-1.32-1.19-1.19-1.97-2.73-2.55-4.31-.59-1.6-1-3.37-.55-5.02,1.19-4.29,6.23-3.13,8.28-.29Zm-110.22-245.9l.03-.11c4.2-15.44,8.92-30.81,15.72-45.29,1.71-3.64,3.56-7.23,5.55-10.73,2-3.52,4.15-6.95,6.47-10.27,2.31-3.31,4.78-6.51,7.43-9.56,1.32-1.52,2.69-3.01,4.09-4.45,.7-.72,1.42-1.43,2.15-2.13,.36-.35,.73-.7,1.1-1.04,.29-.28,.48-.58,.74-.87,.56-.64,1.62-.15,2.13,.31,.66,.6,1.11,1.52,1.03,2.43-.16,1.78-1.45,3.21-2.3,4.78-.85,1.57-1.12,3.84,.33,4.87,1.5,1.06,3.66-.09,4.62-1.66,.96-1.57,1.25-3.47,2.21-5.04,.96-1.57,3.1-2.74,4.62-1.7,1.33,.92,1.29,2.93,.66,4.42-.63,1.48-1.71,2.79-2.06,4.36-.35,1.57,.46,3.62,2.07,3.71,1.58,.09,2.57-1.62,3.22-3.07,1.01-2.23,2.22-4.56,4.36-5.75,2.14-1.19,5.43-.59,6.2,1.73,.5,1.52-.19,3.16-1.01,4.53-.82,1.37-1.81,2.73-1.97,4.32-.15,1.59,.99,3.44,2.58,3.32,1.15-.09,1.97-1.1,2.65-2.04,1.36-1.86,2.81-3.79,4.91-4.73s5.03-.42,5.98,1.67c1.61,3.56-3.47,7.89-1.38,11.2,1.11,1.77,3.81,1.91,5.59,.81,1.78-1.1,2.82-3.05,3.67-4.96,.44-.99,1.43-2.21,2.34-1.61,.31,.2,.47,.56,.56,.91,.5,1.85-.37,3.77-.65,5.67-.28,1.9,.55,4.37,2.47,4.46,1.79,.09,2.85-1.89,3.69-3.47,.84-1.58,2.69-3.24,4.18-2.26,1.44,.95,.78,3.19-.16,4.64-.93,1.45-2,3.37-.95,4.74,1.41,1.85,4.34,.07,5.62-1.87,1.28-1.94,3.1-4.41,5.3-3.64-1.13,1.41-2.31,2.93-2.5,4.73s1.09,3.87,2.9,3.81c2.55-.09,3.73-3.98,6.28-4,1.19,4.58-1.3,9.22-3.62,13.34-8.72,15.48-16.34,31.58-22.81,48.13-.47,1.19-1.01,2.48-2.14,3.07-.85,.44-1.89,.4-2.74,.83-1.49,.74-1.97,2.6-2.29,4.23-1,5.11-2,10.23-3,15.34-2.91-4.67,.73-10.65,.47-16.14-.05-.94-.23-1.92-.8-2.67-1.69-2.22-5.55-.87-6.83,1.61s-.96,5.43-1.18,8.21c-.22,2.78-1.41,5.94-4.09,6.7-.88-2.33-.21-4.94,.64-7.27,.98-2.67,2.3-5.57,1.55-8.48-.36-1.39-1.24-2.69-2.52-3.33-5.35-2.69-7.29,5.01-7.49,8.64-.08,1.46-.12,2.91-.23,4.37-.06,.8-.1,1.64-.22,2.44-.09,.58-.11,1.2-.34,1.75-.17,.4-.54,.69-.98,.54-.91-.3-1.09-1.8-1.17-2.6-.41-4.26,1.64-8.51,.42-12.73-.45-1.54-1.31-2.94-2.63-3.87-1.53-1.06-3.39-1.54-5.21-1.76-.46-.06-.93-.09-1.39-.12-2.38-.12-4.99,.14-6.72,1.78-4.16,3.97,.05,12.15-3.99,16.24-.27,.27-.58,.52-.95,.59-.67,.12-1.3-.37-1.67-.93-2.27-3.36,1.43-7.61,1.62-11.66,.19-3.99-3.64-7.55-7.64-7.48s-7.55,3.37-8.37,7.28c-.39,1.85-.24,3.77-.55,5.64-.3,1.87-1.21,3.81-2.95,4.56-.55-2.75,.53-5.53,.85-8.32,.42-3.71-.69-7.74-3.51-10.19s-7.44-2.87-10.27-.42c-5.17,4.48-1.76,14.44-7.16,18.64,.45-4.97,.89-10.03-.16-14.9-.48-2.21-1.26-4.37-1.31-6.63-.04-1.91,.44-3.78,.94-5.62Zm74.96,170.07c-.06,.55-.22,1.1-.45,1.61-.72,1.53-2.18,2.69-4.01,2.27-1.41-.32-2.47-1.5-3.25-2.73-1.6-2.51-2.48-5.48-2.48-8.46,0-1.03,.17-2.19,1.01-2.78,2.08-1.45,5.22,1.34,6.5,2.75,1.74,1.92,2.97,4.7,2.68,7.34Zm9.78-44.43c-12.91,2.25-25.81,4.55-38.62,7.29-6.65,1.42-13.82,2.91-20.16,.85-.77-.25-1.53-.55-2.28-.92-6.77-3.3-10.46-10.59-13.85-17.31-5.11-10.14-10.66-20.27-12.93-31.4-.1-.47-.18-.99,.03-1.43,.33-.68,1.28-.85,1.98-.56,.7,.29,1.19,.92,1.63,1.53,7.03,9.74,8.8,22.3,14.46,32.89,.74,1.39,1.97,2.94,3.51,2.63,1.04-.21,1.75-1.27,1.88-2.32,.13-1.06-.18-2.11-.5-3.13-1.84-5.82-4-11.54-6.46-17.12-1.31-2.96-2.86-5.81-3.95-8.86-.85-2.38-2.39-6.84-.84-9.2,1.9-2.9,4.84,1.3,5.82,2.92,6.86,11.32,6.36,25.17,12.14,36.86,.64,1.29,1.8,2.77,3.18,2.36,1.28-.38,1.56-2.04,1.52-3.37-.5-14.83-11.97-27.17-11.13-42.09,.08-1.39,.41-3.74,1.95-4.33,1.78-.68,4.25,1.1,5.33,2.34,1.32,1.52,2.09,3.44,2.75,5.35,4.23,12.22,5.06,25.37,8.64,37.8,.45,1.58,1.45,3.49,3.08,3.29,1.87-.22,2.14-2.82,1.86-4.68-2.24-14.67-6.71-29.13-6.4-43.96,.03-1.36,.42-3.11,1.77-3.3,.81-.12,1.55,.43,2.12,1.01,1.9,1.94,2.97,4.53,3.89,7.09,4.28,12.02,6.02,24.77,8.85,37.21,.29,1.27,.62,2.6,1.5,3.55,.88,.96,2.5,1.36,3.49,.52,.8-.68,.9-1.87,.93-2.92,.25-9.07-.49-18.17-2.2-27.08-.92-4.79-2.12-9.78-.75-14.46,2.26,1.18,3.11,3.91,3.76,6.38,2.81,10.73,5.61,21.46,8.42,32.19,.4,1.53,1.05,3.32,2.58,3.7,1.51,.38,3.01-.99,3.38-2.5,.37-1.51-.07-3.09-.48-4.6-3.03-11.01-4.95-22.33-5.75-33.72,2.23,.84,3.46,3.21,4.3,5.44,3.61,9.72,3.48,20.47,6.64,30.35,.29,.91,.67,1.88,1.49,2.37,1.5,.89,3.5-.56,3.86-2.26,.36-1.7-.34-3.43-.97-5.06-2.21-5.73-3.62-11.77-4.18-17.89-.1-1.1-.14-2.33,.56-3.19,.82-1.01,2.41-1.09,3.55-.48,1.14,.61,1.9,1.76,2.45,2.93,2.97,6.34,1.09,13.84,2.31,20.73,.36,2.05,1.79,4.53,3.8,4.01,2.06-.53,2.04-3.45,1.54-5.52-.83-3.5-1.67-7-2.5-10.51-.85-3.58-1.67-7.54,.05-10.79,2.75,3.34,3.5,7.84,4.44,12.07,1.45,6.55,3.58,12.95,6.33,19.06,.72,1.6,1.45,3.6,.38,4.99-.49,.65-1.28,.99-2.03,1.29-5.17,2.04-10.69,3-16.16,3.95Z"/></svg>