<?xml version="1.0" encoding="UTF-8"?><svg id="Layer_1" xmlns="http://www.w3.org/2000/svg" viewBox="0 0 455.48 272.28"><path d="M401.37,80.18c-28.04-25.37-67.34-7.75-94.54,9.53-33.35,21.18-63.08,47.39-92.58,73.51-8.64,7.65-16.2,6.26-22.86-2.92-14.14-19.49-33.42-34.81-56.33-42.59-24.66-8.38-54.99-20.38-80.66-9.17-1.28,.56-2.58,1.21-3.47,2.28-2.5,3.02-.56,7.82,2.57,10.2,12.31,9.35,27.54,6.93,41.88,5.9,25.65-1.85,47.38,11.94,64.58,29.72,6.53,6.75,34.46,53.17,44.37,47.73,12.1-6.65,15.85-23.6,26.07-32.79,24.09-21.67,52.01-39.04,81.78-51.77,28.32-12.11,58.32-15.1,86.83-25.68,3.46-1.28,8.07-3.92,6.27-8.45-.85-2.14-2.2-3.95-3.91-5.5Z"/></svg>