<?xml version="1.0" encoding="UTF-8"?><svg id="Layer_1" xmlns="http://www.w3.org/2000/svg" viewBox="0 0 455.48 272.28"><path d="M398.88,128.94c-.46-1.57-1.28-3.07-2.22-4.42-6.44-9.21-18.82-14.41-29.19-17.71-18.74-5.96-39.65-5.39-58.64-.88-16.55,3.93-32.46,10.41-47.59,18.11-8.63,4.39-37.23,30.3-45.69,22.19-14.12-13.53-30.61-25.71-49.63-31.21-21.32-6.16-43.33-.08-63.17,8.19-11.46,4.78-23.31,9.77-32.74,18.05-4.57,4.01-10.38,10.38-12.82,16.01-1.86,4.3-1.34,9.82,3.5,11.91,9.09,3.92,23.03-10.98,30.46-15.16,19.66-11.06,43.12-19.66,66.24-19.2,12.29,.25,23.18,4.42,33.31,11.18,8.21,5.48,16.21,13.68,26.35,15.39,30.41,5.13,59.32-9.89,87.15-20.48,12.33-4.69,26.29-10.02,39.65-10.34,12.58-.3,25.77,6.15,38.39,7.36,5.73,.55,16.74,3.12,17.06-6,.04-1.02-.12-2.02-.4-2.99Z"/></svg>