<?xml version="1.0" encoding="UTF-8"?><svg id="Layer_1" xmlns="http://www.w3.org/2000/svg" viewBox="0 0 455.48 272.28"><path d="M361.85,88.07c-10.28-7.42-23.41-9.08-35.68-6.78-25.23,4.72-48.64,21.95-65.16,41-5.8,6.68-10.21,15.85-18.17,20.33-10.82,6.1-22.22-10.54-29.93-16.4-10.55-8.02-22.4-15.54-34.54-21.54-6.42-3.18-13.02-6-19.77-8.41-10.91-3.89-22.4-6.06-33.96-6.61-7.41-.36-40.02-5.32-34.88,11.5,1.94,6.34,11.17,4.97,16.1,4.21,51.48-7.97,102.94,31.65,116.78,80.63,.62,2.19,1.76,4.48,3.89,5.29,10.18,3.86,18.25-9.8,22.23-16.98,11.46-20.69,25.05-41.91,43.76-57.12,9.26-7.53,20.6-13.69,32.6-16.27,6.3-1.35,12.95-1.86,19.36-1.05,5.57,.71,12.09,3.95,17.65,1.92,5.72-2.08,4.94-8.98,1.08-12.6-.42-.4-.87-.77-1.35-1.11Z"/></svg>