<?xml version="1.0" encoding="UTF-8"?>
<svg id="Layer_1"
    xmlns="http://www.w3.org/2000/svg" viewBox="0 0 615.89 577.27">
    <defs>
        <style>.cls-1{font-size:104.43px;}.cls-1,.cls-2{fill:#fff;font-family:AcuminConcept-ExtraCondensedBold, 'Acumin Variable Concept';font-variation-settings:'wght' 700, 'wdth' 50, 'slnt' 0;}.cls-3{letter-spacing:.01em;}.cls-4{letter-spacing:0em;}.cls-5{fill:#f3aa3b;}.cls-2{font-size:88.14px;}.cls-6{letter-spacing:0em;}.cls-7{letter-spacing:0em;}.cls-8{letter-spacing:0em;}.cls-9{letter-spacing:0em;}.cls-10{letter-spacing:0em;}</style>
    </defs>
    <g>
        <path d="M317.77,369.9c-4.86,0-7.02,3.47-7.02,10.08v30.2c0,6.04,1.83,10.44,7.13,10.44,4.97,0,6.89-3.68,6.89-10.69v-30.08c0-5.76-1.54-9.95-7-9.95Z"/>
        <path d="M615.69,319.1c-.11-1.16-.26-2.3-.46-3.44-3.54-20.4-22.06-34.62-41.85-37.59-9.95-1.49-18.11-3.65-19.59-15.23-2.78-21.77-.42-46.23-10.73-66.27-7.82-15.2-24.38-24.02-30.62-40.29-6.01-15.66,.84-33.8-14.16-45.85-13.4-10.77-30.42-16.54-42.77-28.7-13.85-13.64,3.48-32.78,3.52-48.22,.04-12.98-6.22-24.69-18.44-29.94-16.94-7.28-38.36-3.09-51.33,9.96-5.77,5.81-9.43,14.44-16.38,18.98-2.32,.86-1.46,.61-.2,.13-.72,.46-1.46,.88-2.25,1.25-8.07,3.67-17.31,6.09-26.17,4.35-15.24-3-31.53-4.7-46.06-10.39-13.57-5.31-25.01-11.17-40.11-11.12-28.75,.08-55.96,12.76-81.92,23.72-24.63,10.39-47.96,26.21-59.67,51.06-2.37,5.03-4.04,11.77-10.33,13.13-11.67,2.53-18.13-16.09-22.96-23.43-7.57-11.51-15.75-23.08-29.5-27.48-20.72-6.63-46.19-.68-52.42,22.58-6.93,25.84,15.07,55.3,40.17,60.58,8.33,1.75,21.21,.87,23.23,11.78,2.38,12.87-15.94,16.4-21.34,25.18-8.36,13.59-9.83,29.21-8.01,44.76,1.01,8.64,2.99,15.9,1.36,24.61-1.83,9.78-5.93,18.97-8.42,28.58-3.49,13.49-5.14,27.33-1.49,40.99,2.37,8.85,8.57,18.52,6.58,27.87-2.06,9.68-10.4,17.71-14.08,26.79-4.75,11.71-6.94,23.96-4.27,36.48,3.89,18.27,15.89,35.64,36.1,36.53,12.39,.54,23.58-4.48,36.17-1.74,10.26,2.23,19.29,8.28,22.31,18.77,.62,2.14,.36,4.44-.08,6.62-3.66,18.18-17.87,24.74-30.37,36.2-10.59,9.71-16.8,23.71-15.28,38.17,2.27,21.51,17.45,43.45,41.64,37.96,26.59-6.03,41.73-28.01,48.97-52.96,6.09-20.98,21.62,7.66,27.36,13.19,13.96,13.44,35.22,14.26,52.5,7.56,13.57-5.26,26.12-10.76,40.99-10.06,16.15,.76,31.67,6.45,47.87,6.93,20.6,.6,42.11-1.38,60.95-10.32,10.47-4.97,19.45-12.3,26.62-21.38,5.99-7.58,12.35-20.33,22.81-22.3,12.61-2.38,25.07,12.66,32.7,20.82,13.66,14.59,21.69,33.76,36.72,47.2,39.85,35.62,94.64-23.52,60.96-62.45-17.66-20.42-47.46-17.32-67.49-33.77-17.28-14.18,3.18-31.74,12.65-43.2,8.71-10.55,20.29-18.75,26.6-31.18,4.91-9.67,4.82-24.7,13.52-31.96,7.23-6.04,18.32,5.28,25.44,6.73,7.69,1.57,15.58,.94,22.68-2.53,14.16-6.93,19.7-22.64,18.32-37.62Zm-443.24,202.67c-.24-.29-.48-.58-.71-.87,.1,.05,.19,.11,.29,.16,1.38,.72,1.7,1.64,.42,.71Zm103.84-89.13h-14.42c-3.46-21.56-7.14-38.99-8.33-50.05h-.14c-.87,10.25-4.51,26.96-8.76,50.05h-14.67l-13.5-74.76h15.81c4.58,36.2,5.5,45.22,6.12,53.84h.14c.9-9.31,3.51-21.45,8.54-53.84h13.75c5.22,33.3,7.61,44.69,8.35,53.93h.14c.72-7.98,1.17-15.34,6.28-53.93h14.9l-14.2,74.76Zm63.38-23.07c0,16.02-7.97,24.23-22.06,24.23s-21.75-8.41-21.75-24.14v-29.44c0-16.18,9.19-23.49,22.19-23.49s21.63,8.31,21.63,24.11v28.74Zm41.22-34.47c-8.53,.02-15.97,2.18-15.97,17.5v40.04h-14.88v-49.43c0-12.41,.13-17.7-.14-25.33h14.1c.14,1.44,.42,8.09,.42,12.1,2.96-10.11,9.54-13.19,16.48-13.23v18.34Zm36.21,57.54l-9.25-32.61-5.21,10.27v22.34h-14.75v-100.69h14.75v58.17h.27c3.26-8.33,9.69-23.1,13.34-32.24h15.68l-13.76,27.67,15.14,47.09h-16.22Zm39.54,0h-14.93v-18h14.93v18Zm.64-80.46l-1.45,46.38h-13.16l-1.47-46.27v-16.14h16.08v16.03Z"/>
    </g>
    <text class="cls-1" transform="translate(105.05 234.1)">
        <tspan x="0" y="0">h</tspan>
        <tspan class="cls-7" x="40.62" y="0">o</tspan>
        <tspan class="cls-10" x="78.64" y="0">w my</tspan>
    </text>
    <text class="cls-2" transform="translate(107.4 318.85)">
        <tspan class="cls-9" x="0" y="0">c</tspan>
        <tspan x="30.05" y="0">omm</tspan>
        <tspan class="cls-4" x="161.12" y="0">i</tspan>
        <tspan class="cls-3" x="178.12" y="0">s</tspan>
        <tspan x="207.91" y="0">sio</tspan>
        <tspan class="cls-6" x="285.3" y="0">n</tspan>
        <tspan class="cls-8" x="319.85" y="0">s</tspan>
    </text>
</svg>