<?xml version="1.0" encoding="UTF-8"?>
<svg id="Layer_1"
    xmlns="http://www.w3.org/2000/svg" viewBox="0 0 400 1200">
    <path d="M260.65,0V788.47c0,32.07-15.06,54.41-28.58,54.41H0v20H232.08c27.24,0,48.58-32.69,48.58-74.41V0h-20Z"/>
    <path d="M116.92,0V631.95c0,32.07-15.06,54.41-28.58,54.41H0v20H88.34c27.24,0,48.58-32.69,48.58-74.41V0h-20Z"/>
    <path d="M220.66,0V504.65c0,32.21-15.38,59.41-33.58,59.41H0v10H187.08c24.44,0,43.58-30.49,43.58-69.41V0h-10Z"/>
    <path d="M358.62,0h-20c.17,66.07,.06,195.39-.33,371.31-.07,31.94-15.12,54.19-28.58,54.19H0v20H309.72c27.15,0,48.49-32.57,48.58-74.15,.16-70.42,.35-172.64,.4-259.77,.02-47.34,0-84.86-.07-111.58Z"/>
    <path d="M60.05,0V240.7c0,32.21-15.38,59.41-33.58,59.41H0v10H26.48c24.44,0,43.58-30.49,43.58-69.41V0h-10Z"/>
    <path d="M161.92,0V131.85c0,32.07-15.06,54.41-28.58,54.41H0v20H133.34c27.24,0,48.58-32.69,48.58-74.41V0h-20Z"/>
</svg>