<?xml version="1.0" encoding="UTF-8"?>
<svg id="Layer_1"
    xmlns="http://www.w3.org/2000/svg" viewBox="0 0 1000 558.09">
    <defs>
        <style>.cls-1{fill:#fbb141;}.cls-2{fill:#08d9b9;}.cls-3{letter-spacing:0em;}.cls-4{letter-spacing:.02em;}.cls-5{letter-spacing:0em;}.cls-6{letter-spacing:0em;}.cls-7{fill:#f16441;}.cls-8{font-size:80.9px;}.cls-8,.cls-9{font-family:AcuminConcept-BlackItalic, 'Acumin Variable Concept';font-variation-settings:'wght' 800, 'wdth' 100, 'slnt' 12;}.cls-9{font-size:153.81px;}.cls-10{letter-spacing:0em;}</style>
    </defs>
    <path d="M213.2,344.71l-31.49-.36,38.75,14.26c-2.52-4.58-4.93-9.21-7.26-13.89Z"/>
    <path d="M124.16,0c-19.64,0-37.9,7.39-53.08,20.06,12.35-8.01,26.38-12.56,41.26-12.56,49.5,0,89.63,50.07,89.63,111.83s-40.13,111.83-89.63,111.83c-14.89,0-28.91-4.55-41.26-12.56,15.19,12.67,33.44,20.06,53.08,20.06,52.82,0,95.64-53.42,95.64-119.32S176.98,0,124.16,0Z"/>
    <g>
        <text class="cls-8" transform="translate(342.27 298.61)">
            <tspan x="0" y="0">nee</tspan>
            <tspan class="cls-4" x="144.57" y="0">d</tspan>
            <tspan class="cls-10" x="196.51" y="0" xml:space="preserve"> a</tspan>
            <tspan class="cls-5" x="262.36" y="0">n</tspan>
        </text>
        <text class="cls-9" transform="translate(264.57 192.43)">
            <tspan x="0" y="0">h</tspan>
            <tspan class="cls-6" x="93.21" y="0">e</tspan>
            <tspan class="cls-3" x="184.72" y="0">y!</tspan>
        </text>
    </g>
    <g>
        <path class="cls-7" d="M200.55,74.58c-9.72-22.78-22.76-45.99-45.57-57.8-6.92-3.58-25.03-11.83-24.54,2.78,.21,6.33,6.42,9.14,10.43,12.94,16.26,15.39,22.21,37.39,25.44,58.99,1.18,.82,2.24,1.86,3.11,3.09,6.79,9.66,7.35,20.87,6.96,32.28-.13,3.94-2.07,6.69-4.69,8.28,1.81,15.38,3.51,30.78,4.78,46.22,.33,4,.59,8,.82,12.01l47.01-27.68c-6.24-30.86-11.36-62.09-23.74-91.1Z"/>
        <path class="cls-7" d="M886.41,282.6c-3.48-4.05-9.4-4.48-14.19-2.94-8.78,2.82-23.2,9.58-22.28,20.81,.45,5.45,4.46,10.22,9.89,11.23,5.69,1.05,11.43-1.26,16.12-4.34,5.86-3.85,13.36-10.5,12.95-18.22-.15-2.71-1.06-4.89-2.48-6.54Z"/>
        <path class="cls-7" d="M993.75,403.68c-2.99-9.23-14.87-8.37-21.44-3.65-2.39,1.72-4.38,4.06-5.39,6.82-1.01,2.76-.96,5.96,.42,8.56,1.58,2.99,4.79,4.92,8.13,5.44,3.34,.52,6.78-.25,9.85-1.67,2.73-1.26,5.28-3.07,6.99-5.55,2.03-2.93,2.53-6.57,1.44-9.95Z"/>
        <path class="cls-7" d="M977.96,528.83c-2.97-10.06-18.25-10.65-21.32-.37-1.75,5.88,.46,13.94,6.78,16.02,8.49,2.8,16.88-7.69,14.54-15.65Z"/>
        <path class="cls-1" d="M318.73,319.25c-33.01-15.52-56.11-46.98-71.75-78.97-11.54-23.61-17.51-48.98-22.69-74.6l-47.01,27.68c1.67,28.84,1.54,57.68,10.06,85.65,11.39,37.4,27.38,73.73,49.32,106.19,6.17,9.13,12.81,18,19.89,26.5l72.92-87.94c-3.62-1.36-7.21-2.84-10.74-4.5Z"/>
        <path class="cls-7" d="M969.72,383.6c8.59-9.63,20.01-16.23,26.06-28.06,10.05-19.63,1.17-47.58-15.99-60.31-8.94-6.64-19.82-10.32-31.37-9.08-32.22,3.46-51.3,38.48-84.15,40.84-23.93,1.72-46.58-7.81-68.98-14.68-16.82-5.16-31.39-5.51-45.12-2.81l60.5,246.38c11.64-1.44,23.04-3.66,34.03-6.9,17.92-5.29,34.25,1.26,52.27,3.02,17.14,1.67,27.46-7.54,37.07-20.79,8.62-11.88,18.44-22.89,29.86-32.14,9.38-7.6,21.83-14.14,23.38-27.44,2.3-19.82-16.38-34.67-30.74-44.84-2.52-1.78-5.18-3.56-6.8-6.19-8.44-13.74,12.47-28.58,19.97-36.99Z"/>
        <g>
            <path class="cls-1" d="M595.72,430.66c-10.17,0-14.66,19.68-14.67,28.71,0,7.14,2.64,10.84,7.82,10.85,10.48,0,14.74-20.61,14.75-29.61,0-6.66-2.57-9.95-7.91-9.95Z"/>
            <path class="cls-1" d="M750.18,309.49c-21.26,4.18-40.48,15.71-62.83,28.18-26.8,14.94-56.45,22.27-87,24.05-22.58,1.31-44.97-.1-67.25-2.82l-2.88,36.11,20.99,1.65-5.23,17.75,11.73,.92-4.96,16.46-11.73-.92-8.83,29.85c-1.22,4.06-.81,6.38,4.36,6.79,1.75,.14,3.45,.18,5.27,.11l-4.55,15.64c-4.37,.95-9.96,.67-14.12,.36l-4.11,51.64c53.59,7.72,108.31,11.06,161.7,16.46,41.19,4.17,87.19,9.44,129.93,4.14l-60.5-246.38Zm-163.31,177.33c-22.57-.02-31.07-13.52-31.06-29.56,.02-19.55,12.46-43.35,41.12-43.32,19.93,.02,31.88,11.1,31.86,30.48-.02,18.29-10.54,42.44-41.92,42.41Zm101.44-53.39c-14.5,.21-20.69,6.61-22.89,21.17l-4.29,28.67-24.69,1.47,7.34-48.54c1.36-8.86,2.28-15.93,2.97-22.05l23.88-1.42c-.02,1.88-.31,6.75-1.07,11.84,4.01-8.06,9.68-13.82,22.39-14.48l-3.65,23.35Zm51.47,43.38l-24.87,2.53,2.61-24.52,24.87-2.53-2.61,24.52Zm12.07-46.76c-6.23,5.21-8.24,8.8-8.74,13.46-.02,.28-.09,1.76-.07,1.95l-24.31,2.47c-.31-.77-.11-3.54-.05-4.82,.79-8.75,4.52-14.7,14.79-23.93,4.35-3.94,9.19-8.16,8.82-13.1-.22-3.52-1.92-6.5-6.59-6.02-5.41,.55-7.67,4.58-8.77,11.68l-22.82,2.32c1.34-15.79,9.32-28.38,31.74-30.65,21.41-2.17,29.97,8.13,31.08,19.03,1.13,11.11-4.45,18.79-15.07,27.62Zm28.71,114.71c.08,.3,.17,.59,.27,.88-1.3-.15-2.58-.29-3.84-.42,1.19-.15,2.38-.31,3.57-.46Z"/>
        </g>
        <g>
            <path class="cls-2" d="M424.74,412.32c-9.9-2.69-19.86,12.44-22.36,21.63-1.85,6.78-.49,11.14,4.87,12.6,8.09,2.2,14.56-4.87,20.24-16.48,4.87-9.79,4.71-15.72-2.74-17.74Z"/>
            <path class="cls-2" d="M522.27,483.55c-16.92-1.33-18.77-10.43-14.97-23.37l9.21-31.25-9.5-.75,4.96-16.46,9.64,.76,5.45-17.73,3.16,.25,2.88-36.11c-43.68-5.34-86.98-15.75-130.6-20.76-24.69-2.83-49.69-5.66-73.02-14.38l-72.92,87.94c15.15,18.18,32.37,34.66,51.65,48.35,63.63,45.21,136.14,64.47,210.84,75.22l4.11-51.64c-.3-.02-.61-.04-.89-.07Zm-33.11-101.81l24.46,3.64-6.45,17.34-24.46-3.64,6.45-17.34Zm-117.02,26.25c-2.3,4.62-5.05,8.24-7.68,11.15l-39.5-19.66c-.77,.96-1.41,1.83-2,2.92-2.93,5.37-3.46,10.8,2.19,13.61,4.87,2.42,8.72,.84,12.11-2.03l22.27,11.08c-9.1,9.08-24.04,14.64-43.38,5.01-19.83-9.87-21.76-25.55-14.54-40.07,7.95-15.98,28.46-34.42,55.31-21.05,19.78,9.85,22.4,24.61,15.22,39.04Zm61.03,62.33l-23.17-6.3c.67-2.14,1.33-3.71,2.47-6.23-5.56,4.22-12.34,5.12-20.33,2.95-13.91-3.78-19.13-15.68-14.73-31.86,5.89-21.66,24.59-40.99,47.56-34.75,8.27,2.25,13.7,6.83,14.61,10.11l14.61-28.24,23.77,6.47-35.74,69.68c-3.73,7.22-6.86,13.31-9.05,18.18Zm46,7.58l-24.46-3.64,24.93-66.91,24.46,3.64-24.93,66.91Z"/>
            <path class="cls-2" d="M349.65,383.23c-5.66-2.81-10.99-.59-16.1,5.32l17.44,8.68c.9-1.1,1.42-2.05,1.82-2.85,2.06-4.14,2.17-8.49-3.17-11.15Z"/>
        </g>
    </g>
    <path d="M95.64,0C42.82,0,0,53.42,0,119.32s42.82,119.32,95.64,119.32,95.64-53.42,95.64-119.32S148.46,0,95.64,0Zm0,26.09c8.44,0,15.29,8.54,15.29,19.07s-6.84,19.07-15.29,19.07-15.29-8.54-15.29-19.07,6.84-19.07,15.29-19.07Zm-59.44,112.3c-8.44,0-15.29-8.54-15.29-19.07s6.84-19.07,15.29-19.07,15.29,8.54,15.29,19.07-6.84,19.07-15.29,19.07Zm59.44,74.16c-8.44,0-15.29-8.54-15.29-19.07s6.84-19.07,15.29-19.07,15.29,8.54,15.29,19.07-6.84,19.07-15.29,19.07Zm0-57.65c-15.75,0-28.52-15.93-28.52-35.59s12.77-35.59,28.52-35.59,28.52,15.93,28.52,35.59-12.77,35.59-28.52,35.59Zm61.99-16.52c-8.44,0-15.29-8.54-15.29-19.07s6.84-19.07,15.29-19.07,15.29,8.54,15.29,19.07-6.84,19.07-15.29,19.07Z"/>
    <path d="M191.9,344.35c0-2.86-1.18-5.43-3.07-7.29l99.25-101.55-22.68,6.97c-27.15,8.34-49.48,27.84-61.39,53.62l-18.02,39c-1.3-.6-2.74-.95-4.27-.95-2.12,0-4.08,.65-5.71,1.75l-18.39-27.19c-9.84-14.54-25.6-21.98-41.44-21.98-13.91,0-27.87,5.74-37.91,17.45-13.53,15.78-2.32,40.17,18.47,40.17h74.79c0,2.81,1.14,5.36,2.99,7.21l-52.88,52.88c-14.7,14.7-5.39,39.87,15.34,41.46,1.32,.1,2.64,.15,3.93,.15,31.01,0,54.97-28.38,48.97-59.46l-6.22-32.24c4.7-.9,8.26-5.04,8.26-10Zm-95.17-9.33c-6.02,0-11.12-3.27-13.63-8.73-2.52-5.47-1.68-11.46,2.24-16.03,7.73-9.02,18.97-14.19,30.83-14.19,13.53,0,26.14,6.69,33.71,17.88l14.26,21.08H96.73Zm75.43,86.91c-7.76,9.4-19.16,14.8-31.26,14.8-1.06,0-2.15-.04-3.22-.12-6-.46-10.83-4.11-12.92-9.75-2.09-5.65-.79-11.56,3.46-15.81l47.67-47.67,4.82,24.99c2.31,11.96-.81,24.19-8.55,33.57Z"/>
</svg>