<?xml version="1.0" encoding="UTF-8"?><svg id="Layer_1" xmlns="http://www.w3.org/2000/svg" viewBox="0 0 644.83 1250"><defs><style>.cls-1{fill:#fbb040;}</style></defs><path class="cls-1" d="M350.1,900.57c-1.21-8.4-5.77-15.59-16.81-19.86-7.46-2.89-15.22-4.97-22.6-8.04s-13.19-8.16-20.39-10.88c-10.01-3.79-28.2-5.41-30.71,8.59v.05c-2.33,13.21,13.89,13.98,19.53,22.61-7.21-11.01-39.03,12.19-39.93,21.5-.34,3.59,2.05,6.99,5.12,8.9,9.09,5.68,2.68,11.75-3.13,16.69-7.22,6.14-20.01,22.11-13.7,32.12,7.16,11.37,20.78,2.71,28.43-3.6,4.37-3.61,10.9-14.31,17.45-12.33,8.15,2.46,5.79,15.29,13.8,17.77,16.32,5.04,21.67-17.87,28.28-27.78,2.65-3.97,6.07-4.97,10.48-2.83,11.6,5.63,17.03-1.69,19.89-12.27,2.74-10.15,5.66-21.17,4.3-30.64Z"/><path d="M411.77,384.01c-6.32,0-11.75-4.78-12.42-11.2l-8.12-77.68c-3.9-37.33-20.35-72.83-46.3-99.94-34.93-36.48-54.17-84.39-54.17-134.9V-39.62c0-6.9,5.6-12.5,12.5-12.5s12.5,5.6,12.5,12.5V60.29c0,44.04,16.77,85.81,47.23,117.61,29.78,31.1,48.64,71.81,53.11,114.63l8.12,77.68c.72,6.87-4.27,13.01-11.13,13.73-.44,.05-.88,.07-1.31,.07Z"/><path d="M24.98,605.56c-13.01,0-23.98-10.07-24.91-23.24-.97-13.77,9.41-25.72,23.18-26.69l88.05-6.2c99.7-7.02,193.34-44.12,270.81-107.27,30.97-25.25,64.85-47.03,100.68-64.72,92.52-45.68,144.69-71.46,150.86-74.54,12.35-6.18,27.37-1.17,33.54,11.18,6.17,12.35,1.17,27.37-11.18,33.54-7.9,3.95-86.52,42.78-151.09,74.66-32.47,16.03-63.16,35.76-91.22,58.64-42.32,34.51-89.52,62.2-140.29,82.31-50.77,20.11-104.13,32.25-158.6,36.09l-88.05,6.2c-.6,.04-1.19,.06-1.78,.06Z"/><path d="M44.35,805.38c-5.18,0-10.02-3.24-11.81-8.42-2.26-6.52,1.2-13.64,7.72-15.9l107.29-37.14c69.91-24.2,133.72-65.41,184.54-119.17,43.73-46.27,95.33-83.02,153.35-109.24l223.67-101.05c6.29-2.84,13.7-.05,16.54,6.25s.05,13.7-6.25,16.54l-223.67,101.05c-55.04,24.87-103.99,59.73-145.48,103.62-53.57,56.67-120.84,100.12-194.53,125.62l-107.29,37.14c-1.35,.47-2.73,.69-4.09,.69Z"/><path class="cls-1" d="M197.88,1129.73c-2.85-13.59-9.4-26.8-17.09-38.71-5.15-7.98-13.66-14.47-16.86-23.61-3.75-10.73-1.14-21.71,1.08-32.44,2.02-9.72,2.56-19.63,1.9-29.53-.49-7.38-4.81-14.25-4.84-21.64-.02-4.46,1.62-8.73,1.68-13.14,.05-3.65-2.62-7.87-2.21-11.04,.73-5.69,4.09-10.97,4.25-16.75,.15-5.23-2.96-9.87-1.98-15.27,1.21-6.65,2.15-14.23-.04-20.79-1.1-3.27-12.54-17.42-12.96-7.38-.19,4.36,2.35,8.29,4.12,12.28,1.77,3.99,2.66,9.12-.29,12.34-3.66-1.48-9.55-1.69-9.81,2.25-.07,1.08,.42,2.12,1,3.04,2.6,4.15,7.01,6.86,9.9,10.81,2.89,3.95,3.55,10.53-.69,12.99-1.34,.78-2.98,1.01-4.21,1.95-2.59,1.98-2.19,6.03-.91,9.03,1.29,3,3.24,5.96,2.95,9.21-3.28-.71-8.25-.04-7.92,3.3,.06,.63,.35,1.22,.63,1.79,3.84,7.82,7.67,15.63,11.51,23.45-2.21-4.49-5.93,1.58-6.14,4.09-.57,6.87,10.64,10.79,7.43,17.85-2.74,6.02-10.74,6.89-4.46,14.29,1.69,1.99,3.67,4.17,3.5,6.77-.2,3.13-3.08,6.65-6.49,5.24-1.9-.78-3.17-2.55-4.41-4.19-10.58-14.01-30.53-26.11-48.64-22.18-11.34,2.46-16.59,11.51-17.64,21.65-.02,.09-.05,.19-.07,.28-.9,3.55-.68,7.1,.42,10.41,.67,4.21,1.94,8.29,3.68,11.85,4.14,8.46,14.47,15.36,23.82,16.25,4.91,.46,20.85-5.72,17.05-12.74,5.89,10.85,13.77,20.45,21.35,30.12-2.48-3.13-12.57,5.05-14.44,6.73-12.73,11.42-8.35,25.8-.45,38.61,5.28,8.56,11.13,16.8,15.96,25.63,3.25,5.94,5.09,20.31,13.53,21.16,9.06,.9,11.09-7.75,13.47-14.48,2.86-8.09,11.48-10.13,17.11-15.86,8.26-8.41,8.86-21.05,6.22-33.62Zm-82.35-66.87c-.24,.83-.57,1.64-.98,2.4-1.31,2.46-3.42,4.49-6.04,5.41-9.47,3.31-18.1-7.4-19.83-15.64-.95-4.55-.32-9.65,2.67-13.21,7.99-9.52,18.84,1.01,22.77,8.71,1.91,3.74,2.59,8.25,1.4,12.33Zm46.09,74.86c-.46,1.75-1.27,3.4-2.5,4.81-3.89,4.44-11.02,4.83-15.99,2.11-5.99-3.28-10.13-10.22-9.87-17.09,.28-7.61,7.91-11.84,14.9-11.06,6.17,.69,10.73,5.31,12.8,10.97,1.16,3.17,1.55,6.9,.68,10.25Z"/><path d="M157.18,910.34c-8.28,0-15-6.72-15-15v-195.26c0-84.26,15.07-166.96,44.79-245.8,28.44-75.45,42.86-154.59,42.86-235.22V0c0-8.28,6.72-15,15-15S259.83-8.28,259.83,0V219.06c0,84.26-15.07,166.96-44.79,245.8-28.44,75.45-42.86,154.59-42.86,235.22v195.26c0,8.28-6.72,15-15,15Z"/><path class="cls-1" d="M165.44,1202.19c-.15-.15-.32-.3-.49-.44-1.31-1.05-3.11-1.37-4.71-.91-3.17,.9-4.31,4.18-4.22,7.18,.06,2.22,.02,4.75,1.45,6.6,1.18,1.52,3.18,2.31,5.06,1.76,2.05-.6,3.54-2.7,4.26-4.61,1.18-3.13,1.15-7.09-1.35-9.59Z"/><path d="M341.87,906.37c-4.07,0-7.89-2.5-9.38-6.54-1.91-5.18,.74-10.93,5.92-12.84l27.05-9.99c54.92-20.28,100.13-60.01,127.29-111.88,17.07-32.59,41.51-61.67,70.66-84.11,72.28-55.61,113.57-86.34,122.71-91.33,4.85-2.64,10.92-.86,13.57,3.99,2.64,4.85,.86,10.92-3.99,13.57-3.73,2.03-22.9,14.84-120.09,89.62-26.88,20.68-49.41,47.5-65.14,77.54-29.47,56.26-78.51,99.36-138.08,121.36l-27.05,9.99c-1.14,.42-2.31,.62-3.46,.62Z"/><path class="cls-1" d="M232.95,1000.03c-2.69,0-5.83,1.22-9.11,3.92-6.27,5.18-19.41,35.61-1.92,34.05,14.48-1.29,28.51-38.01,11.03-37.97Z"/><path class="cls-1" d="M310.06,986.64c-1.15,0-2.49,.24-4.02,.79-3.17,1.13-5.45,4.02-6.66,7.16-2.91,7.57-4.36,17.99-2.48,25.91,.62,2.59,1.76,5.31,4.1,6.57,4.14,2.22,9.2-1.51,11.1-5.81,2.42-5.48,10.24-34.54-2.05-34.63Z"/><path class="cls-1" d="M270.97,1055.74c-2.57-5.94-6.51-10.08-10.77-2.13-6.66,12.44-6.41,27.31-5.61,41.4,.18,3.21,.79,7.04,3.72,8.37,2.02,.91,4.49,.17,6.17-1.28s2.71-3.5,3.63-5.52c4.18-9.21,6.71-19.58,5.85-29.73-.21-2.52-1.31-7.2-3-11.1Z"/><path class="cls-1" d="M274.19,1169.85c-.18-1.08-.23-2.25,.03-3.64,.94-5.16,1.32-12.63-2.64-16.74-2.76-2.86-8.35-4.86-9.43,.53-.92,4.56-.03,10.92,.33,15.5,.15,1.96,.41,3.89,1.12,5.72,.65,1.7,3.14,4.1,3.16,5.86,.06,5.79,9.06,5.8,9,0-.03-2.87-1.14-4.81-1.55-7.22Z"/><path class="cls-1" d="M423.79,376.02c-3.04-1.41-6.45-.95-9.69-.95-3.56,0-6.87-1.15-10.37-1.57-1.74-.21-3.75,.23-4.68,1.72-.75,1.19-.63,2.74-.29,4.1,1.15,4.61,4.01,8.65,6.95,12.29,2.73,3.38,5.57,7.16,9.68,8.91,5.56,2.37,9.43-2.56,11.19-7.25,1.49-3.97,1.7-9.13,.59-13.21-.56-2.06-1.8-3.3-3.38-4.03Z"/><path class="cls-1" d="M447.64,651.5c-.98-5.02-3.27-11.11-9.47-10.49-2.29,.23-4.18,2.06-5.06,4.19-2.36,5.74-1.74,12.13-.78,18.1,1.15,7.17-.43,15.91,5.04,21.67,1.27,1.33,3.07,2.29,4.9,2.09,8-.87,8.61-9.63,8.17-16.01-.27-3.89-.97-7.74-1.61-11.58-.36-2.13-.62-5.07-1.19-7.97Z"/><path class="cls-1" d="M37.17,787.57c-3.66-3.72-7.71-5.88-11.15-3.04-4.72,3.89-7.55,9.82-7.53,15.95,.02,4.75,2.37,8.91,3.3,13.46,1.76,8.6-3.14,27.49,9.7,29.24,4.62,.63,8.49-2.19,10.47-6.21,1.43-2.9,.77-5.99,.95-9.07s1.37-5.4,3.31-7.84c4.33-5.44,3.72-12.33,.73-18.25-1.5-2.97-5.35-9.73-9.77-14.23Z"/><path class="cls-1" d="M40.74,868.23c-.19-2.26-.53-4.51-1.2-6.54-1.21-3.71-7.62-11.78-11.94-7.58-1.11,1.08-1.6,2.64-2.04,4.13-2.86,9.68-9.08,28.35,4.35,33.24,10.46,3.81,11.28-11.02,11.1-17.71-.05-1.77-.1-3.66-.26-5.55Z"/></svg>