<?xml version="1.0" encoding="UTF-8"?><svg id="Layer_1" xmlns="http://www.w3.org/2000/svg" viewBox="0 0 644.83 1250"><path d="M-10.17,612.38H233.04c53.85,0,97.65-43.81,97.65-97.65V-56.32c0-5.52-4.48-10-10-10s-10,4.48-10,10V514.73c0,42.82-34.83,77.65-77.65,77.65H-10.17c-5.52,0-10,4.48-10,10s4.48,10,10,10Z"/><path d="M122.61,268.55H-.17c-11.05,0-20,8.95-20,20s8.95,20,20,20H122.61c44.59,0,80.87-36.28,80.87-80.87v-71.59c35.88-6.03,63.3-37.28,63.3-74.85V-33.36c0-5.52-4.48-10-10-10s-10,4.48-10,10V81.25c0,26.49-18.53,48.73-43.3,54.46V-33.36c0-11.05-8.95-20-20-20s-20,8.95-20,20V137.16H-10.17c-5.52,0-10,4.48-10,10s4.48,10,10,10H163.48v70.52c0,22.54-18.33,40.87-40.87,40.87Z"/><path d="M446.96-43.36c-5.52,0-10,4.48-10,10V712.73c0,24.94-13.15,46.85-32.87,59.2V-56.32c0-11.05-8.95-20-20-20s-20,8.95-20,20V782.55H-10.17c-5.52,0-10,4.48-10,10s4.48,10,10,10H364.09v207.57c0,47.66-38.77,86.43-86.43,86.43H-.17c-11.05,0-20,8.95-20,20s8.95,20,20,20H277.65c69.72,0,126.43-56.72,126.43-126.43v-215.52c31.15-14.12,52.87-45.5,52.87-81.87V-33.36c0-5.52-4.48-10-10-10Z"/></svg>