<?xml version="1.0" encoding="UTF-8"?><svg id="Layer_1" xmlns="http://www.w3.org/2000/svg" viewBox="0 0 500 500"><path d="M371.95,167.26c-12.39-12.85-25.29-13.87-121.95-13.87s-109.56,1.01-121.95,13.87c-12.39,12.85-14.01,33.28-14.01,83.24s1.62,70.39,14.01,83.24c12.39,12.85,25.29,13.87,121.95,13.87s109.56-1.01,121.95-13.87c12.39-12.85,14.01-33.28,14.01-83.24s-1.62-70.39-14.01-83.24Zm-68.64,86.32l-79.96,46.17c-2.68,1.55-6.03-.39-6.03-3.48v-92.33c0-3.09,3.35-5.03,6.03-3.48l79.96,46.17c2.68,1.55,2.68,5.41,0,6.96Z"/></svg>