<?xml version="1.0" encoding="UTF-8"?><svg id="Layer_1" xmlns="http://www.w3.org/2000/svg" viewBox="0 0 500 500"><path d="M368.67,155.57c-28.41-22.86-73.36-26.74-75.28-26.88-2.98-.25-5.83,1.42-7.05,4.18-.11,.17-1.09,2.43-2.17,5.94,18.79,3.18,41.88,9.56,62.76,22.53,3.35,2.06,4.38,6.47,2.31,9.81-1.37,2.2-3.68,3.4-6.08,3.4-1.28,0-2.59-.36-3.76-1.09-35.91-22.28-80.75-23.39-89.39-23.39s-53.51,1.12-89.39,23.39c-3.35,2.09-7.75,1.06-9.81-2.29-2.09-3.37-1.06-7.75,2.29-9.84,20.88-12.94,43.97-19.35,62.76-22.5-1.09-3.54-2.06-5.77-2.15-5.97-1.25-2.76-4.07-4.49-7.08-4.18-1.92,.14-46.87,4.02-75.67,27.19-15.03,13.91-45.11,95.22-45.11,165.51,0,1.25,.33,2.45,.95,3.54,20.74,36.47,77.37,46.01,90.28,46.42h.22c2.29,0,4.43-1.09,5.77-2.93l13.05-17.96c-35.22-9.09-53.2-24.54-54.23-25.46-2.96-2.59-3.23-7.11-.61-10.07,2.59-2.96,7.11-3.23,10.07-.64,.42,.39,33.54,28.5,98.68,28.5s98.37-28.22,98.7-28.5c2.96-2.57,7.44-2.31,10.07,.67,2.59,2.96,2.31,7.44-.64,10.04-1.03,.92-19.02,16.37-54.23,25.46l13.05,17.96c1.34,1.84,3.49,2.93,5.77,2.93h.22c12.91-.42,69.54-9.95,90.28-46.42,.61-1.09,.95-2.29,.95-3.54,0-70.29-30.09-151.6-45.5-165.82Zm-165.06,137.27c-13.8,0-24.98-12.77-24.98-28.55s11.18-28.55,24.98-28.55,24.98,12.77,24.98,28.55-11.18,28.55-24.98,28.55Zm92.79,0c-13.8,0-24.98-12.77-24.98-28.55s11.18-28.55,24.98-28.55,24.98,12.77,24.98,28.55-11.18,28.55-24.98,28.55Z"/></svg>