<?xml version="1.0" encoding="UTF-8"?><svg id="Layer_1" xmlns="http://www.w3.org/2000/svg" viewBox="0 0 500 500"><path d="M363.83,228.48h-111.46v45.83h63.69c-2.8,14.74-11.19,27.22-23.78,35.61-10.54,7.1-23.99,11.4-39.91,11.4-30.77,0-56.91-20.76-66.27-48.74h-.14s.14-.11,.14-.11c-2.37-7.1-3.77-14.63-3.77-22.49s1.4-15.38,3.77-22.49c9.36-27.97,35.5-48.74,66.27-48.74,17.43,0,32.92,6.02,45.29,17.64l33.89-33.89c-20.55-19.15-47.23-30.88-79.18-30.88-46.26,0-86.18,26.57-105.65,65.3-8.07,15.92-12.7,33.89-12.7,53.04s4.63,37.12,12.7,53.04v.11c19.47,38.62,59.39,65.2,105.65,65.2,31.95,0,58.74-10.54,78.32-28.62,22.38-20.66,35.29-51,35.29-87.04,0-8.39-.75-16.46-2.15-24.21Z"/></svg>