<?xml version="1.0" encoding="UTF-8"?><svg id="Layer_1" xmlns="http://www.w3.org/2000/svg" viewBox="0 0 500 500"><path d="M104.37,341.49c26.42,16.98,57.84,26.85,91.59,26.85,109.91,0,170.02-91.05,170.02-170,0-2.59-.07-5.2-.16-7.74,11.67-8.42,21.79-18.95,29.8-30.94-10.74,4.77-22.25,7.97-34.34,9.42,12.35-7.4,21.84-19.11,26.29-33.05-11.53,6.83-24.36,11.8-37.95,14.48-10.9-11.62-26.42-18.86-43.61-18.86-33.01,0-59.77,26.74-59.77,59.75,0,4.68,.54,9.24,1.57,13.62-49.67-2.5-93.68-26.29-123.17-62.45-5.15,8.85-8.08,19.11-8.08,30.05,0,20.72,10.53,39.02,26.58,49.76-9.81-.32-19.02-3.02-27.08-7.49v.75c0,28.96,20.61,53.09,47.92,58.61-4.99,1.36-10.28,2.09-15.73,2.09-3.86,0-7.6-.36-11.26-1.09,7.63,23.72,29.69,41.04,55.82,41.52-20.43,16.03-46.19,25.56-74.21,25.56-4.84,0-9.58-.27-14.23-.84Z"/></svg>