<?xml version="1.0" encoding="UTF-8"?><svg id="Layer_1" xmlns="http://www.w3.org/2000/svg" viewBox="0 0 82.34 22.18"><path d="M22.27,8.91c.36,0,.68,.05,.98,.14,1.34,.43,2.11,1.73,1.89,3.12-.27,1.73-1.69,3-3.5,3-.36,0-.68-.05-.98-.14-1.34-.43-2.11-1.72-1.89-3.12,.27-1.72,1.69-3,3.51-3Zm-.1-3.8c-.83,0-1.78,.17-2.86,.62-2.46,1.02-3.64,3.14-4.14,4.68,0,0-1.6,4.71,2.01,7.3,0,0,3.34,2.49,7.11-.15l-.07,.41c-.04,.24,.13,.48,.38,.51,.02,0,.05,0,.07,0h3.12c.24,0,.44-.17,.48-.41l1.9-12.03c.04-.25-.13-.48-.37-.52-.02,0-.05,0-.07,0h-3.12c-.24,0-.44,.17-.48,.41l-.1,.65s-1.36-1.49-3.85-1.48h0ZM6.45,3.92h2.39c1.97,0,2.61,1.16,2.41,2.44-.2,1.29-1.2,2.23-3.1,2.23h-2.43l.74-4.68ZM3.26,0c-.24,0-.44,.17-.48,.41L0,17.98c-.04,.24,.13,.48,.38,.51,.02,0,.05,0,.07,0H3.73c.24,0,.44-.17,.48-.41l.81-5.16c.04-.24,.24-.41,.48-.41h2.99c3.49,0,6.45-2.55,6.99-6C16.03,3.04,13.31,0,9.46,0H3.26Z"/><path d="M67.17,8.91c.36,0,.69,.05,.98,.14,1.35,.43,2.11,1.73,1.89,3.12-.27,1.73-1.69,3-3.5,3-.36,0-.68-.05-.98-.14-1.34-.43-2.11-1.72-1.89-3.12,.27-1.72,1.69-3,3.51-3Zm-.1-3.8c-.83,0-1.78,.17-2.85,.62-2.46,1.02-3.64,3.14-4.14,4.68,0,0-1.6,4.71,2.01,7.3,0,0,3.34,2.49,7.1-.15l-.07,.41c-.04,.24,.13,.48,.38,.51,.02,0,.05,0,.07,0h3.12c.24,0,.44-.17,.48-.41l1.9-12.03c.04-.25-.13-.48-.37-.52-.02,0-.05,0-.07,0h-3.12c-.24,0-.44,.17-.48,.41l-.1,.65s-1.36-1.49-3.85-1.48h0Zm-15.72-1.19h2.39c1.97,0,2.61,1.16,2.41,2.44-.2,1.29-1.2,2.23-3.1,2.23h-2.43l.74-4.68Zm-3.19-3.92c-.24,0-.44,.17-.48,.41l-2.77,17.56c-.04,.24,.13,.48,.38,.51,.02,0,.05,0,.07,0h3.28c.24,0,.44-.17,.48-.41l.81-5.16c.04-.24,.24-.41,.48-.41h2.99c3.49,0,6.45-2.55,6.99-6,.55-3.48-2.17-6.51-6.02-6.52h-6.21Z"/><path d="M31.64,5.54c-.25,0-.42,.24-.35,.48l3.42,10.61-3.09,5c-.15,.24,.02,.56,.31,.56h3.65c.21,0,.41-.11,.52-.29l9.55-15.79c.15-.24-.03-.55-.31-.55h-3.65c-.22,0-.41,.11-.52,.3l-3.76,6.35-1.91-6.3c-.06-.2-.25-.35-.47-.35h-3.39Z"/><path d="M78.61,0c-.24,0-.44,.17-.48,.41l-2.77,17.56c-.04,.24,.13,.48,.37,.51,.02,0,.05,0,.07,0h3.29c.24,0,.44-.17,.48-.41L82.34,.52c.04-.25-.13-.48-.37-.51-.02,0-.05,0-.07,0h-3.28Z"/></svg>