<?xml version="1.0" encoding="UTF-8"?><svg id="Layer_1" xmlns="http://www.w3.org/2000/svg" viewBox="0 0 1440 62.09"><defs><style>.cls-1{fill:#08d6ba;}</style></defs><path class="cls-1" d="M0,62.09H1440V29.47c-7.26-.11-14.51,.01-21.74,.41-14.76,.81-29.85,4.26-44.47,.45-5.24-1.37-10.5-2.68-15.77-3.95-18.07-4.33-36.36-8.42-54.62-11.84-27.21-5.76-54.57-11.52-82.47-12.34l-.85-.02c-9.31-.24-18.63,0-27.91,.82-26.43,2.31-51.38,10.55-76.79,17.6-21.01,5.83-42.67,8.45-64.45,6.2-16.8-1.73-33.13-6.27-49.75-9.15-21-3.64-42.51-4.47-63.77-3.21-27.73,1.65-54.99,7.43-82.03,13.53-.28,.06-.55,.12-.83,.19-3.59,.81-7.18,1.63-10.77,2.46-19.77,4.54-41.28,9.35-61.59,3.98-19.32-5.11-36.73-15.73-56.28-20.08-15.01-3.34-30.5-2.18-45.36,1.38-16.58,3.98-32.22,11.42-49.23,13.7-23.62,3.16-41.18-9.38-62.9-15.71-18.49-5.39-37.97-7.46-57.16-5.58-26.94,2.64-52.97,10.49-79.36,16.07-11.65,2.46-23.42,4.5-35.3,5.47-21.06,1.71-42.46-.7-61.47-10.4-7.21-3.68-14.4-7.51-22.12-10.01-15.98-5.18-33.12-2.58-48.62,3.08-8.29,3.03-17.02,4.07-25.86,3.71-18.31-.74-35.81-7.05-53.98-8.89-20.04-2.03-41.03-.14-58.82,9.99-8.93,5.09-17.62,11.18-27.73,13.7-18.83,4.71-38.12-4.21-56.75-6.2-13.89-1.49-28.98-1-41.23,5.57v31.71Z"/></svg>