<?xml version="1.0" encoding="UTF-8"?>
<svg xmlns="http://www.w3.org/2000/svg" viewBox="0 0 726.75 1063.99">
    <defs>
        <style>.cls-1{fill:#f16542;}.cls-2{fill:#fff;}.cls-3{fill:none;stroke:#000;stroke-linecap:round;stroke-linejoin:round;stroke-width:7.76px;}.cls-4{fill:#08d7b9;}.cls-5{fill:#f3aa3b;}</style>
    </defs>
    <g id="Transition">
        <path id="_2_to_03" class="cls-3" d="M102.44,847.41c-53.69-18.22-73.85-51.5-58.6-100.68"/>
        <path id="_1_to_02" class="cls-3" d="M452.35,274.9c56.61,3.1,84.98,29.72,83.53,81.19"/>
    </g>
    <g id="Step_01">
        <g>
            <path d="M513.26,54.85h-58.51c-4.16,0-7.52,3.37-7.52,7.52v26.57c0,4.16,3.37,7.52,7.52,7.52h0c.33,0,.54,.36,.38,.65l-5.06,9.07c-.46,.82,.47,1.71,1.27,1.22l16.5-10.14c.85-.52,1.84-.8,2.84-.8h42.58c4.16,0,7.52-3.37,7.52-7.52v-26.57c0-4.16-3.37-7.52-7.52-7.52Z"/>
            <g>
                <path class="cls-2" d="M473.14,84.64c-.96,0-1.79-.21-2.49-.63-.7-.42-1.28-1.03-1.74-1.82-.46-.79-.81-1.78-1.04-2.96-.23-1.18-.34-2.54-.34-4.08,0-2.03,.2-3.73,.6-5.11,.4-1.38,1.02-2.43,1.85-3.14s1.88-1.07,3.16-1.07c.94,0,1.77,.2,2.48,.6,.71,.4,1.29,.99,1.76,1.77s.81,1.75,1.04,2.92c.23,1.17,.34,2.52,.34,4.04,0,2.08-.21,3.82-.62,5.21-.41,1.4-1.03,2.46-1.85,3.18s-1.87,1.09-3.14,1.09Zm0-2.54c.59,0,1.09-.25,1.48-.76,.39-.51,.69-1.28,.88-2.32,.19-1.04,.29-2.33,.29-3.87,0-1.13-.05-2.13-.16-2.97s-.27-1.55-.48-2.12c-.22-.57-.5-.99-.84-1.27s-.73-.42-1.17-.42c-.59,0-1.08,.25-1.47,.75s-.68,1.25-.88,2.25-.3,2.27-.3,3.79c0,1.17,.06,2.19,.17,3.05,.11,.86,.28,1.58,.5,2.16,.22,.58,.49,1.01,.81,1.3,.32,.29,.71,.43,1.17,.43Z"/>
                <path class="cls-2" d="M480.76,84.4v-18.34h2.91v18.34h-2.91Zm6.63,0l-3.85-8.83v-.16l3.67-9.36h2.96l-4.09,10.19-.08-2.49,4.64,10.64h-3.25Z"/>
                <path class="cls-2" d="M492.37,78.82l-.52-12.76h3.2l-.52,12.76h-2.15Zm-.34,5.58v-3.38h2.83v3.38h-2.83Z"/>
                <path class="cls-2" d="M497.61,78.82l-.52-12.76h3.2l-.52,12.76h-2.15Zm-.34,5.58v-3.38h2.83v3.38h-2.83Z"/>
            </g>
        </g>
        <g id="SignedContract">
            <path d="M237.28,221.89l3.02,3.13c1.33,1.38,3.21,1.83,5.03,1.21l1.99-.68c.87-.3,1.69-.1,2.33,.56l1.46,1.51c1.33,1.38,3.21,1.83,5.03,1.21l1.99-.68c.87-.3,1.69-.1,2.33,.56l1.46,1.51c1.33,1.38,3.21,1.83,5.03,1.21l1.99-.68c.87-.3,1.69-.1,2.33,.56l3.02,3.13c.25,.26,.59,.4,.93,.4s.65-.12,.9-.36c.51-.5,.53-1.31,.03-1.83l-3.02-3.13c-1.33-1.38-3.21-1.83-5.03-1.21l-1.99,.68c-.87,.3-1.69,.1-2.33-.56l-1.46-1.51c-1.33-1.38-3.21-1.83-5.03-1.21l-1.99,.68c-.87,.3-1.69,.1-2.33-.56l-1.46-1.51c-1.33-1.38-3.21-1.83-5.03-1.21l-1.99,.68c-.87,.3-1.69,.1-2.33-.56l-3.02-3.13c-.5-.52-1.31-.53-1.83-.03-.51,.5-.53,1.31-.03,1.83Z"/>
            <path d="M259.79,237.34c-1.33-1.38-3.21-1.83-5.03-1.21l-1.99,.68c-.87,.3-1.69,.1-2.33-.56l-1.46-1.51c-1.33-1.38-3.21-1.83-5.03-1.21l-1.99,.68c-.87,.3-1.69,.1-2.33-.56l-3.02-3.13c-.5-.52-1.32-.53-1.83-.03-.51,.5-.53,1.31-.03,1.83l3.02,3.13c1.33,1.38,3.21,1.83,5.03,1.21l1.99-.68c.87-.3,1.69-.1,2.33,.56l1.46,1.51c1.33,1.38,3.21,1.83,5.03,1.21l1.99-.68c.87-.3,1.69-.1,2.33,.56l3.02,3.13c.25,.26,.59,.4,.93,.4s.65-.12,.9-.36c.51-.5,.53-1.31,.03-1.83l-3.02-3.13Z"/>
            <path d="M242.81,214.59c1.33,1.38,3.21,1.83,5.03,1.21l1.99-.68c.87-.3,1.69-.1,2.33,.56l1.46,1.51c1.33,1.38,3.21,1.83,5.03,1.21l1.99-.68c.87-.3,1.69-.1,2.33,.56l1.46,1.51c1.33,1.38,3.21,1.83,5.03,1.21l1.99-.68c.87-.3,1.69-.1,2.33,.56l3.02,3.13c.25,.26,.59,.4,.93,.4s.65-.12,.9-.36c.51-.5,.53-1.31,.03-1.83l-3.02-3.13c-1.33-1.38-3.21-1.83-5.03-1.21l-1.99,.68c-.87,.3-1.69,.1-2.33-.56l-1.46-1.51c-1.33-1.38-3.21-1.83-5.03-1.21l-1.99,.68c-.87,.3-1.69,.1-2.33-.56l-1.46-1.51c-1.33-1.38-3.21-1.83-5.03-1.21l-1.99,.68c-.87,.3-1.69,.1-2.33-.56l-3.02-3.13c-.5-.52-1.32-.53-1.83-.03-.51,.5-.53,1.31-.03,1.83l3.02,3.13Z"/>
            <path d="M286.89,211.28l-49.6-11.94c-.36-.09-.74-.03-1.05,.17-.31,.19-.54,.5-.62,.86l-7.09,29.44c-4.08-3.24-9.57-4.61-15.01-3.23-.06,.02-.12,.04-.18,.05l-7.25-7.25c-1.51-1.51-3.97-1.52-5.48,0-1.51,1.51-1.51,3.97,0,5.48l5.62,5.62c-4.61,4.16-6.83,10.67-5.19,17.11,2.28,8.96,11.19,14.46,20.15,12.65l-2,8.29c-.09,.36-.03,.73,.17,1.05,.19,.31,.5,.54,.86,.62l49.6,11.94c.11,.03,.22,.04,.32,.04,.25,0,.5-.07,.72-.2,.31-.19,.54-.5,.62-.86l16.42-68.18c.18-.74-.28-1.49-1.02-1.67Zm-17.77,67.86l-46.9-11.29,2.05-8.5c2.49-1.01,4.65-2.54,6.37-4.45l4.83,4.83c.76,.76,1.75,1.14,2.74,1.14,.58,0,1.15-.14,1.68-.4l2.68,5.72c.18,.39,.53,.67,.95,.76,.1,.02,.2,.03,.3,.03,.32,0,.63-.11,.88-.32l15.2-12.53c.59-.49,.68-1.36,.19-1.95s-1.36-.68-1.95-.19l-13.82,11.39-2.44-5.2c.43-1.34,.13-2.87-.93-3.93l-6.46-6.46c.74-2.77,.81-5.75,.05-8.72-.69-2.7-1.99-5.07-3.69-7.03l7.14-29.66,46.9,11.29-15.77,65.48Z"/>
        </g>
        <g id="VideoDisk_Dazzle">
            <path d="M186.57,155.95c-.09,0-.19-.01-.28-.03l-10.42-2.3c-.7-.15-1.14-.84-.98-1.54,.15-.7,.85-1.13,1.54-.98l10.42,2.3c.7,.15,1.14,.84,.98,1.54-.13,.6-.67,1.01-1.26,1.01Z"/>
            <path d="M203.39,132.13c-.43,0-.84-.21-1.09-.6l-5.74-8.99c-.38-.6-.21-1.4,.39-1.78,.6-.39,1.4-.21,1.78,.39l5.74,8.99c.38,.6,.21,1.4-.39,1.78-.22,.14-.46,.2-.69,.2Z"/>
            <path d="M255.94,144c-.43,0-.84-.21-1.09-.6-.38-.6-.21-1.4,.39-1.78l8.99-5.74c.6-.38,1.4-.21,1.78,.39,.38,.6,.21,1.4-.39,1.78l-8.99,5.74c-.22,.14-.46,.2-.69,.2Z"/>
            <path d="M232.12,127.18c-.09,0-.19-.01-.28-.03-.7-.15-1.14-.84-.98-1.54l2.3-10.42c.15-.7,.85-1.14,1.54-.98,.7,.15,1.14,.84,.98,1.54l-2.3,10.42c-.13,.6-.67,1.01-1.26,1.01Z"/>
        </g>
        <g id="VideoDisk">
            <path d="M232.19,175.37h2.13c.84,0,1.53,.68,1.53,1.53v11.08h-5.18v-11.08c0-.84,.68-1.53,1.53-1.53Z" transform="translate(-37.65 63.26) rotate(-14.3)"/>
            <path id="VideoDisk-2" d="M250.43,175.76l-.93-3.66-2.68-10.5-5.78-22.67c-.45-1.76-2.24-2.82-4-2.37l-37.7,9.61c-1.76,.45-2.82,2.24-2.37,4l4.41,17.3c-1.43,0-2.88,.15-4.33,.52-9.25,2.36-14.84,11.77-12.48,21.02,2.36,9.25,11.77,14.84,21.02,12.48,5.1-1.3,9.07-4.75,11.23-9.12l3.79-.97-2.09-8.18c-.08-.92-.22-1.84-.45-2.76-.19-.75-.45-1.47-.73-2.18,0-.93,.63-1.78,1.57-2.02l15.35-3.91c1.12-.29,2.27,.39,2.55,1.52l3.21,12.58,1.12-.28,3.66-.93c.84-.22,1.57-.76,2.01-1.51l3.25-5.48c.44-.75,.57-1.64,.36-2.49Zm-25.01-6.05c-3.67,.94-7.41-1.28-8.35-4.96-.94-3.67,1.28-7.41,4.96-8.35s7.41,1.28,8.35,4.96c.94,3.67-1.28,7.41-4.96,8.35Z"/>
        </g>
        <g id="ClientDialogue">
            <path d="M254.84,54.85h-58.51c-4.16,0-7.52,3.37-7.52,7.52v26.57c0,4.16,3.37,7.52,7.52,7.52h0c.33,0,.54,.36,.38,.65l-5.06,9.07c-.46,.82,.47,1.71,1.27,1.22l16.5-10.14c.85-.52,1.84-.8,2.84-.8h42.58c4.16,0,7.52-3.37,7.52-7.52v-26.57c0-4.16-3.37-7.52-7.52-7.52Z"/>
            <path class="cls-2" d="M250.97,73.36c-.19,0-.38-.04-.57-.13l-4.78-2.33c-1.21-.59-2.6-.59-3.8,0l-2.31,1.13c-1.93,.94-4.14,.94-6.07,0l-2.31-1.13c-1.21-.59-2.6-.59-3.81,0l-2.31,1.13c-1.93,.94-4.14,.94-6.07,0l-2.31-1.13c-1.21-.59-2.6-.59-3.8,0l-2.31,1.13c-1.93,.94-4.14,.94-6.07,0l-4.78-2.33c-.64-.31-.91-1.09-.6-1.73,.31-.64,1.09-.91,1.73-.6l4.78,2.33c1.21,.59,2.6,.59,3.81,0l2.31-1.13c1.93-.94,4.14-.94,6.07,0l2.31,1.13c1.21,.59,2.6,.59,3.81,0l2.31-1.13c1.93-.94,4.14-.94,6.07,0l2.31,1.13c1.21,.59,2.6,.59,3.81,0l2.31-1.13c1.93-.94,4.14-.94,6.07,0l4.78,2.33c.64,.31,.91,1.09,.6,1.73-.22,.46-.68,.73-1.16,.73Z"/>
            <path class="cls-2" d="M236.47,84.09c-.19,0-.38-.04-.57-.13l-4.78-2.33c-1.21-.59-2.6-.59-3.81,0l-2.31,1.13c-1.93,.94-4.14,.94-6.07,0l-2.31-1.13c-1.21-.59-2.6-.59-3.81,0l-2.31,1.13c-1.93,.94-4.14,.94-6.07,0l-4.78-2.33c-.64-.31-.91-1.09-.6-1.73,.31-.64,1.09-.91,1.73-.6l4.78,2.33c1.21,.59,2.6,.59,3.81,0l2.31-1.13c1.93-.94,4.14-.94,6.07,0l2.31,1.13c1.21,.59,2.6,.59,3.81,0l2.31-1.13c1.93-.94,4.14-.94,6.07,0l4.78,2.33c.64,.31,.91,1.09,.6,1.73-.22,.46-.68,.73-1.16,.73Z"/>
        </g>
        <g id="InkText">
            <path d="M309.69,31.19c-1.33-.17-2.62-.6-3.85-1.3-1.23-.7-2.33-1.68-3.3-2.96s-1.74-2.85-2.3-4.74c-.56-1.89-.84-4.08-.84-6.58s.28-4.72,.84-6.6,1.33-3.46,2.3-4.74,2.07-2.28,3.3-2.99c1.23-.71,2.51-1.14,3.85-1.28V1.91c-1.02,.15-2.01,.53-2.96,1.14-.95,.62-1.79,1.48-2.53,2.6-.74,1.12-1.33,2.5-1.75,4.14-.43,1.65-.64,3.59-.64,5.82,0,1.77,.14,3.36,.42,4.77,.28,1.41,.67,2.64,1.17,3.71s1.08,1.96,1.75,2.69c.67,.73,1.39,1.3,2.16,1.72s1.56,.68,2.38,.78v1.91Z"/>
            <path d="M313.38,26.34V10.6h2.6v7.23h-.84c0-1.56,.24-2.9,.72-4.02,.48-1.12,1.18-1.97,2.11-2.56,.93-.59,2.07-.89,3.42-.89,1,0,1.87,.15,2.61,.44,.74,.29,1.34,.73,1.81,1.3,.47,.57,.82,1.27,1.05,2.08,.23,.81,.34,1.74,.34,2.78v9.38h-2.63v-8.41c0-1.04-.09-1.91-.28-2.6-.19-.69-.46-1.23-.81-1.63-.35-.4-.79-.68-1.3-.84-.51-.17-1.09-.25-1.74-.25-.81,0-1.55,.21-2.22,.64-.67,.43-1.2,1.12-1.61,2.08-.41,.96-.61,2.25-.61,3.88v7.13h-2.63Z"/>
            <path d="M338.81,26.59c-1.61,0-3.02-.34-4.24-1.03-1.22-.69-2.16-1.64-2.83-2.86-.67-1.22-1-2.62-1-4.21s.33-3.02,1-4.24c.67-1.22,1.61-2.17,2.83-2.86s2.63-1.03,4.24-1.03,3.04,.34,4.25,1.03c1.21,.69,2.15,1.64,2.82,2.86,.67,1.22,1,2.63,1,4.24s-.33,2.99-1,4.21c-.67,1.22-1.61,2.17-2.82,2.86-1.21,.69-2.63,1.03-4.25,1.03Zm0-2.19c1.15,0,2.12-.25,2.91-.77,.79-.51,1.4-1.21,1.81-2.1,.42-.89,.62-1.9,.62-3.05,0-.86-.11-1.65-.34-2.38-.23-.73-.57-1.36-1.03-1.89-.46-.53-1.02-.94-1.69-1.24-.67-.29-1.43-.44-2.28-.44-1.15,0-2.12,.26-2.91,.77-.79,.51-1.4,1.21-1.81,2.11s-.63,1.92-.63,3.07,.21,2.16,.63,3.05,1.02,1.58,1.81,2.1c.79,.51,1.76,.77,2.91,.77Z"/>
            <path d="M348.91,12.67v-2.06h11.26v2.06h-11.26Zm8.23,14.01c-.9,0-1.66-.08-2.3-.25-.64-.17-1.16-.46-1.56-.88-.41-.42-.7-.99-.89-1.72-.19-.73-.28-1.66-.28-2.78V4.63h2.63V21.08c0,.96,.09,1.68,.27,2.17,.18,.49,.47,.82,.88,.99,.41,.17,.95,.25,1.64,.25,.4,0,.85-.05,1.38-.16,.52-.1,.96-.3,1.31-.59v2.44c-.23,.12-.54,.22-.94,.3s-.79,.13-1.19,.16c-.4,.03-.71,.05-.94,.05Z"/>
            <path d="M375.72,27.12l-6.85-16.52h2.88l5.29,13.39-1.31,3.13Zm-3.66,6.01l3.69-8.98,.25-.59,5.29-12.95h2.85l-9.32,22.52h-2.75Z"/>
            <path d="M393.83,26.59c-1.61,0-3.02-.34-4.24-1.03-1.22-.69-2.16-1.64-2.83-2.86-.67-1.22-1-2.62-1-4.21s.33-3.02,1-4.24c.67-1.22,1.61-2.17,2.83-2.86s2.63-1.03,4.24-1.03,3.04,.34,4.25,1.03c1.21,.69,2.15,1.64,2.82,2.86,.67,1.22,1,2.63,1,4.24s-.33,2.99-1,4.21c-.67,1.22-1.61,2.17-2.82,2.86-1.21,.69-2.63,1.03-4.25,1.03Zm0-2.19c1.15,0,2.12-.25,2.91-.77,.79-.51,1.4-1.21,1.81-2.1s.63-1.9,.63-3.05c0-.86-.12-1.65-.34-2.38-.23-.73-.57-1.36-1.03-1.89-.46-.53-1.02-.94-1.69-1.24-.67-.29-1.43-.44-2.28-.44-1.15,0-2.12,.26-2.91,.77-.79,.51-1.4,1.21-1.81,2.11s-.62,1.92-.62,3.07,.21,2.16,.62,3.05,1.02,1.58,1.81,2.1c.79,.51,1.76,.77,2.91,.77Z"/>
            <path d="M411.18,26.59c-1,0-1.87-.15-2.61-.44s-1.34-.72-1.81-1.3c-.47-.57-.82-1.27-1.05-2.08-.23-.81-.34-1.74-.34-2.78V10.6h2.63v8.41c0,1.04,.09,1.91,.28,2.6,.19,.69,.46,1.23,.81,1.63,.35,.4,.79,.68,1.3,.84s1.09,.25,1.74,.25c.81,0,1.55-.21,2.22-.64,.67-.43,1.2-1.13,1.61-2.1,.41-.97,.61-2.26,.61-3.86v-7.13h2.63v15.73h-2.6v-7.23h.84c0,1.56-.24,2.9-.72,4.02-.48,1.12-1.18,1.97-2.11,2.57-.93,.59-2.07,.89-3.42,.89Z"/>
            <path d="M422.88,31.19v-1.91c1.02-.15,2.01-.53,2.96-1.14,.95-.62,1.79-1.48,2.53-2.6,.74-1.12,1.32-2.5,1.75-4.16,.43-1.66,.64-3.59,.64-5.8,0-1.77-.14-3.36-.42-4.77-.28-1.41-.67-2.64-1.17-3.71s-1.08-1.96-1.75-2.69c-.67-.73-1.39-1.3-2.16-1.72s-1.56-.68-2.38-.78V0c1.33,.15,2.62,.57,3.85,1.28,1.23,.71,2.33,1.7,3.3,2.97,.97,1.27,1.74,2.85,2.3,4.74s.84,4.08,.84,6.58-.28,4.72-.84,6.6-1.33,3.46-2.3,4.74-2.07,2.27-3.3,2.97c-1.23,.7-2.51,1.13-3.85,1.3Z"/>
        </g>
        <g id="Ink">
            <path d="M421.27,90.16c-2.24-1.94-5.37-2.09-7.78-.38l-40.8,28.91c-1.59,1.13-2.56,2.9-2.66,4.85-.09,1.95,.7,3.8,2.18,5.08l18.06,15.63c.71,.62,1.53,1.05,2.4,1.3,.94,.27,1.94,.31,2.94,.12,1.92-.37,3.53-1.59,4.41-3.33l22.74-44.54c1.35-2.64,.75-5.71-1.49-7.65Z"/>
            <path d="M333.94,114.68c.09,.03,.19,.05,.29,.07l23.25,5.47c1.9,.45,3.87,0,5.39-1.22,1.52-1.22,2.39-3.04,2.37-4.99l-.51-50.01c-.03-2.96-1.98-5.41-4.87-6.08-2.88-.68-5.72,.64-7.07,3.27l-22.74,44.54c-.89,1.74-.93,3.75-.11,5.52,.78,1.68,2.23,2.91,4,3.42Z"/>
            <path d="M353.22,143.26c-2.03-.58-4.14,.6-4.72,2.63s.6,4.14,2.63,4.72,4.14-.6,4.72-2.63c.58-2.03-.6-4.14-2.63-4.72Z"/>
            <path d="M323.95,133.62c-2.71-.77-5.53,.8-6.29,3.51-.77,2.71,.8,5.53,3.51,6.29,2.71,.77,5.53-.8,6.29-3.51s-.8-5.53-3.51-6.29Z"/>
            <path d="M376.41,148.74c0-.13,0-.25,0-.38-.2-6.24-3.92-11.57-9.7-13.91l-35.09-14.24h0c-4.07-1.65-8.66-1.5-12.62,.41-3.95,1.91-6.93,5.42-8.16,9.63l-10.66,36.34c-1.76,5.99,.11,12.21,4.87,16.24,1.76,1.49,3.76,2.55,5.85,3.14,3.57,1.01,7.43,.71,10.97-1l45.75-22.1c2.1-1.02,3.89-2.43,5.29-4.13,9.37,2.05,16.66,8.72,17.83,17.04,.83,5.89-1.99,12.9-7.27,18.07-.52-2.32-1.08-4.66-1.74-7.04-.68-2.44-2.48-4.33-4.94-5.18-2.87-1-6.36-.44-8.89,1.41-1.02,.75-1.84,1.77-2.38,2.96h0c-7.33,16.14-18.51,28.65-35.18,39.36-.94,.61-1.71,1.37-2.28,2.28-1.45,2.31-1.8,5.13-.96,7.74,.84,2.6,2.78,4.68,5.32,5.7l33.88,13.63c1.13,.45,2.3,.67,3.46,.67,2.93,0,5.77-1.39,7.46-3.85,5.15-7.52,8.13-17.09,8.86-28.46,.36-5.52,.17-11.32-.55-17.35,10.66-7.06,17.34-19.31,15.63-31.4-1.73-12.3-11.78-22.24-24.77-25.56Zm-33.58-6.3h0c-.41,3.74-2.26,7.09-5.19,9.44-2.93,2.35-6.61,3.42-10.34,3.01-.79-.09-1.57-.24-2.33-.45-2.79-.79-5.26-2.43-7.11-4.74-2.35-2.94-3.41-6.61-3-10.35,.41-3.74,2.26-7.09,5.19-9.44,2.93-2.35,6.61-3.42,10.34-3.01,7.71,.85,13.29,7.83,12.43,15.54Zm24.2,6.89c-.31,2.81-1.7,5.32-3.9,7.09-2.2,1.77-4.96,2.57-7.77,2.26-.6-.07-1.17-.18-1.73-.34-4.87-1.38-8.19-6.13-7.61-11.33,.64-5.79,5.88-9.99,11.67-9.34,2.81,.31,5.32,1.7,7.09,3.9,1.77,2.2,2.57,4.96,2.26,7.77Z"/>
        </g>
        <g id="ClientText">
            <path d="M92.72,31.19c-1.33-.17-2.62-.6-3.85-1.3-1.23-.7-2.33-1.68-3.3-2.96-.97-1.27-1.74-2.85-2.3-4.74-.56-1.89-.84-4.08-.84-6.58s.28-4.72,.84-6.6c.56-1.88,1.33-3.46,2.3-4.74,.97-1.28,2.07-2.28,3.3-2.99,1.23-.71,2.51-1.14,3.85-1.28V1.91c-1.02,.15-2.01,.53-2.96,1.14s-1.79,1.48-2.53,2.6c-.74,1.12-1.32,2.5-1.75,4.14-.43,1.65-.64,3.59-.64,5.82,0,1.77,.14,3.36,.42,4.77,.28,1.41,.67,2.64,1.17,3.71,.5,1.06,1.08,1.96,1.75,2.69,.67,.73,1.39,1.3,2.16,1.72s1.56,.68,2.38,.78v1.91Z"/>
            <path d="M101.01,27.12l-6.85-16.52h2.88l5.29,13.39-1.31,3.13Zm-3.66,6.01l3.69-8.98,.25-.59,5.29-12.95h2.85l-9.32,22.52h-2.75Z"/>
            <path d="M119.12,26.59c-1.61,0-3.02-.34-4.24-1.03-1.22-.69-2.16-1.64-2.83-2.86-.67-1.22-1-2.62-1-4.21s.33-3.02,1-4.24c.67-1.22,1.61-2.17,2.83-2.86,1.22-.69,2.63-1.03,4.24-1.03s3.04,.34,4.25,1.03,2.15,1.64,2.82,2.86,1,2.63,1,4.24-.33,2.99-1,4.21-1.61,2.17-2.82,2.86c-1.21,.69-2.63,1.03-4.25,1.03Zm0-2.19c1.15,0,2.12-.25,2.91-.77,.79-.51,1.4-1.21,1.81-2.1s.63-1.9,.63-3.05c0-.86-.12-1.65-.34-2.38-.23-.73-.57-1.36-1.03-1.89-.46-.53-1.02-.94-1.69-1.24-.67-.29-1.43-.44-2.28-.44-1.15,0-2.12,.26-2.91,.77-.79,.51-1.4,1.21-1.81,2.11-.42,.9-.63,1.92-.63,3.07s.21,2.16,.63,3.05c.42,.89,1.02,1.58,1.81,2.1,.79,.51,1.76,.77,2.91,.77Z"/>
            <path d="M136.48,26.59c-1,0-1.87-.15-2.61-.44s-1.34-.72-1.81-1.3c-.47-.57-.82-1.27-1.05-2.08s-.34-1.74-.34-2.78V10.6h2.63v8.41c0,1.04,.09,1.91,.28,2.6,.19,.69,.46,1.23,.81,1.63,.35,.4,.79,.68,1.3,.84,.51,.17,1.09,.25,1.74,.25,.81,0,1.55-.21,2.22-.64,.67-.43,1.2-1.13,1.61-2.1,.41-.97,.61-2.26,.61-3.86v-7.13h2.63v15.73h-2.6v-7.23h.84c0,1.56-.24,2.9-.72,4.02-.48,1.12-1.18,1.97-2.11,2.57-.93,.59-2.07,.89-3.43,.89Z"/>
            <path d="M148.18,31.19v-1.91c1.02-.15,2.01-.53,2.96-1.14s1.79-1.48,2.53-2.6c.74-1.12,1.32-2.5,1.75-4.16,.43-1.66,.64-3.59,.64-5.8,0-1.77-.14-3.36-.42-4.77-.28-1.41-.67-2.64-1.17-3.71-.5-1.06-1.08-1.96-1.75-2.69-.67-.73-1.39-1.3-2.16-1.72-.77-.42-1.56-.68-2.38-.78V0c1.33,.15,2.62,.57,3.85,1.28,1.23,.71,2.33,1.7,3.3,2.97,.97,1.27,1.74,2.85,2.3,4.74,.56,1.89,.84,4.08,.84,6.58s-.28,4.72-.84,6.6c-.56,1.88-1.33,3.46-2.3,4.74s-2.07,2.27-3.3,2.97c-1.23,.7-2.51,1.13-3.85,1.3Z"/>
        </g>
        <g id="Client">
            <path d="M115.32,114.63c-.54-3.19-3.31-5.46-6.43-5.46-.36,0-.72,.03-1.08,.09-1.71,.29-3.21,1.23-4.22,2.65-1.01,1.42-1.41,3.16-1.12,4.88,.29,1.72,1.23,3.23,2.65,4.25,1.12,.8,2.42,1.21,3.77,1.21,.36,0,.73-.03,1.09-.09,1.71-.29,3.21-1.23,4.22-2.65,1.01-1.42,1.41-3.16,1.12-4.88h0Z"/>
            <path d="M143.49,121.28c.31,0,.62-.03,.93-.08,3.03-.51,5.08-3.39,4.57-6.42-.25-1.47-1.05-2.75-2.26-3.61-.95-.68-2.07-1.03-3.22-1.03-.31,0-.62,.03-.94,.08-1.47,.25-2.75,1.05-3.61,2.26-.86,1.21-1.2,2.69-.96,4.16,.46,2.72,2.82,4.65,5.49,4.65Z"/>
            <path d="M176.76,222.71l-42.95-93.15c1.56,.38,3.17,.57,4.8,.57,1.15,0,2.31-.1,3.46-.29,11.22-1.89,18.81-12.55,16.92-23.77-.81-4.84-3.34-9.24-7.1-12.39-3.72-3.11-8.42-4.83-13.24-4.83-1.14,0-2.3,.1-3.43,.29-5.27,.89-9.89,3.73-13.08,8-1.3-2.09-2.9-3.99-4.82-5.59-4.19-3.52-9.5-5.45-14.94-5.45h0c-1.29,0-2.59,.11-3.87,.32-6.13,1.03-11.5,4.39-15.1,9.47-3.6,5.07-5.01,11.23-3.98,17.37,1.03,6.13,4.39,11.5,9.45,15.11,3.97,2.83,8.63,4.33,13.47,4.33,1.14,0,2.29-.1,3.43-.27l-41.63,90.29c-5.11,11.08,1.04,24.12,12.86,27.14,23.59,6.03,63.3,6.03,86.9,0,11.82-3.02,17.97-16.06,12.86-27.14Zm-58.27-105.16c-.09,.19-.19,.38-.29,.56-.1,.18-.2,.35-.3,.53-.25,.42-.51,.84-.79,1.24-2.8,3.94-6.96,6.55-11.72,7.35-1.01,.17-2.03,.25-3.03,.25h0c-.22,0-.43-.02-.65-.03-.25,0-.5,0-.74-.03-.11,0-.21-.03-.32-.04-.53-.05-1.06-.13-1.58-.23-.56-.1-1.11-.23-1.65-.39-.3-.09-.59-.18-.89-.28-.56-.19-1.11-.42-1.65-.67-1.03-.47-2.03-1.04-2.97-1.71-.49-.35-.96-.72-1.41-1.11-2.24-1.96-3.95-4.41-4.99-7.17-.42-1.1-.73-2.26-.93-3.45s-.28-2.38-.25-3.56c.03-1.18,.18-2.35,.45-3.49,.52-2.28,1.5-4.47,2.89-6.43,2.8-3.94,6.96-6.55,11.72-7.35,.57-.1,1.13-.16,1.69-.2,.18-.01,.36-.01,.53-.02,.26-.01,.52-.03,.78-.03,.13,0,.26,.01,.39,.02,.18,0,.35,.01,.53,.02,.4,.02,.79,.06,1.18,.1,.15,.02,.3,.03,.45,.05,.52,.08,1.04,.17,1.55,.29,.1,.02,.21,.06,.31,.08,.4,.1,.8,.22,1.2,.35,.19,.06,.37,.13,.56,.2,.31,.11,.61,.24,.91,.37,.19,.08,.39,.17,.58,.26,.31,.15,.62,.31,.93,.48,.29,.16,.58,.33,.86,.5,.26,.16,.52,.32,.77,.5,.23,.16,.45,.33,.67,.5,.17,.13,.35,.27,.52,.41,.24,.19,.47,.39,.69,.59,.13,.11,.25,.23,.37,.35,.82,.78,1.56,1.65,2.23,2.58,.07,.09,.13,.19,.2,.28,.21,.31,.41,.63,.61,.95,.05,.08,.1,.17,.15,.26,1.03,1.8,1.78,3.8,2.15,5.96,.65,3.86,.03,7.73-1.71,11.16Zm6.2-1.5c1.01-3.37,1.24-6.95,.64-10.53-.15-.89-.37-1.77-.62-2.63,.39-.81,.84-1.6,1.37-2.35,2.39-3.36,5.95-5.58,10.01-6.27,.86-.15,1.72-.22,2.57-.22,7.39,0,13.94,5.34,15.21,12.87h0c1.41,8.39-4.27,16.37-12.66,17.78-.87,.15-1.73,.22-2.59,.22-3.18,0-6.27-.98-8.92-2.86-2.2-1.56-3.9-3.63-5.01-6.01Z"/>
        </g>
        <path id="N_01" class="cls-4" d="M711.54,211.41c-4.26-1.76-9.16-3.16-11.81-7.05-5.31-7.77,6.13-23.72,11.51-28.78,3.25-3.05,3.58-7.93,1.93-11.9-3.92-9.41-10.35-6.22-17.91-4.77-6.79,1.3-5.31-4.8-10.51-7.74-4.12-2.33-9.37-.11-13.22-2.73-7.3-4.98,2.43-15.4,1.34-21.83-1.07-6.32-8.26-12.2-14.79-10.47-6.97,1.85-8.18,11.31-8.28,17.34-.2,12.39-24.04,20.48-32.58,11.69-3.44-3.54-2.62-10.03-4.96-14.21-3.63-6.47-11.1-11.45-18.5-8.34-10.04,4.21-9.63,17.94-3.85,25.36,3.72,4.77,11.02,6.57,13.52,12.3,4.19,9.61-10.01,5.44-13.36,10.61-3.47,5.34,1.31,12.02,1.6,17.63,.59,11.52-18.91,1.6-24.29,3.54-6.7,2.41-9.96,8.73-5.03,14.69,4.87,5.88,15.44,4.35,21.65,8.6,5.54,3.79,9.43,9.68,13.62,14.8,6.04,7.38-5.85,18.36,2.3,23.82,3.72,2.49,8.66,1.15,12.58-.17,4.12-1.39,8.62-3.43,13.07-3.09,7.57,.58,13.99,6,16.03,13.25,2.54,9.03-1.76,23.24,11.6,24.73,8.27,.92,14.87-3.61,15.48-12.12,.71-9.98-7.93-15.34-9.82-24.39-.28-1.32-.45-2.73-.02-4.01,2.13-6.4,12.8-1.31,15.91,1.23,4.58,3.75,7.58,11.45,14.82,9.05,6.88-2.28,6.86-12.19,3.19-17.1-3.59-4.81-8.81-16.48,2.03-16.7,7.2-.15,11.05,10.95,18.91,6.99,8.99-4.54,5.93-16.86-2.15-20.2Zm-55.92,13.45h-14.42v-38.48l-11.36,5.98v-12.55l13.9-7.25h11.88v52.31Zm32.22,22.03s.06-.05,.09-.07c.34-.1,.35,1.04-.09,.07Z"/>
    </g>
    <g id="Step_02">
        <path id="Shape_02" class="cls-5" d="M517.87,564.55c-26.56-3.88-48.44,12.77-68.35,27.9-10.56,8.02-21.17,16.31-33.22,22.02-14,6.64-29.58,8.59-44.59,11.79-18.74,4-35.04,15.76-51.22,25.97-17.71,11.18-39.06,15.91-58.92,22.76-10.22,3.53-20.33,7.65-29.38,13.65-9.32,6.18-16.02,15.62-25.89,20.97-13.77,7.48-28.77,12.17-43.79,16.39-10.51,2.95-31.93,4.48-38.64,14.09-5.84,8.36-1.82,18.53,5.22,24.69,18.35,16.06,47.68,1.8,68.7,1.46,14.17-.23,27.85,4.14,41.93,4.81,13.53,.65,25.46-3.85,38.13-7.92,15.78-5.08,32.19-1.42,48.09,.95,14.38,2.14,25.12,1.14,38.99-1.6,21.06-4.16,39.03,9,59.33,11.35,9.19,1.07,19.32-.75,27.69-4.77,7.91-3.8,13.99-11.43,22.98-12.91,8.15-1.34,16.12,1.84,24.34,.15,11.33-2.33,19.36-14.9,15.95-26.11-4.22-13.91,1.95-27.24,1.98-41.12,.04-15.83-1.91-31.57-1.29-47.42,.8-20.32,6.83-38.46,14.1-57.27,2.88-7.45,2.18-15.6-6.64-18.52-1.82-.6-3.65-1.03-5.51-1.3Z"/>
        <g id="ClientDialogue-2">
            <path d="M310.98,541.99H182.4c-5.49,0-9.94,4.45-9.94,9.94v45.83c0,5.49,4.45,9.94,9.94,9.94h0c.59,0,.96,.64,.67,1.15l-8.01,14.22c-.51,.9,.54,1.87,1.4,1.29l21.64-14.54c2.06-1.39,4.49-2.13,6.98-2.13h105.89c5.49,0,9.94-4.45,9.94-9.94v-45.83c0-5.49-4.45-9.94-9.94-9.94Z"/>
            <g>
                <path class="cls-2" d="M306.22,560.47c-.19,0-.38-.04-.57-.13l-5.24-2.56c-1.35-.66-2.91-.66-4.26,0l-2.55,1.24c-2.07,1.01-4.45,1.01-6.52,0l-2.55-1.24c-1.35-.66-2.91-.66-4.26,0l-2.55,1.24c-2.07,1.01-4.45,1.01-6.52,0l-2.55-1.24c-1.35-.66-2.91-.66-4.26,0l-2.55,1.24c-2.07,1.01-4.45,1.01-6.52,0l-2.55-1.24c-1.35-.66-2.91-.66-4.26,0l-2.55,1.24c-2.07,1.01-4.45,1.01-6.52,0l-2.55-1.24c-1.35-.66-2.91-.66-4.26,0l-2.55,1.24c-2.07,1.01-4.45,1.01-6.52,0l-2.55-1.24c-1.35-.66-2.91-.66-4.26,0l-2.55,1.24c-2.07,1.01-4.45,1.01-6.52,0l-2.55-1.24c-1.35-.66-2.91-.66-4.26,0l-2.55,1.24c-2.07,1.01-4.45,1.01-6.52,0l-5.24-2.56c-.64-.31-.91-1.09-.6-1.73s1.09-.91,1.73-.6l5.24,2.56c1.35,.66,2.91,.66,4.26,0l2.55-1.24c2.07-1.01,4.45-1.01,6.52,0l2.55,1.24c1.35,.66,2.9,.66,4.26,0l2.55-1.24c2.07-1.01,4.45-1.01,6.52,0l2.54,1.24c1.35,.66,2.91,.66,4.26,0l2.55-1.24c2.07-1.01,4.45-1.01,6.52,0l2.55,1.24c1.35,.66,2.9,.66,4.26,0l2.55-1.24c2.07-1.01,4.45-1.01,6.52,0l2.55,1.24c1.35,.66,2.9,.66,4.26,0l2.54-1.24c2.07-1.01,4.45-1.01,6.53,0l2.54,1.24c1.35,.66,2.91,.66,4.26,0l2.55-1.24c2.07-1.01,4.45-1.01,6.52,0l2.55,1.24c1.35,.66,2.9,.66,4.26,0l2.55-1.24c2.07-1.01,4.45-1.01,6.52,0l5.24,2.56c.64,.31,.91,1.09,.6,1.73-.22,.46-.68,.73-1.16,.73Z"/>
                <path class="cls-2" d="M306.22,572.2c-.19,0-.38-.04-.57-.13l-5.24-2.56c-1.35-.66-2.91-.66-4.26,0l-2.55,1.24c-2.07,1.01-4.45,1.01-6.52,0l-2.55-1.24c-1.35-.66-2.9-.66-4.26,0l-2.55,1.24c-2.07,1.01-4.45,1.01-6.52,0l-2.54-1.24c-1.35-.66-2.91-.66-4.26,0l-2.54,1.24c-2.07,1.01-4.45,1.01-6.52,0l-2.55-1.24c-1.35-.66-2.91-.66-4.26,0l-2.55,1.24c-2.07,1.01-4.45,1.01-6.52,0l-2.55-1.24c-1.35-.66-2.9-.66-4.26,0l-2.55,1.24c-2.07,1.01-4.45,1.01-6.52,0l-2.54-1.24c-1.35-.66-2.91-.66-4.26,0l-2.55,1.24c-2.07,1.01-4.45,1.01-6.52,0l-2.55-1.24c-1.35-.66-2.9-.66-4.26,0l-2.55,1.24c-2.07,1.01-4.45,1.01-6.52,0l-5.24-2.56c-.64-.31-.91-1.09-.6-1.73,.31-.64,1.09-.91,1.73-.6l5.24,2.56c1.35,.66,2.9,.66,4.26,0l2.55-1.24c2.07-1.01,4.45-1.01,6.52,0l2.55,1.24c1.35,.66,2.9,.66,4.26,0l2.55-1.24c2.07-1.01,4.45-1.01,6.52,0l2.55,1.24c1.35,.66,2.91,.66,4.26,0l2.55-1.24c2.07-1.01,4.45-1.01,6.52,0l2.55,1.24c1.35,.66,2.91,.66,4.26,0l2.55-1.24c2.07-1.01,4.45-1.01,6.52,0l2.55,1.24c1.35,.66,2.9,.66,4.26,0l2.55-1.24c2.07-1.01,4.45-1.01,6.52,0l2.55,1.24c1.35,.66,2.91,.66,4.26,0l2.55-1.24c2.07-1.01,4.45-1.01,6.52,0l2.55,1.24c1.35,.66,2.9,.66,4.26,0l2.55-1.24c2.07-1.01,4.45-1.01,6.52,0l5.24,2.56c.64,.31,.91,1.09,.6,1.73-.22,.46-.68,.73-1.16,.73Z"/>
                <path class="cls-2" d="M306.22,583.94c-.19,0-.38-.04-.57-.13l-5.24-2.56c-1.35-.66-2.91-.66-4.26,0l-2.55,1.24c-2.07,1.01-4.45,1.01-6.52,0l-2.55-1.24c-1.35-.66-2.91-.66-4.26,0l-2.55,1.24c-2.07,1.01-4.45,1.01-6.52,0l-2.55-1.24c-1.35-.66-2.91-.66-4.26,0l-2.55,1.24c-2.07,1.01-4.45,1.01-6.52,0l-2.55-1.24c-1.35-.66-2.91-.66-4.26,0l-2.55,1.24c-2.07,1.01-4.45,1.01-6.52,0l-2.55-1.24c-1.35-.66-2.91-.66-4.26,0l-2.55,1.24c-2.07,1.01-4.45,1.01-6.52,0l-2.55-1.24c-1.35-.66-2.91-.66-4.26,0l-2.55,1.24c-2.07,1.01-4.45,1.01-6.52,0l-2.55-1.24c-1.35-.66-2.91-.66-4.26,0l-2.55,1.24c-2.07,1.01-4.45,1.01-6.52,0l-5.24-2.56c-.64-.31-.91-1.09-.6-1.73s1.09-.91,1.73-.6l5.24,2.56c1.35,.66,2.91,.66,4.26,0l2.55-1.24c2.07-1.01,4.45-1.01,6.52,0l2.55,1.24c1.35,.66,2.9,.66,4.26,0l2.55-1.24c2.07-1.01,4.45-1.01,6.52,0l2.54,1.24c1.35,.66,2.91,.66,4.26,0l2.55-1.24c2.07-1.01,4.45-1.01,6.52,0l2.55,1.24c1.35,.66,2.9,.66,4.26,0l2.55-1.24c2.07-1.01,4.45-1.01,6.52,0l2.55,1.24c1.35,.66,2.9,.66,4.26,0l2.54-1.24c2.07-1.01,4.45-1.01,6.53,0l2.54,1.24c1.35,.66,2.91,.66,4.26,0l2.55-1.24c2.07-1.01,4.45-1.01,6.52,0l2.55,1.24c1.35,.66,2.9,.66,4.26,0l2.55-1.24c2.07-1.01,4.45-1.01,6.52,0l5.24,2.56c.64,.31,.91,1.09,.6,1.73-.22,.46-.68,.73-1.16,.73Z"/>
                <path class="cls-2" d="M258.6,595.68c-.19,0-.38-.04-.57-.13l-5.24-2.56c-1.35-.66-2.91-.66-4.26,0l-2.55,1.24c-2.07,1.01-4.45,1.01-6.52,0l-2.55-1.24c-1.35-.66-2.91-.66-4.26,0l-2.54,1.24c-2.07,1.01-4.45,1.01-6.52,0l-2.55-1.24c-1.35-.66-2.91-.66-4.26,0l-2.55,1.24c-2.07,1.01-4.45,1.01-6.52,0l-2.55-1.24c-1.35-.66-2.9-.66-4.26,0l-2.54,1.24c-2.07,1.01-4.45,1.01-6.52,0l-5.24-2.56c-.64-.31-.91-1.09-.6-1.73s1.09-.91,1.73-.6l5.24,2.56c1.35,.66,2.91,.66,4.26,0l2.55-1.24c2.07-1.01,4.45-1.01,6.52,0l2.55,1.24c1.35,.66,2.9,.66,4.26,0l2.54-1.24c2.07-1.01,4.45-1.01,6.52,0l2.55,1.24c1.35,.66,2.9,.66,4.26,0l2.55-1.24c2.07-1.01,4.45-1.01,6.52,0l2.55,1.24c1.35,.66,2.9,.66,4.26,0l2.54-1.24c2.07-1.01,4.45-1.01,6.52,0l5.24,2.56c.64,.31,.91,1.09,.6,1.73-.22,.46-.68,.73-1.16,.73Z"/>
            </g>
        </g>
        <path id="ClientBrow" d="M137.74,561.53c-.5,0-1.01-.14-1.45-.45-10.04-6.84-19.8-6.84-29.84,0-1.18,.8-2.79,.5-3.59-.68-.8-1.18-.5-2.79,.68-3.59,11.83-8.06,23.83-8.06,35.66,0,1.18,.8,1.49,2.41,.68,3.59-.5,.73-1.31,1.13-2.14,1.13Z"/>
        <g id="Client-2">
            <path d="M94.38,604.66c.36-.04,.72-.1,1.07-.2,1.67-.46,3.06-1.55,3.91-3.06,.85-1.51,1.07-3.27,.61-4.95h0c-.86-3.1-3.83-5.06-6.93-4.74-.35,.04-.71,.1-1.06,.2-1.67,.46-3.06,1.55-3.91,3.06-.85,1.51-1.07,3.27-.61,4.95,.46,1.68,1.55,3.07,3.06,3.93,1.19,.67,2.52,.95,3.85,.81"/>
            <path d="M128.59,600.14c.3-.03,.61-.09,.91-.17,2.95-.82,4.68-3.88,3.87-6.83-.4-1.43-1.32-2.62-2.61-3.35-1.01-.57-2.16-.81-3.29-.69-.31,.03-.61,.09-.92,.17-1.43,.4-2.62,1.32-3.35,2.61-.73,1.29-.91,2.79-.52,4.21,.73,2.64,3.27,4.31,5.92,4.04"/>
            <path d="M140.46,656.95l-26.29-44.31c2.66,.85,5.46,1.15,8.28,.86,1.14-.12,2.28-.33,3.39-.64,10.91-3.02,17.34-14.36,14.31-25.28-1.3-4.7-4.25-8.8-8.3-11.53-4-2.7-8.83-3.91-13.61-3.42-1.13,.12-2.27,.33-3.37,.64-5.13,1.42-9.41,4.71-12.13,9.26-1.5-1.94-3.29-3.65-5.34-5.04-1.3-.88-2.68-1.6-4.11-2.19,.31-.04,.63-.07,.94-.11,1.42-.18,2.42-1.47,2.25-2.88-.18-1.42-1.47-2.42-2.88-2.25-16.23,2.01-26.16,.47-31.26-4.87-.99-1.03-2.62-1.07-3.65-.08-1.03,.99-1.07,2.62-.08,3.66,4.04,4.23,9.75,6.21,15.98,6.97-4.32,2.02-7.91,5.31-10.3,9.54-3.04,5.39-3.81,11.64-2.16,17.6,1.65,5.96,5.52,10.93,10.9,13.98,4.22,2.4,8.99,3.4,13.78,2.9,1.28-.13,2.57-.38,3.82-.72,.9-.25,1.76-.56,2.61-.91h0l-15.46,45.34c-2.2,6.46,1.97,13.37,8.73,14.36,13.48,1.99,35.58-.3,48.37-5.02,6.4-2.36,9.07-9.98,5.59-15.85Zm-39.23-53.85c-.07,.2-.15,.4-.23,.6-.08,.18-.16,.37-.25,.55-.2,.44-.42,.88-.66,1.31-2.37,4.19-6.22,7.2-10.85,8.48-.98,.27-1.98,.46-2.98,.56h0c-1.27,.13-2.54,.12-3.79-.02-.11-.01-.23-.02-.34-.03-1.14-.15-2.27-.42-3.37-.79-.33-.11-.66-.23-.99-.36-.75-.3-1.49-.64-2.2-1.05-1.04-.59-2.02-1.28-2.91-2.05-.89-.77-1.7-1.62-2.41-2.54-1.43-1.84-2.51-3.96-3.15-6.28-.32-1.17-.53-2.36-.61-3.55-.13-1.74,0-3.49,.38-5.18,.38-1.71,1.02-3.37,1.91-4.94,2.37-4.19,6.22-7.2,10.85-8.48,.55-.15,1.1-.27,1.66-.37,.18-.03,.35-.05,.53-.08,.26-.04,.51-.09,.77-.11,.13-.01,.26-.01,.39-.03,.17-.01,.35-.02,.52-.03,.4-.02,.79-.03,1.18-.02,.15,0,.3,0,.45,0,.53,.02,1.05,.06,1.57,.13,.11,.01,.21,.04,.32,.05,.41,.06,.82,.13,1.22,.22,.19,.04,.38,.09,.57,.14,.32,.08,.63,.17,.94,.27,.2,.06,.4,.12,.6,.19,.33,.12,.65,.24,.97,.38,.31,.13,.61,.27,.91,.41,.27,.13,.55,.26,.81,.41,.24,.13,.48,.28,.72,.42,.19,.11,.37,.23,.55,.35,.25,.17,.5,.34,.75,.52,.14,.1,.27,.21,.4,.31,.89,.69,1.72,1.47,2.47,2.33,.08,.09,.15,.17,.22,.26,.24,.29,.47,.58,.7,.88,.06,.08,.11,.16,.17,.24,1.2,1.68,2.16,3.58,2.74,5.68,1.04,3.75,.83,7.65-.54,11.22Zm5.97-2.14c.65-3.43,.53-6.99-.43-10.46-.24-.87-.55-1.71-.89-2.54,.3-.85,.66-1.67,1.11-2.47,2.02-3.57,5.31-6.14,9.27-7.23,.84-.23,1.68-.39,2.52-.48,7.32-.76,14.35,3.86,16.38,11.18h0c2.26,8.16-2.54,16.64-10.7,18.9-.84,.23-1.69,.39-2.55,.48-3.15,.33-6.31-.33-9.12-1.92-2.34-1.33-4.24-3.21-5.59-5.46Z"/>
        </g>
        <g id="InkDialogue">
            <path d="M274.93,438.07h128.58c5.49,0,9.94,4.45,9.94,9.94v45.83c0,5.49-4.45,9.94-9.94,9.94h0c-.59,0-.96,.64-.67,1.15l8.01,14.22c.51,.9-.54,1.87-1.4,1.29l-21.64-14.54c-2.06-1.39-4.49-2.13-6.98-2.13h-105.89c-5.49,0-9.94-4.45-9.94-9.94v-45.83c0-5.49,4.45-9.94,9.94-9.94Z"/>
            <g>
                <path class="cls-2" d="M348.18,470.84v-16.96c0-2.63,2.85-4.27,5.12-2.96l14.69,8.48,14.69,8.48c2.28,1.31,2.28,4.6,0,5.91l-14.69,8.48-14.69,8.48c-2.28,1.31-5.12-.33-5.12-2.96v-16.96Z"/>
                <g>
                    <path class="cls-2" d="M298.09,486.28l-5.1-30.83h2.2l4.49,28.68h-.35l5.45-28.72h1.89l5.41,28.76h-.4l4.53-28.72h2.24l-5.28,30.83h-2.55l-5.28-26.7h.57l-5.15,26.7h-2.68Z"/>
                    <path class="cls-2" d="M321.58,486.24v-30.79h2.11v30.79h-2.11Z"/>
                    <path class="cls-2" d="M328.75,486.24v-30.79h4.71c1.58,0,2.87,.36,3.87,1.08,1,.72,1.72,1.8,2.18,3.24,.45,1.44,.68,3.2,.68,5.28s-.24,3.85-.73,5.3c-.48,1.45-1.25,2.55-2.31,3.3-1.06,.75-2.42,1.12-4.09,1.12h-2.82v-1.85h2.64c1.29,0,2.3-.29,3.04-.88,.73-.59,1.27-1.47,1.6-2.64,.34-1.17,.5-2.62,.5-4.36s-.15-3.17-.46-4.31c-.31-1.15-.8-1.99-1.47-2.53-.68-.54-1.6-.81-2.77-.81h-3.3l.84-.79v29.64h-2.11Z"/>
                </g>
            </g>
        </g>
        <g id="Ink-2">
            <path d="M533.56,452.36c-2.12-1.5-4.82-1.24-6.73,.65l-32.23,31.98c-1.26,1.25-1.92,3.01-1.8,4.82,.11,1.82,.98,3.43,2.37,4.42l17.08,12.13c.67,.48,1.42,.78,2.2,.9,.83,.13,1.7,.04,2.54-.27,1.61-.59,2.87-1.92,3.47-3.64l15.15-44.11c.9-2.61,.08-5.38-2.04-6.88Z"/>
            <path d="M487.74,481.61l-5.39-46.18c-.32-2.73-2.24-4.74-4.79-5-2.55-.26-4.86,1.33-5.75,3.94l-15.15,44.11c-.59,1.72-.42,3.59,.46,5.12,.84,1.46,2.2,2.41,3.78,2.65,.08,.01,.17,.02,.25,.03l20.54,2.07c1.68,.17,3.32-.49,4.52-1.82,1.19-1.32,1.75-3.12,1.54-4.92Z"/>
            <g>
                <ellipse cx="480.27" cy="514.47" rx="3.57" ry="3.3" transform="translate(-100.22 912.43) rotate(-81.4)"/>
                <g>
                    <ellipse cx="454.55" cy="511.65" rx="4.77" ry="4.4" transform="translate(-119.31 884.6) rotate(-81.4)"/>
                    <path d="M500.76,511.95c-.79-5.74-4.52-10.19-9.72-11.62l-31.59-8.66h0c-3.66-1-7.6-.27-10.81,2-3.21,2.27-5.42,5.9-6.06,9.95l-5.57,34.98c-.92,5.76,1.3,11.28,5.8,14.4,1.66,1.15,3.48,1.87,5.35,2.15,3.17,.48,6.46-.3,9.34-2.34l37.16-26.32c4.56-3.23,6.91-8.8,6.11-14.55Zm-33,8.24c-2.29,2.55-5.34,4.01-8.6,4.11-.69,.02-1.38-.02-2.05-.12-2.48-.37-4.76-1.57-6.58-3.47-2.31-2.41-3.59-5.67-3.6-9.18-.01-3.51,1.24-6.85,3.52-9.4,2.29-2.55,5.34-4.01,8.6-4.11,6.71-.2,12.2,5.53,12.23,12.78h0c.01,3.51-1.24,6.85-3.52,9.4Zm22.37,.92c-1.72,1.92-4.01,3.01-6.46,3.08-.52,.02-1.03-.02-1.52-.09-4.33-.65-7.65-4.62-7.67-9.5-.02-5.44,4.06-9.99,9.11-10.14,2.44-.07,4.75,.88,6.48,2.69,1.74,1.81,2.7,4.26,2.71,6.9,.01,2.64-.93,5.14-2.65,7.06Z"/>
                </g>
            </g>
        </g>
        <path id="Shape_01" class="cls-4" d="M385.05,311.24c-13.52-8.77-32.53-3.56-47.02-.38-18.14,3.98-37.41,.62-56.1,.22-16.5-.35-31.91,5.68-47.74,9.38-14.02,3.28-28.24,.94-42.27-.89-7.79-1.02-15.77-2.17-23.57-.8-16.57,2.91-28.51,8.87-45.63,3.84-12.54-3.68-25.2-8.8-38.47-8.68-13.34,.12-22.39,10.04-33.69,15.43-14.89,7.11-61.82,1.73-48.06,32.45,.5,1.13,1.12,2.26,1.17,3.49,.03,.79-.18,1.57-.38,2.34-3.17,11.85-1.63,23.82-1.01,35.84,.72,13.96,.9,27.06,2.89,40.95,.26,1.81,.52,3.63,.54,5.46,.15,11.42-3.12,22.65-2.65,34.08,.3,7.25,4.15,13.75,4.94,20.89,.77,6.96-1.74,13.44,4.81,18.49,15.51,11.96,34.96-4.72,46.22-14.95,12.24-11.12,25.32-22.89,39.65-31.98,15.67-9.93,34.47-10.65,51.73-16.15,18.25-5.81,33.55-18.85,49.27-29.81,15.47-10.79,34.1-15.62,52.01-20.58,17.61-4.88,30.35-16.22,44.75-26.63,13.78-9.96,29.16-17.4,44.91-23.69,12.55-5.01,26.56-6.55,38.93-12.59,10.7-5.23,17.59-16.87,11.5-28.26-1.77-3.31-4.06-5.73-6.71-7.44Z"/>
        <path id="N_02" class="cls-5" d="M704.43,539.1c-7.16-3.23-8.06-12.43-9.4-19.3-.78-3.98-1.92-8.18,1.78-11.13,3.7-2.96,9.42-1.89,13.45-4.24,14.5-8.43,12.11-29.95-6.91-26.75-9.7,1.63-13.9,8.87-19.77,15.98-.78,.94-1.63,1.91-2.78,2.3-4.68,1.58-6.04-7.87-7.21-10.54-4.04-9.25-11.78-3-19.27-2.36-8.03,.69-4.53-8.61-3.58-13.84,1-5.51,.44-12.1-4.49-15.74-5.07-3.73-10.21-1.4-13.18,3.72-4.2,7.25-1.56,15.76-8.95,21.53-4.76,3.72-10.73,5.56-13.43,11.45-.27,.59-.54,1.26-1.14,1.52-.46,.2-.99,.08-1.48-.04-5.23-1.3-16.5-5.86-19.28,1.45-1.8,4.77-.75,11.04,2.37,15.05,7.24,9.3-8.15,23.52-16.33,24.28-4.08,.38-8.33,.23-12.06,1.92-3.99,1.82-6.85,5.58-8.42,9.68-1.78,4.65-1.85,10.44,1.54,14.07,3.62,3.87,9.88,3.93,14.85,2.08,4.97-1.85,9.23-5.21,14.01-7.49,7.29-3.49,12,.24,9.74,7.93-1.98,6.74-13.73,15.3-10.76,22.14,2.48,5.72,11.64,3.96,16.11,1.79,5.61-2.73,14.38-9.19,17.8-.24,2.56,6.68-6.45,12.58-7.29,18.81-.88,6.55,4.88,7.19,9.77,6.93,5.43-.29,8.59-3.23,11.42-6.84,1.52-1.95,2.95-4.09,4.58-6.12,5.74-7.14,11.08-7.01,19.37-3.3,6.33,2.83,10.77,11.44,18.01,11.85,4.56,.26,9.28-1.94,11.49-6.04,3.85-7.15-4.74-12.87-2.08-17.9,1.24-2.35,5.3-2.67,7.03-4.66,3.11-3.57,3.8-9.44,7.32-12.52,7.97-6.99,21.09,4.31,27.34-6.5,8.85-15.33-11.87-15.15-20.17-18.89Zm-109.12,40.06s.05,.06,.07,.09c.1,.34-1.04,.35-.07-.09Zm68.78-19.16h-40.13v-9.34l14.65-14.27c1.94-1.89,3.57-3.59,4.89-5.08,1.32-1.49,2.32-2.9,2.99-4.22,.67-1.32,1.01-2.65,1.01-4,0-1.09-.2-2.04-.6-2.84-.4-.8-1.02-1.43-1.87-1.91-.85-.47-1.97-.71-3.36-.71-1,0-1.99,.26-2.99,.78-1,.52-1.83,1.4-2.5,2.62-.67,1.22-1.08,2.93-1.23,5.12h-12.63c.05-4.58,.93-8.31,2.65-11.17,1.72-2.86,4.08-4.96,7.1-6.28,3.01-1.32,6.46-1.98,10.35-1.98,4.23,0,7.82,.59,10.76,1.76,2.94,1.17,5.19,2.87,6.76,5.08,1.57,2.22,2.35,4.94,2.35,8.18,0,1.89-.36,3.84-1.08,5.83-.72,1.99-1.88,4.05-3.47,6.17-1.59,2.12-3.76,4.37-6.5,6.76l-8.21,7.1h21.06v12.4Z"/>
    </g>
    <g id="Step_03">
        <path id="ThumbsUp" d="M270.94,970.24l-3.51,.46h0c.6-9.44-4.88-16.79-12.6-15.45-1.2,.21-1.96,1.47-1.54,2.61,1.35,3.65,.87,9.75-1.47,13.2-.73,1.08-1.84,1.83-3.06,2.32-.15,.06-.3,.13-.45,.2h0c-2.63,1.26-4.28,4.11-3.87,7.16l2.71,20.53c.5,3.8,3.99,6.47,7.78,5.97l20.53-2.71c3.8-.5,6.47-3.99,5.97-7.78l-2.71-20.53c-.5-3.8-3.99-6.47-7.78-5.97Z"/>
        <g id="ClientEyebrows">
            <path d="M214.84,899.94c-.77,0-1.53-.34-2.04-1-7.51-9.67-16.88-12.7-28.62-9.26-1.37,.4-2.81-.38-3.21-1.75s.38-2.81,1.75-3.21c13.83-4.05,25.32-.34,34.16,11.05,.88,1.13,.67,2.75-.46,3.63-.47,.37-1.03,.54-1.58,.54Z"/>
            <path d="M127.45,909.07c-.42,0-.84-.1-1.24-.32-1.25-.69-1.71-2.26-1.03-3.51,8.43-15.42,21.54-22.12,38.97-19.92,1.42,.18,2.42,1.47,2.24,2.89-.18,1.42-1.47,2.42-2.89,2.24-15.32-1.93-26.38,3.72-33.79,17.27-.47,.86-1.36,1.35-2.27,1.35Z"/>
        </g>
        <path id="Client-3" d="M239.69,1029.31l-47.18-81.53h0c1.46,.21,2.95,.25,4.44,.11,1.05-.1,2.11-.29,3.14-.56,10.1-2.68,16.14-13.08,13.46-23.17-1.15-4.35-3.83-8.16-7.54-10.72-3.66-2.53-8.11-3.7-12.52-3.29-1.05,.1-2.09,.28-3.11,.55-4.75,1.26-8.73,4.25-11.28,8.42-1.36-1.8-2.99-3.4-4.88-4.7-4.13-2.86-9.15-4.18-14.12-3.72h0c-1.18,.11-2.36,.32-3.51,.62-5.52,1.46-10.14,4.99-13,9.94-2.86,4.94-3.63,10.7-2.17,16.22,1.46,5.52,4.99,10.14,9.92,13.01,3.87,2.25,8.26,3.23,12.68,2.82,1.04-.1,2.09-.29,3.11-.54l-30.4,86.1c-3.73,10.56,3,21.97,14.06,23.73,22.08,3.51,58.4,.14,79.46-7.38,10.55-3.77,15.07-16.21,9.45-25.91Zm-61.18-95.21l-3-1.87c-3.21-2.01-7.31-1.93-10.45,.19l-4.45,3.01c-1.18,.8-1.49,2.41-.7,3.59,.5,.74,1.31,1.14,2.14,1.14,.5,0,1-.14,1.44-.44l4.45-3.01c1.44-.97,3.33-1.01,4.81-.08l3.81,2.38c.14,.09,.28,.15,.42,.21-.18,.39-.37,.77-.59,1.14h0c-1.39,2.4-3.31,4.37-5.6,5.79-.46,.28-.93,.55-1.42,.78-.97,.48-2,.86-3.07,1.15-.91,.24-1.83,.4-2.75,.49h0c-.3,.03-.59,.04-.89,.05-.13,0-.26,.02-.39,.02-.11,0-.21,0-.32,0-.74,0-1.49-.05-2.22-.15-.31-.04-.62-.11-.93-.17-.11-.02-.22-.03-.33-.06-.65-.14-1.28-.34-1.91-.56-.23-.08-.46-.16-.68-.25-.74-.3-1.48-.65-2.18-1.06-3.35-1.95-5.87-4.94-7.2-8.53-.19-.51-.36-1.04-.5-1.57-.43-1.61-.61-3.24-.55-4.86,.02-.54,.06-1.08,.13-1.61,.29-2.13,.99-4.21,2.1-6.13,1.25-2.16,2.94-3.95,4.94-5.33,.66-.46,1.35-.88,2.08-1.24,.97-.48,2-.86,3.07-1.15,.51-.14,1.02-.24,1.53-.32,.16-.03,.32-.04,.49-.07,.24-.03,.47-.07,.71-.1,.12-.01,.24-.01,.36-.02,.16-.01,.32-.02,.48-.03,.37-.01,.73-.02,1.09,0,.14,0,.28,0,.42,0,.48,.02,.97,.07,1.44,.13,.1,.01,.19,.04,.29,.05,.38,.06,.75,.13,1.13,.22,.18,.04,.35,.09,.53,.13,.29,.08,.58,.16,.87,.26,.18,.06,.37,.12,.55,.18,.3,.11,.6,.23,.89,.36,.28,.12,.56,.25,.83,.39,.25,.13,.5,.25,.75,.39,.22,.13,.44,.26,.66,.4,.17,.11,.34,.22,.51,.33,.23,.16,.46,.32,.68,.48,.12,.09,.25,.19,.37,.29,.82,.65,1.57,1.37,2.26,2.17,.07,.08,.14,.16,.21,.24,.22,.27,.43,.54,.63,.82,.05,.07,.1,.15,.16,.22,1.09,1.56,1.95,3.32,2.47,5.26,.56,2.11,.68,4.25,.41,6.35Zm4.5,2.08c.63-3.16,.56-6.45-.29-9.66-.21-.81-.49-1.59-.79-2.35,.28-.78,.63-1.54,1.05-2.27,1.9-3.27,4.96-5.61,8.62-6.58,.78-.21,1.56-.34,2.33-.42,6.76-.63,13.2,3.7,15,10.48h0c.25,.95,.4,1.89,.45,2.84l-.7-.44c-3.21-2.01-7.31-1.93-10.45,.19l-4.45,3.01c-1.18,.8-1.49,2.41-.69,3.59,.5,.74,1.31,1.14,2.14,1.14,.5,0,1-.14,1.44-.44l4.45-3.01c1.45-.98,3.34-1.01,4.81-.08l2.62,1.64c-1.53,4.23-5.03,7.67-9.69,8.91-.78,.21-1.57,.35-2.35,.42-2.91,.27-5.82-.37-8.4-1.86-2.15-1.25-3.88-3-5.1-5.09Z"/>
        <g id="FilmReel_Dazzle">
            <path d="M404.02,838.15c-.33,0-.66-.13-.91-.38-.5-.5-.5-1.32,0-1.83l9.08-9.08c.51-.5,1.32-.5,1.83,0,.5,.5,.5,1.32,0,1.83l-9.08,9.08c-.25,.25-.58,.38-.91,.38Z"/>
            <path d="M343.31,812.68c-.71,0-1.29-.58-1.29-1.29v-12.84c0-.71,.58-1.29,1.29-1.29s1.29,.58,1.29,1.29v12.84c0,.71-.58,1.29-1.29,1.29Z"/>
            <path d="M282.38,837.6c-.33,0-.66-.13-.91-.38l-9.08-9.08c-.5-.5-.5-1.32,0-1.83,.5-.5,1.32-.5,1.83,0l9.08,9.08c.5,.5,.5,1.32,0,1.83-.25,.25-.58,.38-.91,.38Z"/>
            <path d="M256.9,898.3h-12.85c-.71,0-1.29-.58-1.29-1.29s.58-1.29,1.29-1.29h12.85c.71,0,1.29,.58,1.29,1.29s-.58,1.29-1.29,1.29Z"/>
        </g>
        <path id="FilmReel" d="M402.97,884.25c-6.25-34.46-32.63-58.52-58.92-53.75-4.31,.78-8.35,2.3-12.07,4.43-4.22-.69-8.53-.69-12.83,.09-26.29,4.77-42.53,36.57-36.28,71.02,1.95,10.76,5.87,20.51,11.13,28.68l3.74,8.24c2.16,4.76,3.18,10.04,2.95,15.27-.41,9.21,2.52,18.27,8.25,25.49l4.11,5.18c1.06,1.34,2.66,2.09,4.33,2.09,.33,0,.66-.03,.99-.09l19.65-3.56c1.93-.35,3.5-1.66,4.19-3.49s.38-3.85-.84-5.39l-2.07-2.6c-3.6-4.54-5.93-9.91-6.82-15.56,3.08,.21,6.2,.07,9.31-.5,4.31-.78,8.34-2.3,12.06-4.43,4.23,.69,8.54,.69,12.84-.09,26.29-4.77,42.53-36.57,36.28-71.02Zm-6.94-1.24l-18.45,3.35c-1.66-7.83-4.36-15.09-7.86-21.55l18.04-3.27c3.72,6.32,6.58,13.57,8.27,21.47Zm-11.16-25.94l-17.81,3.23c-3.63-5.68-7.91-10.6-12.63-14.59l16.03-2.91c5.38,3.57,10.29,8.42,14.41,14.26Zm-63.76-11.24c4.6-.83,9.21,3.38,10.31,9.4,1.09,6.03-1.75,11.59-6.35,12.42-4.6,.83-9.21-3.38-10.31-9.4s1.75-11.59,6.35-12.42Zm-23.65,46.29c4.6-.83,9.21,3.38,10.31,9.4,1.09,6.03-1.75,11.59-6.35,12.42-4.6,.83-9.21-3.38-10.31-9.4-1.09-6.03,1.75-11.59,6.35-12.42Zm11.18,81.79c-1.6-3.46-2.6-7.17-2.94-10.98l21.91-1.92c.48,3.09,1.33,6.11,2.55,8.99l-21.52,3.9Zm28.86,7.6c.18,.22,.15,.45,.09,.6-.06,.15-.18,.33-.46,.39l-19.65,3.56c-.22,.04-.45-.04-.59-.22l-4.11-5.18c-.94-1.18-1.79-2.42-2.55-3.71l21.38-3.88c1.09,2.05,2.36,4,3.82,5.84l2.07,2.6Zm-31.93-21.86c0-.4,0-.81,.03-1.21,.17-3.75-.23-7.53-1.16-11.18,5.39,5,11.42,8.75,17.78,10.93l-16.65,1.46Zm34.25-10.67c-4.6,.83-9.21-3.38-10.31-9.4s1.75-11.59,6.35-12.42c4.6-.83,9.21,3.38,10.31,9.4,1.09,6.03-1.75,11.59-6.35,12.42Zm-5.42-29.85c-9.15,1.66-18.34-6.72-20.52-18.72-2.18-12,3.48-23.07,12.63-24.73,9.15-1.66,18.34,6.72,20.52,18.72s-3.48,23.07-12.63,24.73Zm8.21-80.96l10.78-1.96c4.37,.56,8.65,1.95,12.72,4.04l-15.17,2.75c-2.67-1.91-5.46-3.54-8.33-4.84Zm10.54,55.11c-1.09-6.03,1.75-11.59,6.35-12.42,4.6-.83,9.21,3.37,10.3,9.39v.02c1.09,6.02-1.75,11.58-6.34,12.41-4.6,.83-9.21-3.38-10.31-9.4Zm20.27,53.35l-10.78,1.96c2.23-2.23,4.27-4.73,6.1-7.46l15.17-2.75c-3.08,3.39-6.6,6.19-10.49,8.25Zm13.66-12.16l-16.03,2.91c3.02-5.39,5.3-11.5,6.7-18.1l17.81-3.23c-1.81,6.92-4.7,13.18-8.48,18.42Zm9.61-23.62l-18.04,3.27c1.01-7.27,.99-15.02-.21-22.93l18.45-3.35c1.19,7.99,1.06,15.78-.2,23.01Z"/>
        <g id="Ink-3">
            <path d="M512.85,873.16c-2.73-.9-5.6,.14-7.12,2.58l-25.79,41.23c-1.01,1.61-1.21,3.56-.57,5.34s2.05,3.15,3.85,3.74l22.06,7.26c.87,.29,1.77,.37,2.65,.27,.94-.11,1.86-.45,2.68-.99,1.58-1.05,2.57-2.74,2.72-4.64l3.73-48.49c.22-2.87-1.47-5.4-4.2-6.3Z"/>
            <path d="M471.5,915.54l-19.18-44.69c-1.14-2.65-3.8-4.11-6.65-3.64-2.84,.47-4.9,2.72-5.12,5.59l-3.73,48.49c-.15,1.89,.57,3.72,1.97,5,1.33,1.22,3.09,1.78,4.87,1.57,.1-.01,.19-.02,.29-.04l22.91-3.8c1.87-.31,3.47-1.44,4.38-3.11,.91-1.67,1-3.62,.26-5.37Z"/>
            <g>
                <path d="M528.01,998.32c13.06-13.28,14.06-35.46,2.08-47.63-8.64-8.78-22.47-10.83-34.8-5.94-.22-.87-.52-1.72-.9-2.56-2.52-5.52-7.85-8.91-13.91-8.85l-36.83,.36h0c-4.27,.04-8.34,1.9-11.17,5.09s-4.19,7.46-3.72,11.7l4.05,36.6c.67,6.03,4.67,10.92,10.45,12.75,2.14,.68,4.32,.88,6.43,.63,3.58-.43,6.93-2.15,9.47-5.01l32.78-36.97c.34-.38,.65-.78,.94-1.18l.34,.48c9.72-6.98,22.34-6.86,29.36,.28,6.31,6.41,7.43,19.83,.59,29.65-2.45-4.67-5.32-9.37-8.63-14.07-1.42-2.01-3.69-3.15-6.22-3.13-2.96,.03-5.97,1.68-7.68,4.21-.69,1.02-1.11,2.22-1.21,3.49h0c-1.43,17.18-7.56,32.3-19.32,47.56-.66,.86-1.12,1.82-1.34,2.83-.58,2.59,.03,5.28,1.66,7.4,1.62,2.11,4.08,3.37,6.74,3.48l35.48,1.38c1.18,.05,2.33-.14,3.39-.52,2.69-.96,4.83-3.16,5.57-5.97,2.25-8.57,1.84-18.32-1.21-28.96-.67-2.35-1.49-4.72-2.4-7.1Zm-67.1-38.46c-1.75,3.21-4.65,5.55-8.15,6.57-.75,.22-1.5,.37-2.26,.46-2.8,.33-5.63-.21-8.16-1.59-3.2-1.76-5.54-4.66-6.56-8.16s-.63-7.21,1.12-10.42c1.75-3.21,4.65-5.55,8.15-6.57,7.24-2.12,14.85,2.05,16.98,9.3h0c1.03,3.51,.63,7.21-1.12,10.42Zm24.57-5.47c-1.32,2.41-3.49,4.16-6.13,4.93-.56,.16-1.12,.28-1.68,.34-4.89,.58-9.64-2.44-11.07-7.32-1.59-5.44,1.53-11.16,6.97-12.76,2.64-.77,5.41-.47,7.82,.84,2.41,1.32,4.16,3.49,4.93,6.13,.77,2.64,.47,5.41-.84,7.82Z"/>
                <path d="M471.56,944.37c-2.04,.24-3.49,2.09-3.25,4.13,.24,2.04,2.09,3.49,4.13,3.25s3.49-2.09,3.25-4.13c-.24-2.04-2.09-3.49-4.13-3.25Z"/>
                <path d="M443.37,945.19c-2.72,.32-4.66,2.79-4.34,5.51,.32,2.72,2.79,4.66,5.51,4.34,2.72-.32,4.66-2.79,4.34-5.51-.32-2.72-2.79-4.66-5.51-4.34Z"/>
            </g>
        </g>
        <path id="N_03" class="cls-1" d="M718.49,843.32c-1.54-8.26-6.64-7.71-12.93-4.62-3.47,1.71-7.7,5.13-12.06,4.62-5.77-.69-6.31-6.95-4.11-11.27,2.33-4.56,7.08-10.28,6.95-15.65-.21-8.94-7.18-6.52-12.67-3.34-3.76,2.18-6.95,5.38-10.89,7.25-2.43,1.15-8.53,2.92-11.07,1.64-5.31-2.68,.14-11.48,2-14.71,3.19-5.55,7.09-13.72,4.62-20.23-2.53-6.67-9.89-8.61-16.24-6.58-6.07,1.93-8.7,6.97-9.73,12.89-.84,4.84,1.43,12.03-1.73,16.43-4.77,6.64-16.4,7.77-23.82,7.68-.92-.73-1.91-1.38-2.97-1.93-3.92-2.04-9.32-3.15-13.51-1.24-5.75,2.62-4.32,7.28-2.66,12.12,1.72,5.02,3.08,6.96,.17,11.55-3.41,5.39-6.86,11.15-11.94,15.16-6.43,5.07-16.29,2.69-22.75,7.78-5.66,4.47-4.2,10.18,1.39,13.79,5.52,3.56,11.28,2.6,17.35,1.34,4.97-1.03,10.18-.69,9.74,5.6-.31,4.37-3.06,10.21-1.58,14.53,1.37,3.98,7.8,4.6,10.8,6.75,6.31,4.53-2.05,10.96-5.66,13.88-5.42,4.38-10.06,13.71-9.21,20.91,.88,7.49,7.87,9.87,14.5,8.56,7.42-1.46,10.2-6.66,12.64-13.16,2.25-5.98,6.86-13.51,14.62-12,5.33,1.03,12.17,1.08,17.02,4.18,7.26,4.64,2.94,29.2,15.38,26.31,15.5-3.61,6.83-18.83,12.06-28.7,2.9-5.48,7.97-9.34,13.98-10.79,7.21-1.73,14.75,2.06,21.63-.82,8.03-3.37,6.37-12.25,2.44-18.21-4.7-7.14-12.18-14.08-10.15-23.65,1.43-6.75,8.86-9.84,13.68-13.85,4.23-3.53,5.46-8.23,4.72-12.19Zm-56.46,49.31c-1.59,2.27-3.91,4.04-6.95,5.31-3.04,1.27-6.7,1.9-10.98,1.9-4.78,0-8.76-.62-11.92-1.87-3.16-1.25-5.54-3.18-7.14-5.79-1.59-2.62-2.42-5.89-2.47-9.83h12.4c.15,1.69,.58,3.03,1.31,4,.72,.97,1.66,1.66,2.8,2.06,1.15,.4,2.39,.6,3.74,.6,1.49,0,2.75-.26,3.77-.79,1.02-.52,1.78-1.24,2.28-2.17,.5-.92,.75-1.98,.75-3.18,0-1.29-.27-2.38-.82-3.25-.55-.87-1.45-1.54-2.69-2.02-1.25-.47-2.94-.71-5.08-.71h-6.58v-8.97h5.98c1.54,0,2.91-.16,4.11-.49,1.2-.32,2.15-.92,2.88-1.79,.72-.87,1.08-2.1,1.08-3.7,0-1.1-.22-2.05-.67-2.88-.45-.82-1.13-1.48-2.06-1.98s-2.1-.75-3.55-.75c-1,0-1.98,.19-2.95,.56-.97,.37-1.79,1.05-2.47,2.02-.67,.97-1.08,2.33-1.23,4.07h-12.25c.1-3.99,.95-7.26,2.54-9.83,1.59-2.56,3.85-4.46,6.76-5.68,2.91-1.22,6.31-1.83,10.2-1.83s7.17,.52,10.16,1.57c2.99,1.04,5.35,2.6,7.1,4.67,1.74,2.07,2.62,4.65,2.62,7.73s-.89,5.72-2.65,7.73c-1.77,2.02-4.2,3.5-7.29,4.45-.12,.04-.25,.06-.37,.1,1.05,.22,2.04,.48,2.95,.8,3.01,1.05,5.28,2.59,6.8,4.63,1.52,2.04,2.28,4.53,2.28,7.47s-.8,5.54-2.39,7.81Zm25.9-70.99s-.06-.05-.09-.07c.45-.97,.44,.17,.09,.07Z"/>
    </g>
</svg>