<?xml version="1.0" encoding="UTF-8"?><svg id="Layer_1" xmlns="http://www.w3.org/2000/svg" viewBox="0 0 1440 337.27"><defs><style>.cls-1{fill:#08d7b9;}</style></defs><path class="cls-1" d="M943.67,212.16c.13,.03,.31,.06,.53,.09-.1-.03-.19-.05-.27-.07-.08,0-.17-.02-.25-.02Z"/><path class="cls-1" d="M1440,150.97h0V0H0V255.33c1.95-.37,3.88-1.04,5.72-2.03,15.59-8.44,29.19-20.44,45.37-27.8,18.86-8.58,38.04-5.47,57.94-8.43,5.06-.75,10.1-1.57,15.15-2.38,2.73-.44,5.47-.87,8.2-1.29,.59-.09,2.23-.33,3.72-.54,1.67-.2,4.81-.59,5.59-.67,2.33-.24,4.66-.45,6.99-.62,5.75-.41,11.53-.58,17.3-.36,1.87,.07,3.74,.27,5.62,.39,1.35,.21,3.05,.42,3.5,.51,6.17,1.16,12.26,2.66,18.37,4.05,13.7,3.13,27.9,5.88,42,5.7,13.7-.17,27.59-2.56,40.85-5.92,10.85-2.75,21.48-6.29,32.2-9.51,5.16-1.55,10.33-3.03,15.56-4.32,2.8-.69,5.61-1.33,8.43-1.89,.52-.1,1.9-.35,3.27-.59-.07,.13,5.41-.49,6.79-.54,2.48-.09,4.96-.09,7.44,0,2.9,.1,5.77,.43,8.66,.66,.24,.02,.44,.03,.61,.05,.97,.27,1.83,.54,2.22,.62,11.08,2.2,21.92,5.44,32.76,8.58,23.87,6.92,48.95,13.2,73.97,10.6,1.86-.19,3.73-.42,5.59-.65,12.86,9.71,27.72,16.84,43.37,20.58,4.85,8.26,10.79,15.82,18.27,21.91,16,13.04,35.66,19.4,56.19,15.26,9.31-1.88,18.03-6.41,26.54-10.5,60.44-29.04,112.88-61.03,182.82-52.38,22.58,2.79,34.94,20.11,33.34,42.23-.94,12.93-4.49,25.81-2.93,38.69,3.12,25.78,30.02,46.37,55.61,41.94,25.59-4.43,44.05-33.65,36.39-58.46-7.44-24.09-21.02-63.17,19.37-66.06,20.76-1.48,36.93,15.87,54.21,24.36,17.02,8.36,36.85,8.51,55.11,5.02,37.34-7.13,71.75-29.21,110.67-27.85,7.65,.27,16.16,.96,22.19,6.23,7.87,6.89,5.08,17.46,4.58,26.67-.91,16.61,11.03,33.04,27.11,37.3,16.07,4.26,34.58-4.08,42.03-18.95,6.56-13.09,2.77-35.37,17.41-43.29,9.99-5.41,22.65-3.25,33.45-2.52,13.97,.95,27.89,3.11,41.92,3.27,25.74,.29,51.49,.22,77.23-.2,3.23-.05,7.07,.03,11.32,.16v-71.38ZM355.39,199.3c.55-.35,2.21,.02,3.69,.43-1.33-.14-3.76-.38-3.69-.43Z"/></svg>