<?xml version="1.0" encoding="UTF-8"?>
<svg id="Layer_1"
    xmlns="http://www.w3.org/2000/svg" viewBox="0 0 615.89 577.27">
    <defs>
        <style>.cls-1{font-size:104.43px;}.cls-1,.cls-2,.cls-3{fill:#fff;font-family:AcuminConcept-ExtraCondensedBold, 'Acumin Variable Concept';font-variation-settings:'wght' 700, 'wdth' 50, 'slnt' 0;}.cls-4{letter-spacing:.01em;}.cls-5{letter-spacing:0em;}.cls-6{fill:#61fc4b;}.cls-7{fill:#f3aa3b;}.cls-2{font-size:88.14px;}.cls-8{letter-spacing:0em;}.cls-9{letter-spacing:0em;}.cls-10{letter-spacing:-.02em;}.cls-11{letter-spacing:0em;}.cls-12{letter-spacing:0em;}.cls-13{letter-spacing:0em;}.cls-3{font-size:144.45px;}</style>
    </defs>
    <g>
        <path class="cls-6" d="M387.29,522.67c-.1,.06-.19,.13-.29,.19,1.12-.3,1.59-.55,1.66-.66-.38,.1-.76,.21-1.14,.33-.07,.04-.15,.09-.23,.14Z"/>
        <g>
            <path class="cls-7" d="M373.93,32.11c-4.62,1.68-1.79,.8,0,0h0Z"/>
            <path class="cls-7" d="M615.69,319.1c-.11-1.16-.26-2.3-.46-3.44-3.54-20.4-22.06-34.62-41.85-37.59-9.95-1.49-18.11-3.65-19.59-15.23-2.78-21.77-.42-46.23-10.73-66.27-7.82-15.2-24.38-24.02-30.62-40.29-6.01-15.66,.84-33.8-14.16-45.85-13.4-10.77-30.42-16.54-42.77-28.7-13.85-13.64,3.48-32.78,3.52-48.22,.04-12.98-6.22-24.69-18.44-29.94-16.94-7.28-38.36-3.09-51.33,9.96-6.42,6.46-10.2,16.43-18.83,20.35-8.07,3.67-17.31,6.09-26.17,4.35-15.24-3-31.53-4.7-46.06-10.39-13.57-5.31-25.01-11.17-40.11-11.12-28.75,.08-55.96,12.76-81.92,23.72-24.63,10.39-47.96,26.21-59.67,51.06-2.37,5.03-4.04,11.77-10.33,13.13-11.67,2.53-18.13-16.09-22.96-23.43-7.57-11.51-15.75-23.08-29.5-27.48-20.72-6.63-46.19-.68-52.42,22.58-6.93,25.84,15.07,55.3,40.17,60.58,8.33,1.75,21.21,.87,23.23,11.78,2.38,12.87-15.94,16.4-21.34,25.18-8.36,13.59-9.83,29.21-8.01,44.76,1.01,8.64,2.99,15.9,1.36,24.61-1.83,9.78-5.93,18.97-8.42,28.58-3.49,13.49-5.14,27.33-1.49,40.99,2.37,8.85,8.57,18.52,6.58,27.87-2.06,9.68-10.4,17.71-14.08,26.79-4.75,11.71-6.94,23.96-4.27,36.48,3.89,18.27,15.89,35.64,36.1,36.53,12.39,.54,23.58-4.48,36.17-1.74,10.26,2.23,19.29,8.28,22.31,18.77,.62,2.14,.36,4.44-.08,6.62-3.66,18.18-17.87,24.74-30.37,36.2-10.59,9.71-16.8,23.71-15.28,38.17,2.27,21.51,17.45,43.45,41.64,37.96,26.59-6.03,41.73-28.01,48.97-52.96,6.09-20.98,21.62,7.66,27.36,13.19,13.96,13.44,35.22,14.26,52.5,7.56,13.57-5.26,26.12-10.76,40.99-10.06,16.15,.76,31.67,6.45,47.87,6.93,20.6,.6,42.11-1.38,60.95-10.32,10.47-4.97,19.45-12.3,26.62-21.38,5.99-7.58,12.35-20.33,22.81-22.3,12.61-2.38,25.07,12.66,32.7,20.82,13.66,14.59,21.69,33.76,36.72,47.2,39.85,35.62,94.64-23.52,60.96-62.45-17.66-20.42-47.46-17.32-67.49-33.77-17.28-14.18,3.18-31.74,12.65-43.2,8.71-10.55,20.29-18.75,26.6-31.18,4.91-9.67,4.82-24.7,13.52-31.96,7.23-6.04,18.32,5.28,25.44,6.73,7.69,1.57,15.58,.94,22.68-2.53,14.16-6.93,19.7-22.64,18.32-37.62Zm-443.24,202.67c-.24-.29-.48-.58-.71-.87,.1,.05,.19,.11,.29,.16,1.38,.72,1.7,1.64,.42,.71Z"/>
        </g>
    </g>
    <g>
        <text class="cls-1" transform="translate(105.05 234.1)">
            <tspan x="0" y="0">How My</tspan>
        </text>
        <text class="cls-2" transform="translate(107.4 318.85)">
            <tspan class="cls-8" x="0" y="0">Commissions</tspan>
        </text>
        <text class="cls-3" transform="translate(215.22 432.64)">
            <tspan class="cls-10" x="0" y="0">Work!</tspan>
        </text>
    </g>
</svg>