<?xml version="1.0" encoding="UTF-8"?><svg id="hero-banner" xmlns="http://www.w3.org/2000/svg" viewBox="0 0 100 100"><circle cx="50" cy="50" r="33.09"/><path d="M21.93,23.13c-.31,0-.62-.12-.85-.35l-6.43-6.43c-.47-.47-.47-1.23,0-1.7s1.23-.47,1.7,0l6.43,6.43c.47,.47,.47,1.23,0,1.7-.24,.24-.54,.35-.85,.35Z"/><path d="M10.3,51.21H1.21C.54,51.21,0,50.67,0,50s.54-1.21,1.21-1.21H10.3c.67,0,1.21,.54,1.21,1.21s-.54,1.21-1.21,1.21Z"/><path d="M15.5,85.71c-.31,0-.62-.12-.85-.35-.47-.47-.47-1.23,0-1.7l6.43-6.43c.47-.47,1.23-.47,1.7,0s.47,1.23,0,1.7l-6.43,6.43c-.24,.24-.54,.35-.85,.35Z"/><path d="M50,100c-.67,0-1.21-.54-1.21-1.21v-9.1c0-.67,.54-1.21,1.21-1.21s1.21,.54,1.21,1.21v9.1c0,.67-.54,1.21-1.21,1.21Z"/><path d="M84.5,85.71c-.31,0-.62-.12-.85-.35l-6.43-6.43c-.47-.47-.47-1.23,0-1.7s1.23-.47,1.7,0l6.43,6.43c.47,.47,.47,1.23,0,1.7-.24,.24-.54,.35-.85,.35Z"/><path d="M98.79,51.21h-9.1c-.67,0-1.21-.54-1.21-1.21s.54-1.21,1.21-1.21h9.1c.67,0,1.21,.54,1.21,1.21s-.54,1.21-1.21,1.21Z"/><path d="M51.2,1.21V10.3c0,.67-.54,1.21-1.21,1.21s-1.21-.54-1.21-1.21V1.21c0-.67,.54-1.21,1.21-1.21s1.21,.54,1.21,1.21Z"/><path d="M78.07,23.13c-.31,0-.62-.12-.85-.35-.47-.47-.47-1.23,0-1.7l6.43-6.43c.47-.47,1.23-.47,1.7,0s.47,1.23,0,1.7l-6.43,6.43c-.24,.24-.54,.35-.85,.35Z"/></svg>