<?xml version="1.0" encoding="UTF-8"?><svg id="hero-banner" xmlns="http://www.w3.org/2000/svg" viewBox="0 0 100 130.03"><line x1="49.6" y1="5.56" x2="49.6" y2="63.2"/><g><circle cx="49.6" cy="5.56" r="5.23"/><circle cx="49.6" cy="24.07" r="5.23"/><circle cx="49.6" cy="42.58" r="5.23"/><circle cx="49.6" cy="61.09" r="5.23"/></g><circle cx="49.6" cy="88.54" r="27.46"/><path d="M26.3,66.25c-.26,0-.51-.1-.71-.29l-5.34-5.34c-.39-.39-.39-1.02,0-1.41s1.02-.39,1.41,0l5.34,5.34c.39,.39,.39,1.02,0,1.41-.2,.2-.45,.29-.71,.29Z"/><path d="M16.66,89.54h-7.55c-.55,0-1-.45-1-1s.45-1,1-1h7.55c.55,0,1,.45,1,1s-.45,1-1,1Z"/><path d="M20.97,118.17c-.26,0-.51-.1-.71-.29-.39-.39-.39-1.02,0-1.41l5.34-5.34c.39-.39,1.02-.39,1.41,0s.39,1.02,0,1.41l-5.34,5.34c-.2,.2-.45,.29-.71,.29Z"/><path d="M49.6,130.03c-.55,0-1-.45-1-1v-7.55c0-.55,.45-1,1-1s1,.45,1,1v7.55c0,.55-.45,1-1,1Z"/><path d="M78.23,118.17c-.26,0-.51-.1-.71-.29l-5.34-5.34c-.39-.39-.39-1.02,0-1.41s1.02-.39,1.41,0l5.34,5.34c.39,.39,.39,1.02,0,1.41-.2,.2-.45,.29-.71,.29Z"/><path d="M90.09,89.54h-7.55c-.55,0-1-.45-1-1s.45-1,1-1h7.55c.55,0,1,.45,1,1s-.45,1-1,1Z"/><path d="M72.89,66.25c-.26,0-.51-.1-.71-.29-.39-.39-.39-1.02,0-1.41l5.34-5.34c.39-.39,1.02-.39,1.41,0s.39,1.02,0,1.41l-5.34,5.34c-.2,.2-.45,.29-.71,.29Z"/></svg>