<?xml version="1.0" encoding="UTF-8"?><svg id="hero-banner" xmlns="http://www.w3.org/2000/svg" viewBox="0 0 100 130.03"><line x1="49.6" y1="5.56" x2="49.6" y2="63.2"/><path d="M61.26,110.12c-12.34,0-22.26-10.36-21.54-22.85,.63-10.94,9.64-19.8,20.59-20.28,.36-.02,.73-.02,1.08-.02,1.6,0,2.08-2.17,.65-2.9-3.86-1.97-8.24-3.05-12.88-2.98-14.2,.22-26.09,11.54-26.97,25.71-.99,15.95,11.66,29.2,27.4,29.2,4.49,0,8.74-1.08,12.48-3,1.44-.74,.87-2.89-.75-2.88h-.07Z"/><g><circle cx="49.6" cy="5.56" r="5.23"/><circle cx="49.6" cy="24.07" r="5.23"/><circle cx="49.6" cy="42.58" r="5.23"/><circle cx="49.6" cy="61.09" r="5.23"/></g></svg>